<svg width="77" height="59" viewBox="0 0 77 59" fill="none" xmlns="http://www.w3.org/2000/svg">
<rect width="77" height="59" fill="#f3f4f6"/>
<circle cx="40" cy="29" r="19.5" stroke="#241330"/>
<path d="M45.8564 35.9589H48.6208C48.721 35.9589 48.8171 35.9192 48.8879 35.8484C48.9587 35.7776 48.9986 35.6816 48.9986 35.5815L49 29.7448C49 26.6941 48.3422 24.3492 44.7747 24.3492C43.4186 24.2988 42.1397 24.9974 41.4496 26.1639C41.4463 26.1696 41.4411 26.174 41.435 26.1765C41.4289 26.179 41.4221 26.1794 41.4158 26.1776C41.4094 26.1759 41.4038 26.1722 41.3997 26.1669C41.3957 26.1617 41.3935 26.1553 41.3934 26.1487V25.0083C41.3934 24.9082 41.3536 24.8122 41.2828 24.7414C41.2119 24.6706 41.1159 24.6308 41.0157 24.6308H38.3923C38.2921 24.6308 38.196 24.6706 38.1252 24.7414C38.0543 24.8122 38.0145 24.9082 38.0145 25.0083V35.5809C38.0145 35.6811 38.0543 35.7771 38.1252 35.8479C38.196 35.9187 38.2921 35.9585 38.3923 35.9585H41.1565C41.2567 35.9585 41.3528 35.9187 41.4236 35.8479C41.4945 35.7771 41.5343 35.6811 41.5343 35.5809V30.3548C41.5343 28.877 41.8148 27.4459 43.648 27.4459C45.4552 27.4459 45.4786 29.1369 45.4786 30.4505V35.5814C45.4786 35.6815 45.5184 35.7776 45.5893 35.8484C45.6601 35.9192 45.7562 35.9589 45.8564 35.9589ZM32 21.0413C32 22.161 32.9224 23.0824 34.043 23.0824C35.1633 23.0823 36.0852 22.1604 36.0852 21.0408C36.085 19.9213 35.163 19 34.0426 19C32.922 19 32 19.9215 32 21.0413ZM32.6572 35.9589H35.4251C35.5253 35.9589 35.6214 35.9192 35.6923 35.8484C35.7631 35.7776 35.8029 35.6815 35.8029 35.5814V25.0083C35.8029 24.9082 35.7631 24.8122 35.6923 24.7414C35.6214 24.6706 35.5253 24.6308 35.4251 24.6308H32.6572C32.557 24.6308 32.461 24.6706 32.3901 24.7414C32.3193 24.8122 32.2795 24.9082 32.2795 25.0083V35.5814C32.2795 35.6815 32.3193 35.7776 32.3901 35.8484C32.461 35.9192 32.557 35.9589 32.6572 35.9589Z" fill="#BE5B23"/>
</svg>
