<svg width="44" height="44" viewBox="0 0 44 44" fill="none" xmlns="http://www.w3.org/2000/svg">
<path id="Vector" d="M22 44C26.3512 44 30.6047 42.7097 34.2225 40.2923C37.8404 37.8749 40.6602 34.439 42.3253 30.419C43.9905 26.3991 44.4261 21.9756 43.5773 17.708C42.7284 13.4404 40.6331 9.52042 37.5563 6.44366C34.4796 3.36691 30.5596 1.27161 26.292 0.422739C22.0244 -0.426138 17.6009 0.00953444 13.581 1.67466C9.56099 3.33979 6.12506 6.15958 3.70767 9.77747C1.29027 13.3953 -1.511e-06 17.6488 -1.8914e-06 22C0.00615833 27.8329 2.32599 33.4251 6.45045 37.5495C10.5749 41.674 16.1671 43.9938 22 44ZM22 3.38463C25.6818 3.38463 29.2809 4.4764 32.3421 6.52188C35.4034 8.56737 37.7894 11.4747 39.1984 14.8762C40.6073 18.2777 40.976 22.0207 40.2577 25.6317C39.5394 29.2427 37.7665 32.5597 35.1631 35.1631C32.5596 37.7665 29.2427 39.5394 25.6317 40.2577C22.0206 40.976 18.2777 40.6073 14.8762 39.1984C11.4747 37.7894 8.56735 35.4034 6.52187 32.3422C4.47638 29.2809 3.38461 25.6818 3.38461 22C3.39021 17.0646 5.35327 12.333 8.84312 8.84313C12.333 5.35328 17.0646 3.39023 22 3.38463ZM14.0335 24.8896C13.8762 24.7324 13.7515 24.5457 13.6664 24.3403C13.5813 24.1349 13.5375 23.9147 13.5375 23.6923C13.5375 23.47 13.5813 23.2498 13.6664 23.0443C13.7515 22.8389 13.8762 22.6522 14.0335 22.495C14.1907 22.3378 14.3774 22.213 14.5828 22.128C14.7882 22.0429 15.0084 21.9991 15.2308 21.9991C15.4531 21.9991 15.6733 22.0429 15.8787 22.128C16.0842 22.213 16.2708 22.3378 16.4281 22.495L20.3077 26.3767L20.3077 13.5385C20.3077 13.0896 20.486 12.6592 20.8034 12.3418C21.1207 12.0245 21.5512 11.8462 22 11.8462C22.4488 11.8462 22.8793 12.0245 23.1966 12.3418C23.514 12.6592 23.6923 13.0896 23.6923 13.5385L23.6923 26.3767L27.5719 22.495C27.8895 22.1775 28.3201 21.9991 28.7692 21.9991C29.2183 21.9991 29.649 22.1775 29.9665 22.495C30.2841 22.8126 30.4625 23.2432 30.4625 23.6923C30.4625 24.1414 30.2841 24.5721 29.9665 24.8896L23.1973 31.6588C23.0401 31.8162 22.8535 31.941 22.648 32.0262C22.4426 32.1113 22.2224 32.1552 22 32.1552C21.7776 32.1552 21.5574 32.1113 21.3519 32.0262C21.1465 31.941 20.9599 31.8162 20.8027 31.6588L14.0335 24.8896Z" fill="black"/>
</svg>
