<svg width="238" height="213" viewBox="0 0 238 213" fill="none" xmlns="http://www.w3.org/2000/svg">
<rect width="238" height="213" fill="white"/>
<path d="M42 67.3631H76.5666C78.9531 67.3631 79.7007 66.832 80.0773 64.8027C80.5283 62.4764 80.1478 60.0889 78.9847 57.9473H117.824C117.502 59.0021 117.14 59.9596 116.936 60.9413C116.733 61.775 116.659 62.6276 116.717 63.4774C117.099 67.1195 117.804 67.4118 121.412 67.3899C132.005 67.3266 142.597 67.3655 153.187 67.3655H154.958V85.1789H93.7148C93.3295 85.1789 92.9442 85.1643 92.5647 85.1789C90.3421 85.2934 89.3271 86.6821 90.2645 88.4093C91.9465 91.5471 93.6975 94.6606 95.3594 97.8032C95.6864 98.4267 95.8634 99.0993 95.8799 99.7814C95.9345 102.705 95.9029 105.628 95.9029 108.747C89.5485 109.136 86.0752 113.271 81.6932 116.815C81.6932 114.055 81.7277 111.636 81.6932 109.217C81.5955 103.47 77.1561 98.7826 70.5027 97.6936C66.6498 97.0626 62.7394 97.1138 59.1597 98.7899C54.3551 101.036 51.7558 104.525 51.7127 109.178C51.6236 118.316 51.6581 127.449 51.6954 136.595C51.7184 142.602 57.0118 147.523 64.0591 148.303C65.0714 148.434 66.0263 148.785 66.8309 149.321C72.8 153.319 81.2073 153.063 86.6847 148.59C89.3817 146.398 91.9839 144.12 94.6349 141.886C94.9627 141.608 95.3134 141.35 95.8137 140.955V165.505H42V67.3631Z" stroke="#324664" stroke-width="3"/>
<path d="M195.999 100.492V165.492H167.002V163.928C167.002 154.1 167.022 144.273 167.002 134.45C166.979 126.438 160.963 120.245 151.717 118.615C141.121 116.751 130.1 124.048 129.942 133.244C129.77 143.476 129.89 153.708 129.882 163.94V165.492H100.922V100.492H195.999Z" stroke="#324664" stroke-width="3"/>
<path d="M161.982 165.538H134.917C134.882 165.175 134.825 164.863 134.825 164.549C134.825 154.44 134.825 144.332 134.825 134.223C134.802 131.802 135.68 129.436 137.333 127.461C138.987 125.486 141.332 124.003 144.037 123.221C146.741 122.439 149.668 122.399 152.401 123.106C155.135 123.812 157.536 125.23 159.265 127.158C161.043 129.049 162.021 131.39 162.042 133.807C162.1 144.161 162.071 154.514 162.068 164.866C162.065 165.048 162.019 165.248 161.982 165.538Z" fill="#324664"/>
<path d="M195.969 89.5146V96.18H194.224C163.312 96.18 132.399 96.1882 101.484 96.2044C100.291 96.2044 99.6901 95.8901 99.2445 94.9863C98.3675 93.186 97.3525 91.4344 96.3203 89.5268L195.969 89.5146Z" fill="#324664"/>
<path d="M76.605 120.684H56.7109C56.7109 116.484 56.7109 112.357 56.7109 108.233C56.7312 108.072 56.7698 107.913 56.8259 107.758C57.199 106.091 58.2287 104.581 59.7466 103.474C61.2644 102.368 63.1806 101.731 65.1815 101.667C66.8866 101.623 68.6664 101.623 70.2995 101.979C74.0949 102.807 76.6798 105.763 76.7229 109.078C76.7689 112.81 76.7229 116.543 76.7229 120.272C76.6992 120.413 76.6597 120.55 76.605 120.684Z" fill="#324664"/>
<path d="M76.673 125.122C76.673 129.312 76.8742 133.451 76.6126 137.569C76.3883 141.116 72.3802 144.046 68.1564 144.1C66.4945 144.119 64.775 144.134 63.1793 143.808C61.375 143.422 59.7655 142.554 58.5897 141.333C57.4139 140.111 56.7345 138.6 56.6524 137.025C56.5086 133.098 56.6179 129.166 56.6179 125.122H76.673Z" fill="#324664"/>
<path d="M182.15 85.11H177.262C177.228 84.7349 177.176 84.4206 177.176 84.1088C177.176 72.9819 177.176 61.8567 177.176 50.7331C177.176 49.1203 177.851 48.2433 179.188 48.0386C179.518 47.9849 179.858 47.9872 180.186 48.0456C180.515 48.104 180.827 48.2171 181.104 48.3786C181.38 48.54 181.616 48.7464 181.798 48.9858C181.98 49.2253 182.103 49.4929 182.162 49.7732C182.202 50.0152 182.217 50.2598 182.205 50.5041C182.205 61.7917 182.205 73.0794 182.205 84.367C182.202 84.5595 182.176 84.7568 182.15 85.11Z" fill="#324664"/>
<path d="M81.9805 122.683C84.9363 120.147 87.9898 117.455 91.1469 114.854C92.4108 113.81 94.068 113.177 95.8278 113.065V134.504L81.9805 122.683Z" fill="#324664"/>
<path d="M191.489 85.1177H186.687C186.622 84.8386 186.578 84.5562 186.555 84.2724C186.555 76.3564 186.555 68.4404 186.555 60.5245C186.555 58.7266 188.165 57.6717 189.913 58.2807C191.08 58.6851 191.5 59.4574 191.497 60.5025C191.474 65.9011 191.497 71.2997 191.497 76.6983L191.489 85.1177Z" fill="#324664"/>
<path d="M73.082 147.492C76.0723 146.274 78.2259 144.717 79.7354 142.563C81.0442 140.707 81.7228 138.581 81.6964 136.419C81.6964 134.042 81.6964 131.664 81.6964 129.32L91.6937 137.815C88.6545 140.541 85.5809 143.613 82.1018 146.305C79.7354 148.135 76.6014 148.369 73.082 147.492Z" fill="#324664"/>
<path d="M172.777 85.1147H167.949C167.912 84.7492 167.852 84.4374 167.852 84.1231C167.852 78.8025 167.852 73.4819 167.852 68.1613C167.852 66.512 169.12 65.4815 170.773 65.7714C171.937 65.9711 172.742 66.5997 172.751 67.5936C172.803 73.4039 172.777 79.1947 172.777 85.1147Z" fill="#324664"/>
</svg>
