<svg width="193" height="210" viewBox="0 0 193 210" fill="none" xmlns="http://www.w3.org/2000/svg">
<rect width="193" height="210" fill="white"/>
<path d="M161.146 156.258H144.553L143.051 138.146H161.146C161.506 138.146 161.827 137.92 161.95 137.581C162.07 137.242 161.97 136.864 161.693 136.633L141.53 119.803L140.182 103.565H155.22C155.577 103.565 155.897 103.343 156.021 103.009C156.144 102.673 156.047 102.297 155.78 102.063L138.839 87.365L136.535 59.5881C136.534 59.58 136.526 59.5758 136.525 59.5677V50.0818C136.525 49.8077 136.395 49.5503 136.175 49.3899L123.035 39.8116C122.735 39.5944 122.328 39.5944 122.028 39.8116L108.888 49.3899C108.668 49.5503 108.538 49.8077 108.538 50.0818V59.5677C108.537 59.5758 108.529 59.58 108.528 59.5881L106.233 87.2526L96.9426 95.3129L84.1868 81.2516C84.0267 81.0727 83.7966 80.9708 83.5565 80.9708H75.0825V73.9847H77.3969C77.8672 73.9847 78.2507 73.602 78.2507 73.129V66.8627C81.4374 64.92 83.4098 61.4667 83.4098 57.7079C83.4098 51.7899 78.6075 46.9765 72.7014 46.9765C66.7986 46.9765 61.9964 51.7899 61.9964 57.7079C61.9964 61.465 63.9686 64.9183 67.1521 66.8623V73.129C67.1521 73.602 67.5357 73.9847 68.0059 73.9847H70.3203V80.9708H61.0672L57.9878 47.7537C57.9478 47.3124 57.5776 46.9765 57.1374 46.9765H49.0736C48.6334 46.9765 48.2633 47.3124 48.2232 47.7537L45.9222 72.5748L42.5006 35.6668C42.4605 35.2256 42.0904 34.8896 41.6502 34.8896H30.7184C30.2782 34.8896 29.908 35.2256 29.868 35.6668L25.6681 80.9708H24.4521C23.9819 80.9708 23.5984 81.3535 23.5984 81.8265V156.258H20.8537C20.3835 156.258 20 156.641 20 157.114V162.034C20 162.507 20.3835 162.89 20.8537 162.89H161.146C161.616 162.89 162 162.507 162 162.034V157.114C162 156.641 161.616 156.258 161.146 156.258ZM104.843 104.021L104.429 103.565H104.88L104.843 104.021ZM116.852 121.06V130.737L106.518 121.06H116.852ZM106.477 119.349L111.795 114.227L116.441 119.349H106.477ZM118.56 121.06H138.545L122.531 136.055L118.56 132.336V121.06ZM118.512 119.349C118.486 119.186 118.449 119.02 118.336 118.896L113.026 113.042L122.531 103.887L138.586 119.349H118.512ZM122.531 101.517L109.163 88.6421H135.9L122.531 101.517ZM109.135 86.9306L122.531 73.774L135.928 86.9306H109.135ZM102.154 136.435H86.8781L103.335 122.198L102.154 136.435ZM116.852 143.717V156.258H103.46L116.852 143.717ZM118.56 142.118L122.531 138.398L141.603 156.258H118.56V142.118ZM158.788 136.435H142.909L141.728 122.197L158.788 136.435ZM152.929 101.854H140.041L139.041 89.804L152.929 101.854ZM122.531 71.3781L111.47 60.514H133.593L122.531 71.3781ZM122.531 41.5615L134.817 50.518V58.8026H110.246V50.518L122.531 41.5615ZM106.031 89.6916L105.022 101.854H102.876L98.0921 96.5799L106.031 89.6916ZM100.571 101.854H92.0138L96.8021 97.6993L100.571 101.854ZM68.8896 59.3692C68.4628 59.3692 68.1159 59.0216 68.1159 58.5937C68.1159 58.1675 68.4628 57.8199 68.8896 57.8199C69.3165 57.8199 69.6633 58.1675 69.6633 58.5937C69.6633 59.0216 69.3165 59.3692 68.8896 59.3692ZM71.034 61.0806H74.3655V65.4644H71.034V61.0806ZM75.7395 58.5937C75.7395 58.1675 76.0863 57.8199 76.5132 57.8199C76.9401 57.8199 77.2869 58.1675 77.2869 58.5937C77.2869 59.0216 76.9401 59.3692 76.5132 59.3692C76.0863 59.3692 75.7395 59.0216 75.7395 58.5937ZM76.5432 67.1759V70.0238H68.8596V67.1759H76.5432ZM63.7039 57.7079C63.7039 52.7341 67.7391 48.6879 72.7014 48.6879C77.6637 48.6879 81.7023 52.7341 81.7023 57.7079C81.7023 60.9143 79.9857 63.8447 77.236 65.4644H76.073V60.9912C76.2212 61.019 76.3571 61.0806 76.5132 61.0806C77.8805 61.0806 78.9944 59.9642 78.9944 58.5937C78.9944 57.2233 77.8805 56.1085 76.5132 56.1085C75.1459 56.1085 74.032 57.2233 74.032 58.5937C74.032 58.8687 74.1062 59.1216 74.189 59.3692H71.214C71.2968 59.1216 71.3708 58.8687 71.3708 58.5937C71.3708 57.2233 70.2569 56.1085 68.8896 56.1085C67.5223 56.1085 66.4085 57.2233 66.4085 58.5937C66.4085 59.9642 67.5223 61.0806 68.8896 61.0806C69.0445 61.0806 69.1793 61.0192 69.3265 60.9918V65.4644H68.167C65.4203 63.8447 63.7039 60.9129 63.7039 57.7079ZM68.8596 71.7352H76.5432V72.2733H68.8596V71.7352ZM72.0278 73.9847H73.3751V80.9708H72.0278V73.9847ZM49.0082 57.7798H57.2029L58.4055 70.7575H47.8056L49.0082 57.7798ZM31.4954 36.6011H40.8731L41.8909 47.5832H30.4776L31.4954 36.6011ZM28.5544 68.3341H43.8141L44.9853 80.9708H27.3833L28.5544 68.3341ZM25.3058 82.6822H83.1797L95.6526 96.432L89.1625 102.063C88.8957 102.297 88.799 102.673 88.9224 103.009C89.0457 103.343 89.3659 103.565 89.7227 103.565H102.123L104.649 106.35L103.537 119.763L84.0267 136.642C83.7566 136.876 83.6599 137.254 83.7833 137.588C83.9067 137.924 84.2268 138.146 84.5836 138.146H102.012L100.51 156.258H70.3603V152.193C70.3603 151.72 69.9768 151.338 69.5066 151.338H68.7762V97.0002C68.7762 96.5273 68.3927 96.1445 67.9225 96.1445H38.6121C38.1419 96.1445 37.7583 96.5273 37.7583 97.0002V151.338H37.118C36.6478 151.338 36.2643 151.72 36.2643 152.193V156.258H25.3058V82.6822ZM67.0688 151.338H39.4658V97.856H67.0688V151.338ZM37.9718 153.049H68.6528V156.258H37.9718V153.049ZM160.293 161.178H21.7075V157.969H24.4521H117.706H160.293V161.178ZM42.4472 127.388H48.7568L43.2809 142.859C43.1442 143.238 43.2943 143.661 43.6378 143.874C43.7745 143.959 43.9312 144.001 44.0846 144.001C44.3114 144.001 44.5349 143.91 44.7016 143.738L64.7944 122.758C65.0311 122.511 65.0978 122.145 64.9611 121.829C64.8277 121.513 64.5209 121.309 64.1774 121.309H54.9731L61.6862 111.251C61.8597 110.989 61.8763 110.65 61.7296 110.372C61.5795 110.093 61.2894 109.919 60.9759 109.919H52.7887C52.5019 109.919 52.2318 110.065 52.0751 110.305L41.7335 126.063C41.5601 126.325 41.5468 126.661 41.6969 126.938C41.8436 127.216 42.1337 127.388 42.4472 127.388Z" fill="#324664"/>
</svg>
