<svg width="242" height="179" viewBox="0 0 242 179" fill="none" xmlns="http://www.w3.org/2000/svg">
<rect width="242" height="179" fill="white"/>
<path d="M192.619 43.834H184.981C175.853 43.834 168.453 50.13 168.453 57.8966V117.386C168.453 125.153 175.853 131.449 184.981 131.449H192.619C201.748 131.449 209.147 125.153 209.147 117.386V57.8966C209.147 50.13 201.748 43.834 192.619 43.834Z" fill="white"/>
<path d="M192.62 132.977H184.986C180.128 132.972 175.47 131.328 172.034 128.405C168.599 125.482 166.666 121.519 166.66 117.385V57.9001C166.666 53.766 168.599 49.8026 172.035 46.8794C175.471 43.9563 180.129 42.3121 184.988 42.3076H192.622C197.481 42.3121 202.14 43.9563 205.576 46.8794C209.012 49.8026 210.945 53.766 210.951 57.9001V117.385C210.945 121.519 209.011 125.483 205.575 128.406C202.139 131.329 197.48 132.973 192.62 132.977ZM184.986 45.3639C181.081 45.3675 177.337 46.6889 174.576 49.0381C171.815 51.3873 170.261 54.5725 170.256 57.895V117.38C170.261 120.702 171.814 123.888 174.575 126.238C177.337 128.587 181.081 129.909 184.986 129.912H192.62C196.526 129.909 200.27 128.587 203.031 126.238C205.793 123.888 207.346 120.702 207.35 117.38V57.895C207.346 54.5725 205.792 51.3873 203.031 49.0381C200.269 46.6889 196.525 45.3675 192.62 45.3639H184.986Z" fill="#324664"/>
<path d="M100.904 72.5811H74.7572C65.7721 72.5811 58.4883 78.7784 58.4883 86.4232V117.607C58.4883 125.251 65.7721 131.449 74.7572 131.449H100.904C109.889 131.449 117.173 125.251 117.173 117.607V86.4232C117.173 78.7784 109.889 72.5811 100.904 72.5811Z" fill="white"/>
<path d="M100.904 132.528H74.7573C70.1074 132.524 65.6495 130.95 62.3615 128.153C59.0736 125.355 57.2241 121.562 57.2188 117.606V86.4225C57.2241 82.4662 59.0736 78.6732 62.3615 75.8757C65.6495 73.0782 70.1074 71.5045 74.7573 71.5H100.904C105.554 71.5045 110.013 73.0781 113.301 75.8756C116.589 78.673 118.439 82.466 118.445 86.4225V117.606C118.44 121.562 116.59 125.356 113.301 128.153C110.013 130.951 105.555 132.524 100.904 132.528ZM74.7573 73.6623C70.7813 73.6664 66.9695 75.0121 64.158 77.4042C61.3465 79.7963 59.7649 83.0395 59.7601 86.4225V117.606C59.7644 120.989 61.3457 124.233 64.1573 126.625C66.9688 129.018 70.7809 130.364 74.7573 130.368H100.904C104.881 130.364 108.694 129.018 111.506 126.626C114.318 124.233 115.899 120.989 115.904 117.606V86.4225C115.899 83.0392 114.317 79.7957 111.505 77.4036C108.693 75.0114 104.881 73.6659 100.904 73.6623H74.7573Z" fill="#324664"/>
<path d="M211.788 119.521H149.085C148.398 119.521 147.84 119.995 147.84 120.58V131.648C147.84 132.234 148.398 132.708 149.085 132.708H211.788C212.476 132.708 213.034 132.234 213.034 131.648V120.58C213.034 119.995 212.476 119.521 211.788 119.521Z" fill="#324664"/>
<path d="M211.788 133.523H149.085C148.499 133.523 147.937 133.324 147.522 132.972C147.108 132.619 146.875 132.141 146.875 131.642V120.579C146.875 120.081 147.108 119.603 147.522 119.25C147.937 118.897 148.499 118.699 149.085 118.699H211.788C212.374 118.699 212.936 118.897 213.35 119.25C213.765 119.603 213.998 120.081 213.998 120.579V131.647C213.996 132.145 213.763 132.622 213.348 132.974C212.934 133.325 212.373 133.523 211.788 133.523ZM149.085 120.333C149.008 120.334 148.935 120.36 148.881 120.406C148.827 120.452 148.796 120.514 148.796 120.579V131.647C148.796 131.713 148.826 131.775 148.88 131.821C148.935 131.868 149.008 131.894 149.085 131.894H211.788C211.826 131.894 211.863 131.887 211.898 131.875C211.934 131.862 211.965 131.844 211.992 131.821C212.019 131.799 212.04 131.771 212.055 131.742C212.07 131.712 212.077 131.68 212.077 131.647V120.579C212.077 120.514 212.046 120.452 211.992 120.406C211.938 120.36 211.864 120.334 211.788 120.333H149.085Z" fill="#324664"/>
<path d="M135.352 30.8193H122.703V74.226H135.352V30.8193Z" fill="white"/>
<path d="M135.346 74.9488H122.699C122.588 74.949 122.477 74.9304 122.374 74.8942C122.27 74.858 122.176 74.8047 122.097 74.7376C122.018 74.6704 121.955 74.5906 121.913 74.5028C121.87 74.415 121.848 74.3208 121.848 74.2257V30.8224C121.848 30.6302 121.937 30.4459 122.097 30.3099C122.257 30.174 122.474 30.0977 122.699 30.0977H135.346C135.572 30.0977 135.789 30.174 135.948 30.3099C136.108 30.4459 136.198 30.6302 136.198 30.8224V74.2257C136.198 74.3208 136.176 74.415 136.133 74.5028C136.09 74.5906 136.027 74.6704 135.948 74.7376C135.869 74.8047 135.775 74.858 135.672 74.8942C135.569 74.9304 135.458 74.949 135.346 74.9488ZM123.549 73.5027H134.496V31.542H123.549V73.5027Z" fill="#324664"/>
<path d="M135.352 31.6328H122.703V40.2683H135.352V31.6328Z" fill="#324664"/>
<path d="M135.351 41.0775H122.704C122.451 41.0775 122.207 40.9918 122.027 40.8393C121.848 40.6868 121.747 40.4798 121.746 40.2639V31.6318C121.747 31.4156 121.848 31.2085 122.027 31.0557C122.207 30.9029 122.45 30.8169 122.704 30.8164H135.351C135.605 30.8169 135.848 30.9029 136.028 31.0557C136.208 31.2085 136.309 31.4156 136.309 31.6318V40.2673C136.308 40.4826 136.206 40.6887 136.027 40.8405C135.847 40.9923 135.604 41.0775 135.351 41.0775ZM123.671 39.4536H134.405V32.4454H123.671V39.4536Z" fill="#324664"/>
<path d="M135.352 49.3799H122.703V58.0154H135.352V49.3799Z" fill="#324664"/>
<path d="M135.351 58.83H122.704C122.451 58.83 122.207 58.7443 122.027 58.5918C121.848 58.4392 121.747 58.2323 121.746 58.0163V49.3791C121.747 49.1631 121.848 48.9562 122.027 48.8036C122.207 48.6511 122.451 48.5654 122.704 48.5654H135.351C135.605 48.5654 135.848 48.6511 136.028 48.8036C136.208 48.9562 136.309 49.1631 136.309 49.3791V58.0163C136.309 58.2323 136.208 58.4392 136.028 58.5918C135.848 58.7443 135.605 58.83 135.351 58.83ZM123.671 57.201H134.405V50.1927H123.671V57.201Z" fill="#324664"/>
<path d="M135.352 66.0078H122.703V74.6433H135.352V66.0078Z" fill="#CE5151"/>
<path d="M135.351 75.4579H122.704C122.451 75.4579 122.207 75.3722 122.027 75.2197C121.848 75.0671 121.747 74.8602 121.746 74.6442V66.007C121.747 65.7911 121.848 65.5841 122.027 65.4316C122.207 65.279 122.451 65.1934 122.704 65.1934H135.351C135.605 65.1934 135.848 65.279 136.028 65.4316C136.208 65.5841 136.309 65.7911 136.309 66.007V74.6442C136.309 74.8602 136.208 75.0671 136.028 75.2197C135.848 75.3722 135.605 75.4579 135.351 75.4579ZM123.671 73.8289H134.405V66.8206H123.671V73.8289Z" fill="#324664"/>
<path d="M161.824 30.6084H149.176V74.0151H161.824V30.6084Z" fill="white"/>
<path d="M161.826 74.7403H149.182C149.07 74.7403 148.96 74.7216 148.857 74.6852C148.754 74.6489 148.66 74.5956 148.581 74.5285C148.502 74.4613 148.439 74.3816 148.397 74.2939C148.354 74.2062 148.332 74.1122 148.332 74.0172V30.6088C148.332 30.417 148.422 30.2331 148.581 30.0975C148.74 29.9619 148.956 29.8857 149.182 29.8857H161.839C162.064 29.8857 162.28 29.9619 162.439 30.0975C162.599 30.2331 162.688 30.417 162.688 30.6088V74.0258C162.687 74.1209 162.664 74.2148 162.62 74.3022C162.576 74.3896 162.512 74.4688 162.432 74.5352C162.352 74.6015 162.257 74.6538 162.153 74.689C162.049 74.7242 161.938 74.7416 161.826 74.7403ZM150.03 73.2942H160.977V31.3353H150.03V73.2942Z" fill="#324664"/>
<path d="M161.824 31.4219H149.176V40.0574H161.824V31.4219Z" fill="#324664"/>
<path d="M161.827 40.8729H149.183C148.929 40.8729 148.686 40.7872 148.507 40.6346C148.327 40.482 148.227 40.2751 148.227 40.0593V31.422C148.227 31.2063 148.327 30.9993 148.507 30.8467C148.686 30.6941 148.929 30.6084 149.183 30.6084H161.84C162.093 30.6084 162.336 30.6941 162.516 30.8467C162.695 30.9993 162.796 31.2063 162.796 31.422V40.0524C162.797 40.1607 162.773 40.2681 162.724 40.3683C162.676 40.4685 162.605 40.5595 162.514 40.6359C162.424 40.7123 162.317 40.7726 162.199 40.8133C162.081 40.854 161.955 40.8743 161.827 40.8729ZM150.137 39.2439H160.871V32.2357H150.137V39.2439Z" fill="#324664"/>
<path d="M161.824 49.1709H149.176V57.8064H161.824V49.1709Z" fill="#324664"/>
<path d="M161.827 58.6219H149.183C148.929 58.6215 148.686 58.5354 148.507 58.3825C148.327 58.2297 148.227 58.0225 148.227 57.8066V49.1711C148.227 48.9553 148.327 48.7483 148.507 48.5957C148.686 48.4431 148.929 48.3574 149.183 48.3574H161.84C162.093 48.3574 162.336 48.4431 162.516 48.5957C162.695 48.7483 162.796 48.9553 162.796 49.1711V57.8066C162.796 57.9144 162.771 58.0211 162.722 58.1206C162.673 58.2201 162.602 58.3104 162.512 58.3862C162.422 58.462 162.315 58.5219 162.197 58.5624C162.08 58.6028 161.954 58.6231 161.827 58.6219ZM150.137 56.993H160.871V49.9847H150.137V56.993Z" fill="#324664"/>
<path d="M160.489 65.7988H147.84V74.4344H160.489V65.7988Z" fill="#CE5151"/>
<path d="M160.486 75.2482H147.829C147.576 75.2482 147.332 75.1625 147.152 75.01C146.973 74.8574 146.872 74.6505 146.871 74.4345V65.799C146.872 65.583 146.973 65.3761 147.152 65.2236C147.332 65.071 147.576 64.9854 147.829 64.9854H160.486C160.74 64.9854 160.983 65.071 161.163 65.2236C161.343 65.3761 161.444 65.583 161.444 65.799V74.4345C161.444 74.6505 161.343 74.8574 161.163 75.01C160.983 75.1625 160.74 75.2482 160.486 75.2482ZM148.796 73.6209H159.53V66.6126H148.796V73.6209Z" fill="#324664"/>
<path d="M111.658 92.1807H38.543V133.553H111.658V92.1807Z" fill="white"/>
<path d="M111.658 135.092H38.5425C38.0629 135.092 37.603 134.93 37.264 134.641C36.9249 134.353 36.7344 133.962 36.7344 133.554V92.1878C36.7344 91.7798 36.9249 91.3885 37.264 91.1C37.603 90.8115 38.0629 90.6494 38.5425 90.6494H111.658C112.137 90.6494 112.597 90.8115 112.936 91.1C113.276 91.3885 113.466 91.7798 113.466 92.1878V133.554C113.466 133.962 113.276 134.353 112.936 134.641C112.597 134.93 112.137 135.092 111.658 135.092ZM40.3405 132.015H109.852V93.7108H40.3405V132.015Z" fill="#324664"/>
<path d="M172.961 66.7812H111.66V133.553H172.961V66.7812Z" fill="white"/>
<path d="M172.96 135.092H111.66C111.18 135.092 110.72 134.93 110.381 134.641C110.042 134.353 109.852 133.961 109.852 133.553V66.7818C109.854 66.3753 110.046 65.9862 110.385 65.6995C110.723 65.4129 111.182 65.2519 111.66 65.252H172.96C173.438 65.2519 173.896 65.4129 174.235 65.6995C174.574 65.9862 174.766 66.3753 174.768 66.7818V133.553C174.768 133.961 174.578 134.353 174.239 134.641C173.9 134.93 173.44 135.092 172.96 135.092ZM113.46 132.015H171.162V68.3117H113.46V132.015Z" fill="#324664"/>
<path d="M130.813 76.877H120.762V98.4025H130.813V76.877Z" fill="#324664"/>
<path d="M130.815 97.9806H120.77L121.355 98.4028V76.8772L120.77 77.3012H130.815L130.231 76.8772V98.4028C130.231 98.9481 131.4 98.9498 131.4 98.4028V76.8772C131.386 76.7562 131.317 76.6445 131.208 76.5658C131.099 76.4871 130.958 76.4474 130.815 76.455H120.77C120.627 76.4473 120.486 76.487 120.377 76.5657C120.268 76.6444 120.198 76.756 120.184 76.8772V98.4028C120.198 98.5242 120.268 98.636 120.377 98.715C120.486 98.794 120.627 98.834 120.77 98.8268H130.815C131.569 98.8268 131.569 97.9806 130.815 97.9806Z" fill="#324664"/>
<path d="M148.594 76.877H138.543V98.4025H148.594V76.877Z" fill="#324664"/>
<path d="M148.593 97.9806H138.548L139.132 98.4028V76.8772L138.548 77.3012H148.593L148.008 76.8772V98.4028C148.008 98.9481 149.177 98.9498 149.177 98.4028V76.8772C149.163 76.7562 149.094 76.6445 148.985 76.5658C148.876 76.4871 148.735 76.4474 148.593 76.455H138.548C138.405 76.4473 138.264 76.487 138.154 76.5657C138.045 76.6444 137.976 76.756 137.961 76.8772V98.4028C137.976 98.5242 138.045 98.636 138.154 98.715C138.264 98.794 138.404 98.834 138.548 98.8268H148.593C149.346 98.8268 149.348 97.9806 148.593 97.9806Z" fill="#324664"/>
<path d="M165.512 76.877H155.461V98.4025H165.512V76.877Z" fill="#324664"/>
<path d="M165.512 97.9805H155.467L156.052 98.4027V76.8771L155.467 77.3011H165.512L164.926 76.8771V98.4027C164.926 98.948 166.097 98.9497 166.097 98.4027V76.8771C166.082 76.7562 166.013 76.6449 165.904 76.5662C165.795 76.4875 165.655 76.4477 165.512 76.4549H155.467C155.325 76.4477 155.184 76.4875 155.076 76.5662C154.967 76.6449 154.898 76.7562 154.883 76.8771V98.4027C154.897 98.5239 154.966 98.6358 155.075 98.7148C155.184 98.7938 155.325 98.8339 155.467 98.8267H165.512C166.26 98.8267 166.26 97.9805 165.512 97.9805Z" fill="#324664"/>
<path d="M64.0393 102.104H53.9883V123.629H64.0393V102.104Z" fill="#324664"/>
<path d="M64.0359 123.207H53.9909L54.5755 123.629V102.102L53.9909 102.526H64.0359L63.4512 102.102V123.629C63.4512 124.174 64.6225 124.176 64.6225 123.629V102.102C64.6077 101.981 64.5384 101.869 64.4291 101.79C64.3197 101.712 64.1788 101.672 64.0359 101.68H53.9909C53.8481 101.672 53.7075 101.712 53.5984 101.79C53.4894 101.869 53.4205 101.981 53.4062 102.102V123.629C53.4205 123.75 53.4893 123.862 53.5983 123.941C53.7073 124.02 53.8479 124.06 53.9909 124.053H64.0359C64.7892 124.053 64.7912 123.207 64.0359 123.207Z" fill="#324664"/>
<path d="M81.8166 102.104H71.7656V123.629H81.8166V102.104Z" fill="#324664"/>
<path d="M81.821 123.207H71.776L72.3606 123.629V102.102L71.776 102.526H81.821L81.2344 102.102V123.629C81.2344 124.174 82.4056 124.176 82.4056 123.629V102.102C82.3909 101.981 82.3218 101.869 82.2129 101.791C82.104 101.712 81.9636 101.672 81.821 101.68H71.776C71.6334 101.672 71.493 101.712 71.3841 101.791C71.2752 101.869 71.2062 101.981 71.1914 102.102V123.629C71.2057 123.75 71.2745 123.862 71.3835 123.941C71.4924 124.02 71.6331 124.06 71.776 124.053H81.821C82.5724 124.053 82.5744 123.207 81.821 123.207Z" fill="#324664"/>
<path d="M98.7346 102.104H88.6836V123.629H98.7346V102.104Z" fill="#324664"/>
<path d="M98.735 123.207H88.69L89.2766 123.629V102.102L88.69 102.526H98.735L98.1544 102.102V123.629C98.1544 124.174 99.3236 124.176 99.3236 123.629V102.102C99.3093 101.981 99.2404 101.869 99.1314 101.79C99.0224 101.712 98.8817 101.672 98.739 101.68H88.694C88.5514 101.672 88.411 101.712 88.3021 101.791C88.1932 101.87 88.1241 101.981 88.1094 102.102V123.629C88.1241 123.75 88.1931 123.862 88.3019 123.941C88.4108 124.02 88.5512 124.06 88.694 124.053H98.739C99.4883 124.053 99.4883 123.207 98.735 123.207Z" fill="#324664"/>
<path d="M131.246 103.584H121.195V125.11H131.246V103.584Z" fill="#324664"/>
<path d="M131.243 124.686H121.198L121.783 125.11V103.584L121.198 104.006H131.243L130.658 103.584V125.11C130.658 125.653 131.83 125.655 131.83 125.11V103.584C131.815 103.463 131.746 103.351 131.636 103.272C131.527 103.193 131.386 103.153 131.243 103.16H121.198C121.055 103.153 120.914 103.193 120.805 103.272C120.696 103.351 120.628 103.463 120.613 103.584V125.11C120.628 125.231 120.696 125.342 120.805 125.421C120.915 125.5 121.055 125.539 121.198 125.532H131.243C131.996 125.532 131.998 124.686 131.243 124.686Z" fill="#324664"/>
<path d="M149.028 103.584H138.977V125.11H149.028V103.584Z" fill="#324664"/>
<path d="M149.028 124.686H138.983L139.568 125.11V103.584L138.983 104.006H149.028L148.441 103.584V125.11C148.441 125.653 149.613 125.655 149.613 125.11V103.584C149.598 103.463 149.529 103.351 149.42 103.272C149.311 103.193 149.171 103.153 149.028 103.16H138.983C138.84 103.153 138.699 103.193 138.59 103.272C138.482 103.351 138.413 103.463 138.398 103.584V125.11C138.413 125.231 138.482 125.342 138.591 125.421C138.7 125.5 138.84 125.539 138.983 125.532H149.028C149.785 125.532 149.785 124.686 149.028 124.686Z" fill="#324664"/>
<path d="M165.946 103.584H155.895V125.11H165.946V103.584Z" fill="#324664"/>
<path d="M165.942 124.686H155.897L156.484 125.11V103.584L155.897 104.006H165.942L165.357 103.584V125.11C165.357 125.653 166.527 125.655 166.527 125.11V103.584C166.512 103.463 166.444 103.351 166.335 103.272C166.226 103.193 166.085 103.153 165.942 103.16H155.897C155.754 103.153 155.614 103.193 155.505 103.272C155.396 103.351 155.327 103.463 155.312 103.584V125.11C155.327 125.23 155.396 125.342 155.505 125.42C155.614 125.499 155.755 125.539 155.897 125.532H165.942C166.695 125.532 166.695 124.686 165.942 124.686Z" fill="#324664"/>
<path d="M216.906 132.794H34.6719V138.465H216.906V132.794Z" fill="white"/>
<path d="M36.341 138.466V132.794L34.6695 133.842H209.488C211.769 133.842 214.32 134.045 216.584 133.842C216.687 133.833 216.799 133.842 216.904 133.842L215.234 132.794V138.466C215.234 139.812 218.573 139.816 218.573 138.466V132.794C218.573 132.228 217.81 131.748 216.904 131.748H57.0939C49.745 131.748 42.3378 131.577 34.9949 131.748H34.6695C33.7674 131.748 33 132.226 33 132.794V138.466C33 139.812 36.341 139.816 36.341 138.466Z" fill="#324664"/>
<path d="M175.585 62.9834H108.895V66.7815H175.585V62.9834Z" fill="white"/>
<path d="M175.585 67.5953H108.886C108.632 67.5953 108.389 67.5096 108.21 67.357C108.03 67.2044 107.93 66.9975 107.93 66.7817V62.9836C107.93 62.7678 108.03 62.5608 108.21 62.4082C108.389 62.2556 108.632 62.1699 108.886 62.1699H175.585C175.838 62.1699 176.082 62.2556 176.261 62.4082C176.44 62.5608 176.541 62.7678 176.541 62.9836V66.7817C176.541 66.9975 176.44 67.2044 176.261 67.357C176.082 67.5096 175.838 67.5953 175.585 67.5953ZM109.85 65.968H174.626V63.7972H109.85V65.968Z" fill="#324664"/>
<path d="M98.3157 67.4629H78.0972C77.1374 67.4629 76.3594 68.1249 76.3594 68.9415V70.7397C76.3594 71.5563 77.1374 72.2182 78.0972 72.2182H98.3157C99.2755 72.2182 100.053 71.5563 100.053 70.7397V68.9415C100.053 68.1249 99.2755 67.4629 98.3157 67.4629Z" fill="white"/>
<path d="M98.1448 72.9579H77.9262C77.1591 72.957 76.4237 72.6974 75.881 72.2361C75.3384 71.7747 75.0328 71.1492 75.0312 70.4965V68.6965C75.0323 68.0436 75.3377 67.4176 75.8803 66.9558C76.423 66.4941 77.1588 66.2343 77.9262 66.2334H98.1448C98.9124 66.2339 99.6484 66.4935 100.191 66.9553C100.734 67.4172 101.039 68.0434 101.04 68.6965V70.4948C101.039 71.1479 100.734 71.7741 100.191 72.236C99.6484 72.6978 98.9124 72.9574 98.1448 72.9579ZM77.9262 68.2025C77.7717 68.2025 77.6235 68.2548 77.5142 68.3477C77.405 68.4407 77.3436 68.5668 77.3436 68.6983V70.4965C77.3441 70.6276 77.4058 70.7533 77.515 70.8459C77.6242 70.9385 77.772 70.9905 77.9262 70.9905H98.1448C98.2989 70.9905 98.4468 70.9385 98.556 70.8459C98.6652 70.7533 98.7269 70.6276 98.7274 70.4965V68.6965C98.7274 68.5651 98.666 68.439 98.5567 68.346C98.4475 68.2531 98.2993 68.2008 98.1448 68.2008L77.9262 68.2025Z" fill="#324664"/>
<path d="M198.909 39.0762H178.691C177.731 39.0762 176.953 39.7381 176.953 40.5547V42.353C176.953 43.1695 177.731 43.8315 178.691 43.8315H198.909C199.869 43.8315 200.647 43.1695 200.647 42.353V40.5547C200.647 39.7381 199.869 39.0762 198.909 39.0762Z" fill="white"/>
<path d="M198.912 44.8121H178.694C177.928 44.8112 177.194 44.552 176.652 44.0912C176.11 43.6304 175.806 43.0058 175.805 42.3541V40.5559C175.806 39.9044 176.111 39.2799 176.652 38.8194C177.194 38.3589 177.928 38.1001 178.694 38.0996H198.912C199.678 38.1001 200.412 38.3589 200.954 38.8194C201.495 39.2799 201.8 39.9044 201.801 40.5559V42.3541C201.8 43.0058 201.495 43.6304 200.954 44.0912C200.412 44.552 199.678 44.8112 198.912 44.8121ZM178.694 40.0534C178.538 40.0534 178.388 40.1061 178.277 40.2001C178.167 40.294 178.105 40.4214 178.105 40.5542V42.3524C178.105 42.4853 178.167 42.6126 178.277 42.7066C178.388 42.8005 178.538 42.8533 178.694 42.8533H198.912C199.068 42.8533 199.218 42.8005 199.328 42.7066C199.439 42.6126 199.501 42.4853 199.501 42.3524V40.5559C199.5 40.4232 199.438 40.2961 199.328 40.2023C199.218 40.1084 199.068 40.0555 198.912 40.0551L178.694 40.0534Z" fill="#324664"/>
<path d="M202.662 89.8351C202.532 89.6009 202.389 89.3633 202.238 89.1257C202.479 88.9514 202.712 88.7748 202.937 88.5958C204.621 87.2523 205.686 85.8763 206.013 84.6165C206.286 83.5721 206.035 82.62 205.286 81.8645C204.765 81.3622 204.114 80.969 203.385 80.7158V80.697C203.422 80.4811 203.357 80.2615 203.203 80.0865C203.05 79.9115 202.822 79.7954 202.568 79.7637C202.349 79.7237 202.121 79.7479 201.921 79.8323C201.721 79.9167 201.56 80.0565 201.465 80.2287C200.557 80.0877 199.635 80.019 198.712 80.0236C197.573 78.0561 195.864 76.81 193.837 76.487H193.815C192.304 76.2494 190.715 76.5519 189.216 77.3604C188.722 77.6284 188.258 77.9339 187.83 78.2732C185.001 77.3519 182.606 77.2476 180.999 77.9877C179.979 78.4595 179.338 79.2697 179.145 80.3261C178.914 81.6013 179.32 83.2115 180.314 84.9857C180.447 85.2199 180.589 85.4575 180.74 85.6951C180.499 85.866 180.264 86.037 180.041 86.2233C178.371 87.572 177.309 88.9394 176.977 90.2009C176.706 91.2453 176.957 92.1974 177.706 92.9529C178.309 93.5666 179.223 94.0349 180.38 94.346C180.375 94.5478 180.454 94.7447 180.602 94.9025C180.75 95.0603 180.958 95.1689 181.19 95.2096C181.423 95.2502 181.665 95.2203 181.874 95.125C182.083 95.0297 182.246 94.875 182.335 94.6879C182.979 94.753 183.626 94.7856 184.274 94.7853C185.413 96.7511 187.123 97.9989 189.15 98.3219H189.172C190.681 98.5595 192.272 98.257 193.77 97.4485C194.264 97.1804 194.728 96.8749 195.157 96.5357C195.979 96.8091 196.828 97.0191 197.694 97.163C199.418 97.4382 200.886 97.3339 201.979 96.8211C203 96.3494 203.641 95.5391 203.831 94.4828C204.062 93.2127 203.659 91.6094 202.662 89.8351ZM201.368 80.5073H201.403C201.409 80.7024 201.495 80.8895 201.647 81.036C201.798 81.1824 202.006 81.279 202.232 81.309C202.421 81.3429 202.617 81.3298 202.798 81.2713C202.978 81.2127 203.134 81.1113 203.249 80.9791C203.918 81.2138 204.515 81.5757 204.995 82.0371C205.682 82.7294 205.903 83.5755 205.648 84.5447C205.334 85.7413 204.304 87.0762 202.668 88.3822C202.467 88.5377 202.266 88.6916 202.066 88.8454C201.487 87.9837 200.837 87.1582 200.121 86.3754C200.223 84.2952 199.858 82.3106 199.044 80.6287C198.992 80.5193 198.935 80.4133 198.879 80.3073C199.714 80.3127 200.547 80.3796 201.368 80.5073ZM196.123 92.0333C194.182 92.8108 192.155 93.4229 190.072 93.8606C188.317 92.81 186.689 91.6139 185.212 90.2898C184.503 89.6556 183.848 89.0061 183.251 88.3531C183.293 87.6192 183.391 86.8883 183.545 86.1652C183.701 85.4306 183.916 84.7059 184.187 83.996C185.031 83.567 185.927 83.1602 186.869 82.7841C188.811 82.0066 190.838 81.3945 192.921 80.9568C194.675 82.008 196.303 83.204 197.78 84.5276C198.489 85.1618 199.144 85.8113 199.741 86.4643C199.699 87.1983 199.601 87.9291 199.448 88.6523C199.291 89.3863 199.077 90.1104 198.805 90.8197C197.961 91.2504 197.063 91.6572 196.123 92.0333ZM198.628 91.2624C197.794 93.2486 196.547 94.9768 195.056 96.2024C193.438 95.6391 191.896 94.9296 190.456 94.0862C192.465 93.6481 194.421 93.0489 196.298 92.2965C197.109 91.9735 197.887 91.6265 198.628 91.2624ZM189.616 93.9512C187.942 94.2866 186.232 94.4716 184.513 94.5033C183.649 92.9324 183.185 90.965 183.231 88.8249C183.76 89.3838 184.328 89.9377 184.935 90.4795C186.363 91.76 187.93 92.9224 189.616 93.9512ZM182.902 87.9685C182.284 87.2673 181.721 86.5324 181.216 85.7686C182.005 85.2179 182.835 84.7114 183.701 84.2524C183.486 84.8636 183.311 85.4845 183.177 86.1122C183.046 86.7252 182.955 87.3437 182.902 87.9651V87.9685ZM186.693 82.5243C185.889 82.8474 185.104 83.1944 184.364 83.5499C185.198 81.5654 186.446 79.8372 187.936 78.6117C189.554 79.1771 191.096 79.8889 192.535 80.7346C190.526 81.1719 188.569 81.77 186.693 82.5209V82.5243ZM193.381 80.8663C195.054 80.5306 196.764 80.3461 198.483 80.3158C199.347 81.885 199.811 83.8525 199.763 85.9925C199.237 85.4342 198.67 84.882 198.062 84.3362C196.633 83.0568 195.066 81.895 193.381 80.8663ZM200.093 86.8489C200.711 87.5501 201.275 88.285 201.78 89.0488C200.991 89.5991 200.161 90.1056 199.295 90.565C199.724 89.3554 199.993 88.1091 200.099 86.8489H200.093ZM189.445 77.598C190.851 76.8339 192.356 76.5468 193.766 76.7673H193.786C195.707 77.075 197.274 78.2749 198.323 80.015C198.152 80.015 197.979 80.015 197.804 80.0287C196.185 80.0984 194.577 80.2976 193.001 80.6235C191.673 79.8335 190.26 79.1514 188.782 78.586C188.595 78.5142 188.408 78.4476 188.226 78.3843C188.603 78.0954 189.009 77.8336 189.437 77.6014L189.445 77.598ZM180.678 84.8661C179.709 83.1448 179.316 81.5893 179.537 80.3705C179.715 79.3877 180.28 78.6698 181.216 78.2356C182.257 77.7536 183.651 77.6698 185.25 77.9245C186.041 78.0568 186.817 78.2455 187.571 78.4886C186.753 79.1838 186.044 79.9651 185.459 80.8133C184.8 81.7599 184.266 82.7653 183.866 83.8114C182.879 84.3162 181.934 84.8794 181.039 85.4968C180.909 85.2814 180.784 85.0746 180.67 84.8695L180.678 84.8661ZM182.375 94.4093C182.346 94.2312 182.252 94.0651 182.108 93.9336C181.964 93.8021 181.776 93.7116 181.569 93.6743C181.362 93.6369 181.147 93.6546 180.952 93.725C180.757 93.7953 180.593 93.9148 180.481 94.0674C179.42 93.7802 178.568 93.3512 177.998 92.7752C177.311 92.0829 177.09 91.2368 177.343 90.2676C177.658 89.071 178.689 87.736 180.324 86.4301C180.525 86.2746 180.726 86.1207 180.927 85.9669C181.503 86.8278 182.151 87.6527 182.866 88.4352C182.763 90.5154 183.127 92.4999 183.942 94.1819C183.995 94.2913 184.051 94.3973 184.107 94.5033C183.528 94.4998 182.95 94.4684 182.375 94.4093ZM193.553 97.216C192.137 97.9801 190.644 98.2672 189.234 98.0467H189.214C187.293 97.7391 185.726 96.5391 184.678 94.799C184.848 94.799 185.021 94.799 185.196 94.7853C186.815 94.7155 188.424 94.5163 189.999 94.1905C191.328 94.9805 192.74 95.6627 194.218 96.228C194.405 96.2998 194.592 96.3647 194.775 96.4297C194.394 96.7205 193.986 96.9835 193.553 97.216ZM201.79 96.5784C200.75 97.0604 199.355 97.1442 197.756 96.8895C196.966 96.7572 196.189 96.5685 195.436 96.3254C196.253 95.6302 196.963 94.8489 197.547 94.0007C198.202 93.0571 198.734 92.0551 199.132 91.0128C200.12 90.508 201.064 89.9449 201.959 89.3274C202.09 89.536 202.214 89.7428 202.329 89.9479C203.295 91.6692 203.691 93.2247 203.47 94.4435C203.285 95.4349 202.72 96.1442 201.784 96.5784H201.79Z" fill="#262626"/>
</svg>
