<svg width="223" height="220" viewBox="0 0 223 220" fill="none" xmlns="http://www.w3.org/2000/svg">
<rect width="223" height="220" fill="white"/>
<path d="M176.49 71.6201H150.789V91.3639H176.49V71.6201Z" fill="#324664"/>
<path d="M176.49 146.732H150.789V159.18H176.49V146.732Z" fill="#324664"/>
<path d="M175.986 96.9434H150.285V141.152H175.986V96.9434Z" fill="#324664"/>
<path d="M147.316 142.026H180.001V145.817H147.316V142.026Z" stroke="#324664" stroke-width="2"/>
<path d="M147.316 160.185H180.001V163.975H147.316V160.185Z" stroke="#324664" stroke-width="2"/>
<path d="M147.316 92.1709H180.001V95.9615H147.316V92.1709Z" stroke="#324664" stroke-width="2"/>
<path d="M148.766 62.749H179.512V70.7555H148.766V62.749Z" stroke="#324664" stroke-width="2"/>
<path fill-rule="evenodd" clip-rule="evenodd" d="M152.333 81.0628H98.8003C97.3948 81.0542 96.0352 81.4883 94.983 82.2818C94.4907 82.6504 94.0953 83.1033 93.8229 83.6111C93.5505 84.1188 93.4072 84.6697 93.4023 85.2279V106.536C93.4072 107.094 93.5505 107.645 93.8229 108.153C94.0953 108.661 94.4907 109.114 94.983 109.482C96.0352 110.276 97.3948 110.71 98.8003 110.701H152.333C153.739 110.715 155.101 110.28 156.15 109.482C156.643 109.114 157.038 108.661 157.31 108.153C157.583 107.645 157.726 107.094 157.731 106.536V85.2279C157.726 84.6697 157.583 84.1188 157.31 83.6111C157.038 83.1033 156.643 82.6504 156.15 82.2818C155.101 81.4841 153.739 81.0493 152.333 81.0628ZM98.8003 83.3993H152.333C152.949 83.3917 153.545 83.5822 154.003 83.9327C154.223 84.0935 154.4 84.292 154.523 84.5152C154.647 84.7384 154.713 84.9813 154.719 85.2279V106.536C154.717 106.783 154.652 107.027 154.529 107.251C154.405 107.475 154.226 107.673 154.003 107.831C153.545 108.182 152.949 108.372 152.333 108.365H98.8003C98.1846 108.372 97.5882 108.182 97.1302 107.831C96.9175 107.667 96.7467 107.468 96.6287 107.245C96.5106 107.022 96.4479 106.781 96.4443 106.536V85.2279C96.4496 84.9837 96.5132 84.743 96.6311 84.5204C96.749 84.2977 96.9189 84.0978 97.1302 83.9327C97.5882 83.5822 98.1846 83.3917 98.8003 83.3993Z" stroke="#324664" stroke-width="2"/>
<path fill-rule="evenodd" clip-rule="evenodd" d="M140.881 114.541H98.8003C97.3949 114.533 96.0352 114.967 94.983 115.76C94.4907 116.129 94.0953 116.582 93.8229 117.09C93.5505 117.597 93.4072 118.148 93.4023 118.707V140.015C93.4072 140.573 93.5505 141.124 93.8229 141.632C94.0953 142.139 94.4907 142.592 94.983 142.961C96.0352 143.754 97.3949 144.189 98.8003 144.18H140.881C142.287 144.193 143.649 143.759 144.698 142.961C145.191 142.592 145.586 142.139 145.858 141.632C146.131 141.124 146.274 140.573 146.279 140.015V118.707C146.274 118.148 146.131 117.597 145.858 117.09C145.586 116.582 145.191 116.129 144.698 115.76C143.649 114.963 142.287 114.528 140.881 114.541ZM98.8003 116.878H140.881C141.497 116.87 142.093 117.061 142.551 117.411C142.774 117.57 142.953 117.768 143.077 117.992C143.2 118.215 143.265 118.459 143.267 118.707V140.015C143.265 140.262 143.2 140.506 143.077 140.73C142.953 140.953 142.774 141.151 142.551 141.31C142.093 141.661 141.497 141.851 140.881 141.843H98.8003C98.1846 141.851 97.5882 141.661 97.1302 141.31C96.9175 141.146 96.7467 140.946 96.6287 140.723C96.5107 140.5 96.4479 140.259 96.4443 140.015V118.707C96.4479 118.462 96.5107 118.221 96.6287 117.998C96.7467 117.775 96.9175 117.575 97.1302 117.411C97.5882 117.061 98.1846 116.87 98.8003 116.878Z" stroke="#324664" stroke-width="2"/>
<path d="M101.995 163.424L105.895 46.4385H116.933L120.833 163.424H101.995Z" stroke="#324664" stroke-width="2"/>
<path fill-rule="evenodd" clip-rule="evenodd" d="M104.686 57.1768H118.404L118.852 70.2817H104.238L104.686 57.1768Z" fill="#324664"/>
<path fill-rule="evenodd" clip-rule="evenodd" d="M103.826 82.8779H119.275L119.722 96.0083H103.379L103.826 82.8779Z" fill="#324664"/>
<path fill-rule="evenodd" clip-rule="evenodd" d="M102.932 109.774H120.17L120.617 122.905H102.484L102.932 109.774Z" fill="#324664"/>
<path d="M103.943 40H119.123C119.381 40 119.589 40.0895 119.719 40.2002C119.847 40.3092 119.883 40.418 119.883 40.4984V44.4604C119.883 44.5409 119.847 44.6497 119.719 44.7586C119.589 44.8694 119.381 44.9588 119.123 44.9588H103.943C103.685 44.9588 103.477 44.8694 103.347 44.7586C103.219 44.6497 103.184 44.5409 103.184 44.4604V40.4984C103.184 40.418 103.219 40.3092 103.347 40.2002C103.477 40.0895 103.685 40 103.943 40Z" stroke="#324664" stroke-width="2"/>
<path d="M54.6602 134.632V133.239L94.2039 114.48V115.872L54.6602 134.632Z" stroke="#324664" stroke-width="2"/>
<path d="M54.6602 115.872V114.48L94.2039 133.239V134.632L54.6602 115.872Z" stroke="#324664" stroke-width="2"/>
<path d="M58.9844 112.709V111.433L89.7791 93.0112L89.8794 93.4746V94.2229L58.9844 112.709Z" stroke="#324664" stroke-width="2"/>
<path d="M58.9844 93.4746L59.0846 93.0112L89.8794 111.433V112.709L58.9844 94.2229V93.4746Z" stroke="#324664" stroke-width="2"/>
<path d="M48.6367 161.37V159.711L99.5066 136.294L99.8399 137.801L48.6367 161.37Z" stroke="#324664" stroke-width="2"/>
<path d="M49.0317 137.804L49.3793 136.29L100.229 159.711V161.37L49.0317 137.804Z" stroke="#324664" stroke-width="2"/>
<path d="M64.1641 89.7536V89.1393L83.3296 69.3669V69.9811L64.1641 89.7536Z" stroke="#324664" stroke-width="2"/>
<path d="M65.6758 70.7193V70.208L84.3374 89.2615V89.7728L65.6758 70.7193Z" stroke="#324664" stroke-width="2"/>
<path d="M57.5547 112.4H91.3127V114.007H57.5547V112.4Z" stroke="#324664" stroke-width="2"/>
<path d="M60.5352 90.9902H88.3286V92.5966H60.5352V90.9902Z" stroke="#324664" stroke-width="2"/>
<path d="M52.75 134.8H96.1111V136.406H52.75V134.8Z" stroke="#324664" stroke-width="2"/>
<path d="M47.8008 160.299H101.093V161.905H47.8008V160.299Z" stroke="#324664" stroke-width="2"/>
<path fill-rule="evenodd" clip-rule="evenodd" d="M64.5165 64.3242H84.349L106.866 164.694H100.364L80.1737 69.3275H68.3936L48.3225 164.694H42L64.5165 64.3242Z" fill="#324664"/>
<path d="M62.649 63.1795V57.2397H86.3408V63.1795H62.649Z" stroke="#324664" stroke-width="3"/>
</svg>
