<svg width="231" height="167" viewBox="0 0 231 167" fill="none" xmlns="http://www.w3.org/2000/svg">
<rect width="231" height="167" fill="white"/>
<path d="M105.207 26H103.27V41.6803H105.207V26Z" fill="#324664"/>
<path d="M77.1379 41.6797H76.1367V57.36H84.8574V54.8264H77.1379V41.6797Z" fill="#324664"/>
<path d="M87.7992 41.6797H86.7969V57.36H95.5176V54.8264H87.7992V41.6797Z" fill="#324664"/>
<path d="M98.4306 57.3147H174.666C176.481 57.3147 178.221 57.9298 179.505 59.0246C180.788 60.1195 181.509 61.6045 181.51 63.153V64.8748H102.04V109.348H111.598V69.3868H143.957V109.348H153.255V73.1862C153.255 72.1783 153.724 71.2116 154.559 70.4989C155.394 69.7862 156.527 69.3858 157.709 69.3858H171.87C172.062 69.3869 172.253 69.3985 172.442 69.4204L172.593 69.4408C172.746 69.4617 172.897 69.4896 173.046 69.5244L173.145 69.5458C173.323 69.5912 173.497 69.6464 173.667 69.711L173.748 69.7446C173.896 69.8025 174.04 69.8679 174.178 69.9403L174.259 69.9821C174.58 70.1571 174.874 70.3668 175.133 70.606L175.169 70.6386C175.433 70.889 175.657 71.168 175.836 71.4685C176.156 72.0012 176.323 72.5915 176.323 73.1903V109.353H185.633V61.0315C185.633 59.3766 184.862 57.7895 183.491 56.6192C182.119 55.449 180.259 54.7916 178.32 54.7916H99.3816V41.6797H98.4258L98.4306 57.3147Z" fill="#324664"/>
<path d="M66.3714 54.8264V41.6797H65.4805V57.36H67.9874H73.2322V54.8264H70.7499H66.3714Z" fill="#324664"/>
<path d="M73.0884 114.184H77.4872V125.033H81.9446V114.184H95.4661V125.033H98.4257V72.7558C98.4235 71.0809 97.6419 69.4752 96.2523 68.2909C94.8627 67.1065 92.9786 66.4404 91.0135 66.4385H70.9481C68.9841 66.442 67.1019 67.1089 65.7139 68.293C64.3258 69.4772 63.5452 71.082 63.543 72.7558V125.033H73.0979L73.0884 114.184ZM73.0884 72.7538C73.0884 71.7473 73.5575 70.7821 74.3925 70.0704C75.2275 69.3587 76.3601 68.9589 77.541 68.9589H91.0135C92.1944 68.9589 93.3269 69.3587 94.1619 70.0704C94.997 70.7821 95.4661 71.7473 95.4661 72.7538V108.863H73.0884V72.7538Z" fill="#324664"/>
<path d="M175.941 125.033H201.128L208.886 115.164H185.325V114.305H175.941V125.033Z" fill="#324664"/>
<path d="M48.8725 130.011C51.2639 130.48 53.134 131.077 54.8203 131.635L45.9431 120.019L49.9367 115.13H23.9287L19.9375 120.019L26.935 129.175H39.27C43.1674 129.174 46.3059 129.504 48.8725 130.011Z" fill="#324664"/>
<path d="M152.686 114.305H143.965V125.033H152.686V114.305Z" fill="#324664"/>
<path d="M59.8075 125.033V60.9209C59.8097 60.1927 60.0733 59.4813 60.565 58.876C61.0568 58.2707 61.7549 57.7986 62.5716 57.5188V54.8848C60.9182 55.2031 59.444 55.9722 58.3886 57.0673C57.3331 58.1623 56.7584 59.519 56.7578 60.9168V124.527L57.159 125.033H59.8075Z" fill="#324664"/>
<path d="M163.964 137.751C162.239 137.264 160.462 136.935 158.66 136.77C155.861 136.527 153.042 136.527 150.243 136.77C149.168 136.869 148.101 137.024 147.048 137.234C146.004 137.447 144.975 137.713 143.965 138.03C144.817 138.293 145.664 138.572 146.552 138.874C148.348 139.484 150.331 140.158 152.919 140.679C155.506 141.2 158.659 141.542 162.586 141.539C164.393 141.545 166.2 141.465 167.997 141.3C169.695 141.142 171.378 140.878 173.034 140.511C170.826 140.018 169.063 139.421 167.453 138.874C166.252 138.46 165.132 138.082 163.964 137.751Z" fill="#324664"/>
<path d="M105.827 137.751C104.102 137.264 102.325 136.935 100.524 136.77C97.7253 136.527 94.9063 136.527 92.1077 136.77C91.0331 136.869 89.9661 137.024 88.9123 137.234C87.8678 137.447 86.838 137.713 85.8281 138.031C86.6741 138.293 87.5201 138.572 88.4144 138.874C90.2103 139.484 92.1935 140.158 94.7798 140.679C97.366 141.2 100.52 141.542 104.448 141.539C106.255 141.545 108.061 141.465 109.859 141.3C111.557 141.142 113.241 140.878 114.897 140.511C112.689 140.018 110.927 139.421 109.317 138.874C108.115 138.46 106.994 138.082 105.827 137.751Z" fill="#324664"/>
<path d="M39.0693 129.16H26.6248H18.1135C16.6401 129.16 29.9728 138.556 31.1748 138.955C32.9767 139.546 34.9639 140.2 37.557 140.705C40.1502 141.21 43.3128 141.542 47.2509 141.539C49.0628 141.545 50.8737 141.467 52.6759 141.307C54.379 141.154 56.0671 140.898 57.7276 140.541C55.5137 140.064 53.747 139.484 52.1342 138.955C50.9273 138.558 37.5958 129.16 39.0693 129.16Z" fill="#324664"/>
<path d="M208.754 115.414L201.026 125.445H175.188V114.541H185.858V109.196H101.296V64.5617H181.148V62.8337C181.148 61.2796 180.423 59.7893 179.134 58.6905C177.844 57.5917 176.095 56.9744 174.272 56.9744H97.6688V41.2831H102.649V26H56.4609V41.2831H62.1322V57.265C61.3346 57.5478 60.6529 58.0254 60.1731 58.6376C59.6933 59.2499 59.4368 59.9694 59.4358 60.7057V125.451H56.8523L56.4609 124.939L49.1245 115.415L45.1328 120.263L54.0059 131.785L54.384 131.907C55.5749 132.299 56.6878 132.669 57.8463 132.983C59.5597 133.45 61.325 133.765 63.1142 133.924C64.5124 134.048 65.9175 134.107 67.3232 134.102C68.71 134.107 70.0962 134.049 71.4758 133.929C72.5431 133.835 73.6027 133.686 74.6488 133.483C76.548 133.116 78.1579 132.602 79.9311 132.019C81.1076 131.631 82.3513 131.216 83.7908 130.826C86.0745 130.207 88.4266 129.788 90.8102 129.576C92.5956 129.416 94.3898 129.34 96.1849 129.346C100.083 129.346 103.22 129.67 105.789 130.172C108.358 130.675 110.328 131.32 112.112 131.911C113.304 132.303 114.416 132.673 115.577 132.987C117.29 133.454 119.056 133.769 120.845 133.928C122.243 134.052 123.648 134.112 125.054 134.106C126.44 134.111 127.826 134.053 129.205 133.933C130.273 133.839 131.333 133.69 132.379 133.487C134.277 133.12 135.887 132.606 137.662 132.023C138.838 131.635 140.082 131.22 141.521 130.83C143.808 130.211 146.162 129.792 148.548 129.581C150.334 129.422 152.128 129.345 153.924 129.351C157.822 129.351 160.959 129.675 163.528 130.177C166.097 130.68 168.068 131.325 169.852 131.917C171.043 132.308 172.157 132.678 173.316 132.992C175.03 133.459 176.796 133.774 178.586 133.933C179.984 134.057 181.39 134.117 182.795 134.111C184.182 134.116 185.568 134.058 186.948 133.938C188.016 133.844 189.076 133.695 190.123 133.492C192.021 133.125 193.631 132.611 195.4 132.028C196.577 131.64 197.82 131.225 199.26 130.835C201.302 130.282 203.398 129.89 205.524 129.665L205.764 129.358L212.764 120.271L208.754 115.414ZM86.7092 41.2831H95.012V56.9744H86.7092V41.2831ZM75.7497 41.2831H84.0525V56.9744H75.7497V41.2831ZM64.7889 41.2831H73.0917V56.9744H64.7889V41.2831ZM97.9005 125.445H62.8381V72.9031C62.8403 71.2208 63.625 69.6078 65.0202 68.4176C66.4154 67.2275 68.3073 66.5572 70.2813 66.5537H90.4501C92.4253 66.5556 94.3191 67.2252 95.7158 68.4155C97.1126 69.6058 97.8983 71.2197 97.9005 72.9031V125.445ZM124.231 125.445H112.788V114.541H124.231V125.445ZM139.831 125.445H128.386V114.541H139.831V125.445ZM155.431 125.445H143.993V114.541H155.437L155.431 125.445ZM171.03 125.445H159.587V114.541H171.03V125.445Z" stroke="#324664"/>
<path d="M212.044 129.171C211.081 129.171 210.162 129.19 209.287 129.228C208.365 129.267 207.483 129.331 206.656 129.403C206.395 129.427 206.144 129.455 205.891 129.482C203.761 129.71 201.66 130.105 199.614 130.662C198.17 131.055 196.925 131.474 195.745 131.865C193.972 132.453 192.359 132.971 190.457 133.341C189.407 133.546 188.345 133.696 187.274 133.791C185.891 133.912 184.502 133.97 183.112 133.965C181.704 133.971 180.295 133.911 178.894 133.786C177.1 133.626 175.33 133.308 173.612 132.837C172.451 132.52 171.334 132.148 170.141 131.753C168.353 131.162 166.377 130.509 163.803 129.999C161.228 129.49 158.087 129.163 154.177 129.166C152.378 129.16 150.579 129.237 148.789 129.398C146.398 129.611 144.038 130.033 141.747 130.657C140.303 131.05 139.058 131.469 137.879 131.86C136.107 132.448 134.493 132.966 132.585 133.336C131.536 133.541 130.474 133.691 129.404 133.786C128.021 133.907 126.633 133.965 125.243 133.96C123.834 133.966 122.426 133.906 121.025 133.781C119.232 133.621 117.462 133.303 115.745 132.832C114.582 132.515 113.468 132.143 112.273 131.748C110.485 131.157 108.511 130.504 105.936 129.994C103.361 129.484 100.221 129.157 96.3104 129.16C94.5113 129.155 92.7131 129.232 90.9237 129.393C88.5364 129.61 86.1812 130.036 83.8948 130.663C82.451 131.056 81.2057 131.475 80.0266 131.866C78.2543 132.454 76.6408 132.972 74.7326 133.342C73.6842 133.547 72.6222 133.697 71.5526 133.792C70.1699 133.913 68.7807 133.971 67.3908 133.966C65.9819 133.972 64.5738 133.912 63.1725 133.787C61.3793 133.627 59.6101 133.309 57.8929 132.838C56.7319 132.521 55.6165 132.149 54.423 131.754L54.044 131.63C52.3595 131.072 50.4813 130.475 48.0858 130.005C45.5146 129.499 42.3707 129.169 38.4604 129.172C36.9973 129.172 50.2347 138.559 51.4295 138.957C53.0309 139.486 54.7851 140.065 56.9833 140.542C57.2396 140.597 57.4971 140.653 57.7666 140.706C60.3378 141.211 63.4817 141.542 67.392 141.539C69.1915 141.545 70.99 141.467 72.7798 141.307C75.1722 141.095 77.5331 140.674 79.8256 140.051C81.2694 139.656 82.5147 139.239 83.6938 138.848C84.4506 138.597 85.1786 138.363 85.9113 138.143C86.9167 137.835 87.9419 137.577 88.9818 137.371C90.0309 137.167 91.0932 137.017 92.163 136.922C94.9492 136.686 97.7557 136.686 100.542 136.922C102.335 137.082 104.105 137.4 105.821 137.872C106.984 138.188 108.099 138.559 109.293 138.955C110.895 139.484 112.65 140.063 114.848 140.541C115.103 140.596 115.361 140.651 115.63 140.704C118.201 141.209 121.346 141.54 125.255 141.537C127.054 141.542 128.852 141.465 130.642 141.305C133.033 141.092 135.393 140.67 137.684 140.045C139.128 139.651 140.373 139.234 141.552 138.843C142.309 138.592 143.037 138.358 143.771 138.137C144.776 137.83 145.801 137.573 146.84 137.365C147.889 137.162 148.952 137.012 150.021 136.917C152.808 136.681 155.615 136.681 158.402 136.917C160.195 137.076 161.965 137.395 163.682 137.867C164.845 138.182 165.96 138.554 167.153 138.95C168.756 139.479 170.512 140.058 172.71 140.535C172.966 140.591 173.223 140.646 173.492 140.698C176.064 141.204 179.208 141.535 183.117 141.532C184.917 141.537 186.715 141.46 188.505 141.3C190.897 141.087 193.257 140.665 195.548 140.04C196.992 139.646 214.699 130.852 214.699 130.252C214.699 129.651 213.508 129.171 212.044 129.171Z" stroke="#324664" stroke-width="2"/>
<path d="M111.322 59.5782C111.287 59.4837 111.224 59.3946 111.137 59.3159C111.049 59.2373 110.938 59.1707 110.811 59.1199C110.684 59.0691 110.543 59.0351 110.396 59.0199C110.248 59.0047 110.098 59.0085 109.953 59.0312C109.808 59.0538 109.671 59.0949 109.55 59.152C109.43 59.2091 109.327 59.2812 109.249 59.3641C109.172 59.4469 109.119 59.539 109.096 59.635C109.073 59.731 109.079 59.829 109.113 59.9236C109.335 60.5228 109.544 61.1238 109.742 61.7267C109.805 61.9187 109.983 62.0865 110.236 62.1931C110.489 62.2998 110.796 62.3366 111.091 62.2954C111.386 62.2543 111.643 62.1385 111.807 61.9737C111.97 61.8088 112.027 61.6084 111.964 61.4164C111.761 60.8018 111.547 60.1891 111.322 59.5782Z" fill="#324664"/>
<path d="M122.204 59.579C122.181 59.4845 122.139 59.3953 122.081 59.3166C122.023 59.2379 121.949 59.1712 121.864 59.1203C121.78 59.0694 121.686 59.0353 121.587 59.02C121.489 59.0047 121.389 59.0084 121.292 59.031C121.196 59.0535 121.104 59.0945 121.024 59.1515C120.943 59.2085 120.875 59.2805 120.823 59.3633C120.771 59.4461 120.736 59.5381 120.72 59.634C120.705 59.73 120.709 59.8281 120.732 59.9226C120.879 60.5219 121.018 61.1231 121.15 61.7262C121.171 61.8213 121.211 61.9115 121.267 61.9916C121.324 62.0717 121.396 62.1401 121.479 62.193C121.563 62.2458 121.656 62.2821 121.754 62.2997C121.852 62.3172 121.952 62.3158 122.05 62.2954C122.147 62.275 122.239 62.2361 122.321 62.1809C122.403 62.1256 122.473 62.0552 122.527 61.9735C122.581 61.8918 122.618 61.8005 122.636 61.7048C122.654 61.6091 122.653 61.5109 122.632 61.4157C122.498 60.8023 122.355 60.19 122.204 59.579Z" fill="#324664"/>
<path d="M133.614 59.5792C133.544 59.3881 133.36 59.223 133.103 59.1202C132.846 59.0174 132.537 58.9854 132.244 59.0311C131.95 59.0767 131.697 59.1965 131.539 59.3639C131.381 59.5313 131.332 59.7327 131.402 59.9237C131.623 60.5225 131.832 61.1235 132.03 61.7265C132.093 61.9186 132.271 62.0864 132.524 62.1931C132.777 62.2998 133.085 62.3366 133.38 62.2954C133.674 62.2542 133.932 62.1385 134.096 61.9736C134.259 61.8087 134.316 61.6081 134.253 61.4161C134.049 60.8032 133.836 60.1909 133.614 59.5792Z" fill="#324664"/>
<path d="M144.489 59.5782C144.443 59.3873 144.32 59.2225 144.149 59.1199C143.978 59.0173 143.772 58.9854 143.577 59.0312C143.381 59.077 143.213 59.1967 143.108 59.3641C143.003 59.5314 142.97 59.7327 143.017 59.9236C143.165 60.5228 143.305 61.1238 143.436 61.7267C143.478 61.9187 143.597 62.0865 143.765 62.1931C143.934 62.2998 144.139 62.3366 144.335 62.2954C144.532 62.2543 144.703 62.1385 144.813 61.9737C144.922 61.8088 144.959 61.6084 144.917 61.4164C144.782 60.8018 144.64 60.1891 144.489 59.5782Z" fill="#324664"/>
<path d="M155.894 59.5775C155.859 59.4829 155.795 59.3939 155.708 59.3153C155.62 59.2367 155.509 59.1701 155.382 59.1194C155.254 59.0687 155.113 59.0348 154.965 59.0197C154.818 59.0046 154.667 59.0086 154.522 59.0314C154.377 59.0542 154.24 59.0954 154.12 59.1526C153.999 59.2098 153.897 59.282 153.819 59.3649C153.741 59.4478 153.689 59.54 153.666 59.636C153.643 59.732 153.649 59.8301 153.684 59.9246C153.905 60.5232 154.114 61.1239 154.312 61.7268C154.375 61.9187 154.553 62.0865 154.806 62.1931C155.059 62.2998 155.366 62.3366 155.661 62.2954C155.956 62.2543 156.213 62.1385 156.377 61.9737C156.541 61.8088 156.597 61.6084 156.534 61.4164C156.332 60.8019 156.119 60.1889 155.894 59.5775Z" fill="#324664"/>
<path d="M167.521 59.5781C167.451 59.3873 167.267 59.2224 167.011 59.1199C166.754 59.0173 166.445 58.9854 166.152 59.0312C165.859 59.077 165.606 59.1967 165.449 59.364C165.291 59.5313 165.242 59.7326 165.313 59.9234C165.535 60.5226 165.744 61.1235 165.94 61.7264C165.971 61.8215 166.031 61.9116 166.116 61.9917C166.2 62.0718 166.309 62.1402 166.434 62.193C166.559 62.2459 166.699 62.2821 166.846 62.2997C166.993 62.3172 167.144 62.3158 167.29 62.2954C167.436 62.2751 167.574 62.2361 167.697 62.1809C167.82 62.1257 167.925 62.0552 168.006 61.9736C168.087 61.8919 168.142 61.8007 168.169 61.705C168.196 61.6093 168.194 61.5112 168.163 61.4161C167.959 60.8016 167.746 60.1889 167.521 59.5781Z" fill="#324664"/>
<path d="M178.831 61.4192C178.696 60.8053 178.553 60.1914 178.404 59.5775C178.38 59.4829 178.338 59.3939 178.28 59.3153C178.221 59.2367 178.147 59.1701 178.062 59.1194C177.978 59.0687 177.883 59.0348 177.785 59.0197C177.687 59.0046 177.587 59.0086 177.49 59.0314C177.393 59.0542 177.302 59.0954 177.222 59.1526C177.141 59.2098 177.073 59.282 177.021 59.3649C176.969 59.4479 176.935 59.54 176.919 59.636C176.904 59.732 176.908 59.8301 176.931 59.9246C177.079 60.5232 177.219 61.1239 177.35 61.7268C177.393 61.9187 177.511 62.0865 177.68 62.1931C177.848 62.2998 178.053 62.3366 178.25 62.2954C178.446 62.2543 178.618 62.1385 178.727 61.9737C178.836 61.8089 178.873 61.6084 178.831 61.4164V61.4192Z" fill="#324664"/>
<path d="M109.084 114.305H101.332V125.033H109.084V114.305Z" fill="#324664"/>
</svg>
