<svg width="194" height="210" viewBox="0 0 194 210" fill="none" xmlns="http://www.w3.org/2000/svg">
<rect width="194" height="210" fill="white"/>
<path d="M57.1143 45.7316C57.7182 45.7361 58.3099 45.5609 58.8139 45.2283C59.3179 44.8956 59.7116 44.4205 59.9448 43.8634C60.178 43.3063 60.2402 42.6925 60.1235 42.1C60.0068 41.5075 59.7164 40.963 59.2894 40.536C58.8624 40.109 58.318 39.8186 57.7255 39.7019C57.133 39.5852 56.5191 39.6474 55.962 39.8806C55.4049 40.1138 54.9299 40.5075 54.5972 41.0115C54.2646 41.5155 54.0893 42.1071 54.0938 42.711C54.1864 43.48 54.5344 44.1956 55.082 44.7433C55.6297 45.291 56.3453 45.639 57.1143 45.7316Z" fill="#324664"/>
<path d="M134.309 86.4043V107.801L145.238 96.8722L134.309 86.4043Z" fill="#324664"/>
<path d="M102.215 132.887C102.215 134.036 102.556 135.159 103.195 136.115C103.833 137.07 104.74 137.815 105.802 138.255C106.864 138.695 108.032 138.81 109.159 138.586C110.286 138.361 111.322 137.808 112.134 136.996C112.947 136.183 113.5 135.148 113.724 134.021C113.949 132.893 113.834 131.725 113.394 130.663C112.954 129.602 112.209 128.694 111.254 128.056C110.298 127.417 109.175 127.077 108.026 127.077C107.26 127.067 106.5 127.211 105.791 127.5C105.082 127.789 104.438 128.216 103.896 128.758C103.355 129.299 102.927 129.943 102.639 130.652C102.35 131.362 102.206 132.121 102.215 132.887Z" fill="#324664"/>
<path d="M134.309 159.634L145.238 146.399L134.309 137.545V159.634Z" fill="#324664"/>
<path d="M134.309 114.304V131.504L145.007 122.904L134.309 114.304Z" fill="#324664"/>
<path d="M145.929 119.883V100.354L135 111.052L145.929 119.883Z" fill="#324664"/>
<path d="M145.929 143.124V125.924L135 134.524L145.929 143.124Z" fill="#324664"/>
<path d="M173.345 84.7674C173.707 84.7461 174.049 84.5941 174.308 84.3397C174.566 84.0853 174.724 83.7457 174.751 83.3839C174.751 66.414 174.751 67.1056 174.521 66.6445C174.29 66.1834 174.29 66.414 174.06 66.1834C173.829 65.9528 126.401 31.2981 126.17 31.0675C125.996 30.9515 125.791 30.8896 125.582 30.8896C125.373 30.8896 125.168 30.9515 124.994 31.0675C124.764 31.0675 67.5821 56.6378 46.6002 65.9528H39.3834C39.0253 65.9795 38.6887 66.1338 38.4349 66.3877C38.181 66.6416 38.0266 66.9782 38 67.3363V83.4762C38.0266 83.8342 38.181 84.1709 38.4349 84.4248C38.6887 84.6787 39.0253 84.8329 39.3834 84.8595H69.8417V115.318H68.4353C68.0962 115.362 67.7846 115.527 67.5588 115.784C67.3331 116.041 67.2084 116.371 67.2084 116.713C67.2084 117.055 67.3331 117.385 67.5588 117.642C67.7846 117.898 68.0962 118.064 68.4353 118.108H69.8417V121.128H68.4353C68.0962 121.172 67.7846 121.338 67.5588 121.594C67.3331 121.851 67.2084 122.181 67.2084 122.523C67.2084 122.865 67.3331 123.195 67.5588 123.452C67.7846 123.709 68.0962 123.874 68.4353 123.918H69.8417V125.555C67.8018 125.873 65.9462 126.919 64.6192 128.501C63.2921 130.082 62.5836 132.091 62.6249 134.155C62.635 136.206 63.362 138.188 64.6801 139.759C65.9981 141.33 67.8242 142.39 69.8417 142.756V147.16C69.8162 147.358 69.8331 147.559 69.8916 147.75C69.95 147.942 70.0485 148.118 70.1805 148.268C70.3125 148.418 70.475 148.538 70.6571 148.621C70.8392 148.703 71.0368 148.746 71.2366 148.746C71.4365 148.746 71.6342 148.703 71.8163 148.621C71.9984 148.538 72.1608 148.418 72.2928 148.268C72.4248 148.118 72.5233 147.942 72.5817 147.75C72.6402 147.559 72.6572 147.358 72.6317 147.16V142.756C74.6653 142.429 76.5125 141.378 77.834 139.799C79.1556 138.219 79.8627 136.215 79.8255 134.155C79.8255 133.789 79.6796 133.437 79.4202 133.177C79.1607 132.918 78.8089 132.772 78.442 132.772C78.0751 132.772 77.7232 132.918 77.4638 133.177C77.2043 133.437 77.0586 133.789 77.0586 134.155C77.0632 135.31 76.7249 136.44 76.0867 137.403C75.4485 138.365 74.539 139.116 73.4735 139.561C72.408 140.006 71.2343 140.125 70.1012 139.903C68.9682 139.68 67.9266 139.126 67.1085 138.312C66.2904 137.497 65.7326 136.457 65.5056 135.325C65.2786 134.193 65.3928 133.019 65.8336 131.952C66.2745 130.884 67.0221 129.972 67.9819 129.33C68.9417 128.688 70.0704 128.345 71.2251 128.345C71.5893 128.318 71.9317 128.162 72.1899 127.903C72.4482 127.645 72.605 127.303 72.6317 126.939V123.803H74.0151C74.2133 123.828 74.4147 123.811 74.6058 123.753C74.797 123.695 74.9735 123.596 75.1236 123.464C75.2737 123.332 75.3939 123.17 75.4762 122.988C75.5586 122.805 75.6012 122.608 75.6012 122.408C75.6012 122.208 75.5586 122.011 75.4762 121.828C75.3939 121.646 75.2737 121.484 75.1236 121.352C74.9735 121.22 74.797 121.121 74.6058 121.063C74.4147 121.004 74.2133 120.987 74.0151 121.013H72.6317V118.223H74.0151C74.2133 118.249 74.4147 118.232 74.6058 118.173C74.797 118.115 74.9735 118.016 75.1236 117.884C75.2737 117.752 75.3939 117.59 75.4762 117.408C75.5586 117.226 75.6012 117.028 75.6012 116.828C75.6012 116.628 75.5586 116.431 75.4762 116.249C75.3939 116.066 75.2737 115.904 75.1236 115.772C74.9735 115.64 74.797 115.541 74.6058 115.483C74.4147 115.425 74.2133 115.408 74.0151 115.433H72.6317V84.7674H126.331V160.556H39.6831C39.344 160.599 39.0324 160.765 38.8067 161.022C38.5809 161.279 38.4564 161.609 38.4564 161.951C38.4564 162.293 38.5809 162.623 38.8067 162.88C39.0324 163.136 39.344 163.302 39.6831 163.346H173.414C173.612 163.371 173.813 163.354 174.005 163.296C174.196 163.237 174.372 163.139 174.522 163.007C174.672 162.875 174.793 162.712 174.875 162.53C174.957 162.348 175 162.151 175 161.951C175 161.751 174.957 161.553 174.875 161.371C174.793 161.189 174.672 161.027 174.522 160.895C174.372 160.763 174.196 160.664 174.005 160.606C173.813 160.547 173.612 160.53 173.414 160.556H163.2V96.8723C163.225 96.6741 163.208 96.4727 163.15 96.2815C163.091 96.0904 162.993 95.9139 162.861 95.7638C162.729 95.6137 162.566 95.4934 162.384 95.411C162.202 95.3287 162.005 95.2861 161.805 95.2861C161.605 95.2861 161.407 95.3287 161.225 95.411C161.043 95.4934 160.881 95.6137 160.749 95.7638C160.617 95.9139 160.518 96.0904 160.46 96.2815C160.401 96.4727 160.384 96.6741 160.41 96.8723V160.694H153.193V84.6059L173.345 84.7674ZM156.398 81.9774H147.544V77.6888H156.398V81.9774ZM135.923 77.6888H144.754V82.0927H135.923V77.6888ZM133.825 74.899H125.709L129.652 69.0885H137.791L133.825 74.899ZM137.33 74.899L141.272 69.0885H149.412L145.469 74.899H137.33ZM148.858 74.899L152.801 69.0885H160.94L156.997 74.899H148.858ZM171.915 82.0927H159.142V77.6888H171.915V82.0927ZM171.915 74.899H160.387L164.329 69.0885H172.007L171.915 74.899ZM168.895 66.0681H141.226L129.144 36.9932L168.895 66.0681ZM125.709 36.4168L138.021 66.1603H113.373L125.709 36.4168ZM123.15 35.2639L110.353 65.9528H54.3244L123.15 35.2639ZM51.6728 81.9774H41.2279V77.6888H51.6728V81.9774ZM41.2279 74.7836V68.9733H56.3304L52.3876 74.7836H41.2279ZM63.3166 81.9774H54.5549V77.6888H63.4089L63.3166 81.9774ZM55.8692 74.7836L59.812 68.9733H67.951L64.0082 74.7836H55.8692ZM74.9374 81.9774H66.1065V77.6888H74.9374V81.9774ZM67.4899 74.7836L71.4558 68.9733H79.5717L75.6291 74.7836H67.4899ZM86.5581 81.9774H77.7272V77.6888H86.5581V81.9774ZM79.1107 74.7836L83.0765 68.9733H91.1926L87.2498 74.7836H79.1107ZM98.1788 81.9774H89.348V77.6888H98.3633L98.1788 81.9774ZM90.7314 74.7836L94.6971 68.9733H102.975L99.0089 74.7836H90.7314ZM109.8 81.9774H100.969V77.6888H109.892L109.8 81.9774ZM102.352 74.7836L106.318 68.9733H114.503L110.537 74.7836H102.352ZM121.42 81.9774H112.589V77.6888H121.42V81.9774ZM113.996 74.7836L117.939 68.9733H126.078L122.112 74.7836H113.996ZM124.21 81.9774V77.6888H133.041V82.0927L124.21 81.9774ZM148.72 160.694H145.699V150.318L136.869 160.694H131.058V84.6059H136.869L145.93 93.2062V84.6059H148.95V160.694H148.72Z" fill="#324664"/>
<path d="M145.239 31.0675C145.654 31.0675 146.06 31.1905 146.405 31.4211C146.75 31.6516 147.019 31.9794 147.177 32.3628C147.336 32.7462 147.378 33.168 147.297 33.575C147.216 33.982 147.016 34.3559 146.723 34.6493C146.429 34.9428 146.055 35.1426 145.648 35.2236C145.241 35.3045 144.819 35.263 144.436 35.1042C144.053 34.9454 143.725 34.6764 143.494 34.3314C143.264 33.9863 143.141 33.5807 143.141 33.1657C143.138 32.8893 143.19 32.6151 143.294 32.3591C143.398 32.1032 143.553 31.8706 143.748 31.6752C143.944 31.4797 144.176 31.3253 144.432 31.2209C144.688 31.1166 144.963 31.0644 145.239 31.0675Z" fill="#324664"/>
<path d="M166.844 44.3252C167.259 44.3252 167.665 44.4482 168.01 44.6788C168.355 44.9093 168.624 45.2371 168.783 45.6205C168.942 46.0039 168.983 46.4257 168.902 46.8327C168.821 47.2397 168.621 47.6136 168.328 47.907C168.034 48.2005 167.661 48.4003 167.254 48.4813C166.847 48.5622 166.425 48.5207 166.041 48.3619C165.658 48.2031 165.33 47.9341 165.1 47.5891C164.869 47.244 164.746 46.8384 164.746 46.4234C164.746 45.8669 164.967 45.3332 165.361 44.9398C165.754 44.5463 166.288 44.3252 166.844 44.3252Z" fill="#324664"/>
<path d="M91.2848 32.7049C91.5773 32.6741 91.873 32.7052 92.1527 32.796C92.4324 32.8868 92.6897 33.0354 92.9083 33.2322C93.1268 33.4289 93.3016 33.6695 93.4212 33.9381C93.5409 34.2067 93.6026 34.4975 93.6026 34.7915C93.6026 35.0856 93.5409 35.3764 93.4212 35.6451C93.3016 35.9137 93.1268 36.1542 92.9083 36.351C92.6897 36.5477 92.4324 36.6963 92.1527 36.7871C91.873 36.878 91.5773 36.909 91.2848 36.8782C90.7692 36.8239 90.292 36.5807 89.9451 36.1954C89.5982 35.8101 89.4063 35.31 89.4062 34.7915C89.4063 34.2731 89.5982 33.773 89.9451 33.3877C90.292 33.0024 90.7692 32.7592 91.2848 32.7049Z" fill="#324664"/>
<path d="M50.6138 52.9258C51.0287 52.9258 51.4345 53.0488 51.7796 53.2794C52.1246 53.5099 52.3935 53.8376 52.5523 54.221C52.7111 54.6044 52.7526 55.0263 52.6716 55.4333C52.5907 55.8403 52.3909 56.2142 52.0975 56.5076C51.804 56.8011 51.4301 57.0008 51.0231 57.0818C50.6161 57.1627 50.1943 57.1213 49.8109 56.9624C49.4275 56.8036 49.0998 56.5347 48.8693 56.1896C48.6387 55.8446 48.5156 55.439 48.5156 55.024C48.5156 54.4675 48.7367 53.9338 49.1302 53.5403C49.5237 53.1468 50.0573 52.9258 50.6138 52.9258Z" fill="#324664"/>
<path d="M47.8211 96.6417C48.237 96.6418 48.6436 96.7654 48.9891 96.997C49.3346 97.2286 49.6035 97.5577 49.7616 97.9424C49.9197 98.3272 49.9599 98.7502 49.8771 99.1578C49.7943 99.5654 49.5921 99.9392 49.2963 100.232C49.0006 100.524 48.6246 100.722 48.2161 100.801C47.8076 100.879 47.385 100.834 47.002 100.672C46.619 100.509 46.2929 100.237 46.0652 99.8888C45.8374 99.5407 45.7182 99.1328 45.7228 98.7168C45.7228 98.4424 45.7772 98.1706 45.8829 97.9174C45.9887 97.6641 46.1436 97.4343 46.3388 97.2413C46.5339 97.0483 46.7653 96.8959 47.0197 96.793C47.2742 96.6901 47.5466 96.6387 47.8211 96.6417Z" fill="#324664"/>
<path d="M111.759 90.8318C112.275 90.8861 112.752 91.1294 113.099 91.5147C113.446 91.9 113.638 92.4001 113.638 92.9185C113.638 93.4369 113.446 93.937 113.099 94.3223C112.752 94.7077 112.275 94.9509 111.759 95.0052C111.467 95.0359 111.171 95.0049 110.891 94.914C110.612 94.8232 110.354 94.6746 110.136 94.4779C109.917 94.2811 109.742 94.0406 109.623 93.772C109.503 93.5033 109.441 93.2126 109.441 92.9185C109.441 92.6244 109.503 92.3336 109.623 92.065C109.742 91.7963 109.917 91.5558 110.136 91.3591C110.354 91.1623 110.612 91.0137 110.891 90.9229C111.171 90.8321 111.467 90.8011 111.759 90.8318Z" fill="#324664"/>
<path d="M84.0904 102.222C85.2492 102.222 86.1886 101.282 86.1886 100.124C86.1886 98.9648 85.2492 98.0254 84.0904 98.0254C82.9316 98.0254 81.9922 98.9648 81.9922 100.124C81.9922 101.282 82.9316 102.222 84.0904 102.222Z" fill="#324664"/>
<path d="M95.7114 138.697C96.1264 138.697 96.5322 138.82 96.8772 139.051C97.2223 139.281 97.4911 139.609 97.6499 139.993C97.8088 140.376 97.8502 140.798 97.7693 141.205C97.6883 141.612 97.4886 141.986 97.1951 142.279C96.9017 142.573 96.5278 142.772 96.1208 142.853C95.7138 142.934 95.2919 142.893 94.9085 142.734C94.5252 142.575 94.1975 142.306 93.9669 141.961C93.7364 141.616 93.6133 141.21 93.6133 140.795C93.6133 140.239 93.8344 139.705 94.2278 139.312C94.6213 138.918 95.1549 138.697 95.7114 138.697Z" fill="#324664"/>
<path d="M50.6138 147.298C51.0287 147.298 51.4345 147.421 51.7796 147.651C52.1246 147.882 52.3935 148.21 52.5523 148.593C52.7111 148.977 52.7526 149.398 52.6716 149.805C52.5907 150.212 52.3909 150.586 52.0975 150.88C51.804 151.173 51.4301 151.373 51.0231 151.454C50.6161 151.535 50.1943 151.493 49.8109 151.335C49.4275 151.176 49.0998 150.907 48.8693 150.562C48.6387 150.217 48.5156 149.811 48.5156 149.396C48.5156 149.121 48.5699 148.848 48.6754 148.593C48.7808 148.339 48.9354 148.107 49.1302 147.912C49.325 147.718 49.5563 147.563 49.8109 147.458C50.0655 147.352 50.3382 147.298 50.6138 147.298Z" fill="#324664"/>
<path d="M57.1143 45.7316C57.7182 45.7361 58.3099 45.5609 58.8139 45.2283C59.3179 44.8956 59.7116 44.4205 59.9448 43.8634C60.178 43.3063 60.2402 42.6925 60.1235 42.1C60.0068 41.5075 59.7164 40.963 59.2894 40.536C58.8624 40.109 58.318 39.8186 57.7255 39.7019C57.133 39.5852 56.5191 39.6474 55.962 39.8806C55.4049 40.1138 54.9299 40.5075 54.5972 41.0115C54.2646 41.5155 54.0893 42.1071 54.0938 42.711C54.1864 43.48 54.5344 44.1956 55.082 44.7433C55.6297 45.291 56.3453 45.639 57.1143 45.7316Z" fill="#324664"/>
<path d="M134.309 86.4043V107.801L145.238 96.8722L134.309 86.4043Z" fill="#324664"/>
<path d="M102.215 132.887C102.215 134.036 102.556 135.159 103.195 136.115C103.833 137.07 104.74 137.815 105.802 138.255C106.864 138.695 108.032 138.81 109.159 138.586C110.286 138.361 111.322 137.808 112.134 136.996C112.947 136.183 113.5 135.148 113.724 134.021C113.949 132.893 113.834 131.725 113.394 130.663C112.954 129.602 112.209 128.694 111.254 128.056C110.298 127.417 109.175 127.077 108.026 127.077C107.26 127.067 106.5 127.211 105.791 127.5C105.082 127.789 104.438 128.216 103.896 128.758C103.355 129.299 102.927 129.943 102.639 130.652C102.35 131.362 102.206 132.121 102.215 132.887Z" fill="#324664"/>
<path d="M134.309 159.634L145.238 146.399L134.309 137.545V159.634Z" fill="#324664"/>
<path d="M134.309 114.304V131.504L145.007 122.904L134.309 114.304Z" fill="#324664"/>
<path d="M145.929 119.883V100.354L135 111.052L145.929 119.883Z" fill="#324664"/>
<path d="M145.929 143.124V125.924L135 134.524L145.929 143.124Z" fill="#324664"/>
<path d="M173.345 84.7674C173.707 84.7461 174.049 84.5941 174.308 84.3397C174.566 84.0853 174.724 83.7457 174.751 83.3839C174.751 66.414 174.751 67.1056 174.521 66.6445C174.29 66.1834 174.29 66.414 174.06 66.1834C173.829 65.9528 126.401 31.2981 126.17 31.0675C125.996 30.9515 125.791 30.8896 125.582 30.8896C125.373 30.8896 125.168 30.9515 124.994 31.0675C124.764 31.0675 67.5821 56.6378 46.6002 65.9528H39.3834C39.0253 65.9795 38.6887 66.1338 38.4349 66.3877C38.181 66.6416 38.0266 66.9782 38 67.3363V83.4762C38.0266 83.8342 38.181 84.1709 38.4349 84.4248C38.6887 84.6787 39.0253 84.8329 39.3834 84.8595H69.8417V115.318H68.4353C68.0962 115.362 67.7846 115.527 67.5588 115.784C67.3331 116.041 67.2084 116.371 67.2084 116.713C67.2084 117.055 67.3331 117.385 67.5588 117.642C67.7846 117.898 68.0962 118.064 68.4353 118.108H69.8417V121.128H68.4353C68.0962 121.172 67.7846 121.338 67.5588 121.594C67.3331 121.851 67.2084 122.181 67.2084 122.523C67.2084 122.865 67.3331 123.195 67.5588 123.452C67.7846 123.709 68.0962 123.874 68.4353 123.918H69.8417V125.555C67.8018 125.873 65.9462 126.919 64.6192 128.501C63.2921 130.082 62.5836 132.091 62.6249 134.155C62.635 136.206 63.362 138.188 64.6801 139.759C65.9981 141.33 67.8242 142.39 69.8417 142.756V147.16C69.8162 147.358 69.8331 147.559 69.8916 147.75C69.95 147.942 70.0485 148.118 70.1805 148.268C70.3125 148.418 70.475 148.538 70.6571 148.621C70.8392 148.703 71.0368 148.746 71.2366 148.746C71.4365 148.746 71.6342 148.703 71.8163 148.621C71.9984 148.538 72.1608 148.418 72.2928 148.268C72.4248 148.118 72.5233 147.942 72.5817 147.75C72.6402 147.559 72.6572 147.358 72.6317 147.16V142.756C74.6653 142.429 76.5125 141.378 77.834 139.799C79.1556 138.219 79.8627 136.215 79.8255 134.155C79.8255 133.789 79.6796 133.437 79.4202 133.177C79.1607 132.918 78.8089 132.772 78.442 132.772C78.0751 132.772 77.7232 132.918 77.4638 133.177C77.2043 133.437 77.0586 133.789 77.0586 134.155C77.0632 135.31 76.7249 136.44 76.0867 137.403C75.4485 138.365 74.539 139.116 73.4735 139.561C72.408 140.006 71.2343 140.125 70.1012 139.903C68.9682 139.68 67.9266 139.126 67.1085 138.312C66.2904 137.497 65.7326 136.457 65.5056 135.325C65.2786 134.193 65.3928 133.019 65.8336 131.952C66.2745 130.884 67.0221 129.972 67.9819 129.33C68.9417 128.688 70.0704 128.345 71.2251 128.345C71.5893 128.318 71.9317 128.162 72.1899 127.903C72.4482 127.645 72.605 127.303 72.6317 126.939V123.803H74.0151C74.2133 123.828 74.4147 123.811 74.6058 123.753C74.797 123.695 74.9735 123.596 75.1236 123.464C75.2737 123.332 75.3939 123.17 75.4762 122.988C75.5586 122.805 75.6012 122.608 75.6012 122.408C75.6012 122.208 75.5586 122.011 75.4762 121.828C75.3939 121.646 75.2737 121.484 75.1236 121.352C74.9735 121.22 74.797 121.121 74.6058 121.063C74.4147 121.004 74.2133 120.987 74.0151 121.013H72.6317V118.223H74.0151C74.2133 118.249 74.4147 118.232 74.6058 118.173C74.797 118.115 74.9735 118.016 75.1236 117.884C75.2737 117.752 75.3939 117.59 75.4762 117.408C75.5586 117.226 75.6012 117.028 75.6012 116.828C75.6012 116.628 75.5586 116.431 75.4762 116.249C75.3939 116.066 75.2737 115.904 75.1236 115.772C74.9735 115.64 74.797 115.541 74.6058 115.483C74.4147 115.425 74.2133 115.408 74.0151 115.433H72.6317V84.7674H126.331V160.556H39.6831C39.344 160.599 39.0324 160.765 38.8067 161.022C38.5809 161.279 38.4564 161.609 38.4564 161.951C38.4564 162.293 38.5809 162.623 38.8067 162.88C39.0324 163.136 39.344 163.302 39.6831 163.346H173.414C173.612 163.371 173.813 163.354 174.005 163.296C174.196 163.237 174.372 163.139 174.522 163.007C174.672 162.875 174.793 162.712 174.875 162.53C174.957 162.348 175 162.151 175 161.951C175 161.751 174.957 161.553 174.875 161.371C174.793 161.189 174.672 161.027 174.522 160.895C174.372 160.763 174.196 160.664 174.005 160.606C173.813 160.547 173.612 160.53 173.414 160.556H163.2V96.8723C163.225 96.6741 163.208 96.4727 163.15 96.2815C163.091 96.0904 162.993 95.9139 162.861 95.7638C162.729 95.6137 162.566 95.4934 162.384 95.411C162.202 95.3287 162.005 95.2861 161.805 95.2861C161.605 95.2861 161.407 95.3287 161.225 95.411C161.043 95.4934 160.881 95.6137 160.749 95.7638C160.617 95.9139 160.518 96.0904 160.46 96.2815C160.401 96.4727 160.384 96.6741 160.41 96.8723V160.694H153.193V84.6059L173.345 84.7674ZM156.398 81.9774H147.544V77.6888H156.398V81.9774ZM135.923 77.6888H144.754V82.0927H135.923V77.6888ZM133.825 74.899H125.709L129.652 69.0885H137.791L133.825 74.899ZM137.33 74.899L141.272 69.0885H149.412L145.469 74.899H137.33ZM148.858 74.899L152.801 69.0885H160.94L156.997 74.899H148.858ZM171.915 82.0927H159.142V77.6888H171.915V82.0927ZM171.915 74.899H160.387L164.329 69.0885H172.007L171.915 74.899ZM168.895 66.0681H141.226L129.144 36.9932L168.895 66.0681ZM125.709 36.4168L138.021 66.1603H113.373L125.709 36.4168ZM123.15 35.2639L110.353 65.9528H54.3244L123.15 35.2639ZM51.6728 81.9774H41.2279V77.6888H51.6728V81.9774ZM41.2279 74.7836V68.9733H56.3304L52.3876 74.7836H41.2279ZM63.3166 81.9774H54.5549V77.6888H63.4089L63.3166 81.9774ZM55.8692 74.7836L59.812 68.9733H67.951L64.0082 74.7836H55.8692ZM74.9374 81.9774H66.1065V77.6888H74.9374V81.9774ZM67.4899 74.7836L71.4558 68.9733H79.5717L75.6291 74.7836H67.4899ZM86.5581 81.9774H77.7272V77.6888H86.5581V81.9774ZM79.1107 74.7836L83.0765 68.9733H91.1926L87.2498 74.7836H79.1107ZM98.1788 81.9774H89.348V77.6888H98.3633L98.1788 81.9774ZM90.7314 74.7836L94.6971 68.9733H102.975L99.0089 74.7836H90.7314ZM109.8 81.9774H100.969V77.6888H109.892L109.8 81.9774ZM102.352 74.7836L106.318 68.9733H114.503L110.537 74.7836H102.352ZM121.42 81.9774H112.589V77.6888H121.42V81.9774ZM113.996 74.7836L117.939 68.9733H126.078L122.112 74.7836H113.996ZM124.21 81.9774V77.6888H133.041V82.0927L124.21 81.9774ZM148.72 160.694H145.699V150.318L136.869 160.694H131.058V84.6059H136.869L145.93 93.2062V84.6059H148.95V160.694H148.72Z" fill="#324664"/>
<path d="M145.239 31.0675C145.654 31.0675 146.06 31.1905 146.405 31.4211C146.75 31.6516 147.019 31.9794 147.177 32.3628C147.336 32.7462 147.378 33.168 147.297 33.575C147.216 33.982 147.016 34.3559 146.723 34.6493C146.429 34.9428 146.055 35.1426 145.648 35.2236C145.241 35.3045 144.819 35.263 144.436 35.1042C144.053 34.9454 143.725 34.6764 143.494 34.3314C143.264 33.9863 143.141 33.5807 143.141 33.1657C143.138 32.8893 143.19 32.6151 143.294 32.3591C143.398 32.1032 143.553 31.8706 143.748 31.6752C143.944 31.4797 144.176 31.3253 144.432 31.2209C144.688 31.1166 144.963 31.0644 145.239 31.0675Z" fill="#324664"/>
<path d="M166.844 44.3252C167.259 44.3252 167.665 44.4482 168.01 44.6788C168.355 44.9093 168.624 45.2371 168.783 45.6205C168.942 46.0039 168.983 46.4257 168.902 46.8327C168.821 47.2397 168.621 47.6136 168.328 47.907C168.034 48.2005 167.661 48.4003 167.254 48.4813C166.847 48.5622 166.425 48.5207 166.041 48.3619C165.658 48.2031 165.33 47.9341 165.1 47.5891C164.869 47.244 164.746 46.8384 164.746 46.4234C164.746 45.8669 164.967 45.3332 165.361 44.9398C165.754 44.5463 166.288 44.3252 166.844 44.3252Z" fill="#324664"/>
<path d="M91.2848 32.7049C91.5773 32.6741 91.873 32.7052 92.1527 32.796C92.4324 32.8868 92.6897 33.0354 92.9083 33.2322C93.1268 33.4289 93.3016 33.6695 93.4212 33.9381C93.5409 34.2067 93.6026 34.4975 93.6026 34.7915C93.6026 35.0856 93.5409 35.3764 93.4212 35.6451C93.3016 35.9137 93.1268 36.1542 92.9083 36.351C92.6897 36.5477 92.4324 36.6963 92.1527 36.7871C91.873 36.878 91.5773 36.909 91.2848 36.8782C90.7692 36.8239 90.292 36.5807 89.9451 36.1954C89.5982 35.8101 89.4063 35.31 89.4062 34.7915C89.4063 34.2731 89.5982 33.773 89.9451 33.3877C90.292 33.0024 90.7692 32.7592 91.2848 32.7049Z" fill="#324664"/>
<path d="M50.6138 52.9258C51.0287 52.9258 51.4345 53.0488 51.7796 53.2794C52.1246 53.5099 52.3935 53.8376 52.5523 54.221C52.7111 54.6044 52.7526 55.0263 52.6716 55.4333C52.5907 55.8403 52.3909 56.2142 52.0975 56.5076C51.804 56.8011 51.4301 57.0008 51.0231 57.0818C50.6161 57.1627 50.1943 57.1213 49.8109 56.9624C49.4275 56.8036 49.0998 56.5347 48.8693 56.1896C48.6387 55.8446 48.5156 55.439 48.5156 55.024C48.5156 54.4675 48.7367 53.9338 49.1302 53.5403C49.5237 53.1468 50.0573 52.9258 50.6138 52.9258Z" fill="#324664"/>
<path d="M47.8211 96.6417C48.237 96.6418 48.6436 96.7654 48.9891 96.997C49.3346 97.2286 49.6035 97.5577 49.7616 97.9424C49.9197 98.3272 49.9599 98.7502 49.8771 99.1578C49.7943 99.5654 49.5921 99.9392 49.2963 100.232C49.0006 100.524 48.6246 100.722 48.2161 100.801C47.8076 100.879 47.385 100.834 47.002 100.672C46.619 100.509 46.2929 100.237 46.0652 99.8888C45.8374 99.5407 45.7182 99.1328 45.7228 98.7168C45.7228 98.4424 45.7772 98.1706 45.8829 97.9174C45.9887 97.6641 46.1436 97.4343 46.3388 97.2413C46.5339 97.0483 46.7653 96.8959 47.0197 96.793C47.2742 96.6901 47.5466 96.6387 47.8211 96.6417Z" fill="#324664"/>
<path d="M111.759 90.8318C112.275 90.8861 112.752 91.1294 113.099 91.5147C113.446 91.9 113.638 92.4001 113.638 92.9185C113.638 93.4369 113.446 93.937 113.099 94.3223C112.752 94.7077 112.275 94.9509 111.759 95.0052C111.467 95.0359 111.171 95.0049 110.891 94.914C110.612 94.8232 110.354 94.6746 110.136 94.4779C109.917 94.2811 109.742 94.0406 109.623 93.772C109.503 93.5033 109.441 93.2126 109.441 92.9185C109.441 92.6244 109.503 92.3336 109.623 92.065C109.742 91.7963 109.917 91.5558 110.136 91.3591C110.354 91.1623 110.612 91.0137 110.891 90.9229C111.171 90.8321 111.467 90.8011 111.759 90.8318Z" fill="#324664"/>
<path d="M84.0904 102.222C85.2492 102.222 86.1886 101.282 86.1886 100.124C86.1886 98.9648 85.2492 98.0254 84.0904 98.0254C82.9316 98.0254 81.9922 98.9648 81.9922 100.124C81.9922 101.282 82.9316 102.222 84.0904 102.222Z" fill="#324664"/>
<path d="M95.7114 138.697C96.1264 138.697 96.5322 138.82 96.8772 139.051C97.2223 139.281 97.4911 139.609 97.6499 139.993C97.8088 140.376 97.8502 140.798 97.7693 141.205C97.6883 141.612 97.4886 141.986 97.1951 142.279C96.9017 142.573 96.5278 142.772 96.1208 142.853C95.7138 142.934 95.2919 142.893 94.9085 142.734C94.5252 142.575 94.1975 142.306 93.9669 141.961C93.7364 141.616 93.6133 141.21 93.6133 140.795C93.6133 140.239 93.8344 139.705 94.2278 139.312C94.6213 138.918 95.1549 138.697 95.7114 138.697Z" fill="#324664"/>
<path d="M50.6138 147.298C51.0287 147.298 51.4345 147.421 51.7796 147.651C52.1246 147.882 52.3935 148.21 52.5523 148.593C52.7111 148.977 52.7526 149.398 52.6716 149.805C52.5907 150.212 52.3909 150.586 52.0975 150.88C51.804 151.173 51.4301 151.373 51.0231 151.454C50.6161 151.535 50.1943 151.493 49.8109 151.335C49.4275 151.176 49.0998 150.907 48.8693 150.562C48.6387 150.217 48.5156 149.811 48.5156 149.396C48.5156 149.121 48.5699 148.848 48.6754 148.593C48.7808 148.339 48.9354 148.107 49.1302 147.912C49.325 147.718 49.5563 147.563 49.8109 147.458C50.0655 147.352 50.3382 147.298 50.6138 147.298Z" fill="#324664"/>
</svg>
