<svg width="193" height="167" viewBox="0 0 193 167" fill="none" xmlns="http://www.w3.org/2000/svg">
<rect width="193" height="167" fill="white"/>
<path d="M82.5341 30.7373H35.1115H29V129.63H90.111V61.9654V30.7373H82.5341Z" fill="white"/>
<path d="M158.952 111.837C156.586 111.844 154.3 111.103 152.538 109.757C150.777 108.411 149.665 106.556 149.418 104.551V84.1464C149.418 81.8566 150.399 79.7764 152.353 78.3187C153.818 76.6514 156.264 75.8193 158.952 75.8193C161.543 75.826 164.025 76.7055 165.857 78.2657C167.689 79.8259 168.721 81.94 168.729 84.1464V103.716C168.729 108.299 164.329 111.837 158.952 111.837Z" fill="white"/>
<path d="M164.817 68.1172C165.252 68.1172 165.678 68.2272 166.04 68.4332C166.402 68.6392 166.684 68.932 166.85 69.2746C167.016 69.6172 167.06 69.9941 166.975 70.3577C166.889 70.7212 166.68 71.0551 166.371 71.317C166.063 71.5789 165.671 71.7571 165.244 71.8291C164.817 71.901 164.375 71.8634 163.973 71.7211C163.571 71.5788 163.227 71.3382 162.986 71.0296C162.745 70.7211 162.616 70.3585 162.617 69.9878C162.618 69.4914 162.85 69.0156 163.263 68.6649C163.675 68.3142 164.234 68.1172 164.817 68.1172Z" fill="#324664"/>
<path d="M165.553 28.9751C165.513 31.1718 164.459 33.2667 162.619 34.8059C161.23 33.8618 159.507 33.3478 157.73 33.3482C156.679 33.3611 155.64 33.5516 154.676 33.9087C153.711 34.2658 152.839 34.7823 152.111 35.4284V34.7932C152.111 31.4618 150.399 28.3367 147.465 26.4662C148.064 24.9409 149.213 23.616 150.75 22.681C152.286 21.7461 154.13 21.249 156.019 21.261C161.399 21.2737 165.553 24.6019 165.553 28.9751Z" fill="white"/>
<path d="M162.619 34.8058C163.788 35.6182 164.632 36.719 165.036 37.9568C165.439 39.1946 165.383 40.5085 164.874 41.7178C164.365 42.9271 163.428 43.9723 162.193 44.7097C160.958 45.4471 159.485 45.8404 157.977 45.8355H122.531C121.554 45.8543 120.583 45.7066 119.674 45.4012C118.765 45.0958 117.937 44.6388 117.238 44.057C116.54 43.4752 115.984 42.7804 115.605 42.0133C115.226 41.2463 115.031 40.4224 115.031 39.5902C115.031 38.758 115.226 37.9342 115.605 37.1672C115.984 36.4001 116.54 35.7053 117.238 35.1235C117.937 34.5417 118.765 34.0847 119.674 33.7793C120.583 33.4738 121.554 33.3262 122.531 33.3449C123.813 33.3704 125.07 33.6556 126.197 34.177C126.412 31.3684 127.868 28.7335 130.272 26.8022C132.676 24.8708 135.849 23.7863 139.154 23.7666C142.285 23.8084 145.305 24.7647 147.708 26.4756C150.4 28.5558 152.354 31.4712 152.354 34.8027V35.4378C153.083 34.7918 153.956 34.2753 154.921 33.9183C155.886 33.5612 156.925 33.3707 157.977 33.3576C159.688 33.3481 161.4 33.7673 162.619 34.8058Z" fill="white"/>
<path d="M157.975 54.9983C159.184 54.9983 160.365 55.3035 161.37 55.8755C162.375 56.4475 163.159 57.2604 163.621 58.2115C164.084 59.1627 164.205 60.2093 163.969 61.219C163.733 62.2287 163.151 63.1561 162.296 63.8841C161.442 64.6121 160.353 65.1078 159.167 65.3087C157.982 65.5095 156.753 65.4064 155.636 65.0125C154.52 64.6185 153.565 63.9513 152.894 63.0953C152.222 62.2393 151.864 61.233 151.864 60.2035C151.856 59.5181 152.009 58.8384 152.314 58.204C152.618 57.5696 153.068 56.9933 153.637 56.5087C154.206 56.024 154.883 55.6409 155.627 55.3815C156.372 55.1222 157.17 54.9919 157.975 54.9983Z" fill="white"/>
<path d="M152.595 117.457C153.03 117.456 153.456 117.566 153.818 117.771C154.18 117.977 154.463 118.269 154.63 118.612C154.797 118.954 154.841 119.331 154.757 119.694C154.672 120.058 154.463 120.392 154.155 120.655C153.848 120.917 153.456 121.096 153.029 121.168C152.602 121.241 152.16 121.204 151.757 121.062C151.355 120.92 151.011 120.68 150.769 120.372C150.528 120.064 150.398 119.701 150.398 119.331C150.399 118.835 150.631 118.359 151.043 118.008C151.454 117.657 152.012 117.459 152.595 117.457Z" fill="#324664"/>
<path d="M142.577 87.6875C145.198 88.5116 147.488 89.9562 149.177 91.8511V104.554V104.97C147.841 106.576 146.043 107.863 143.955 108.706C141.866 109.548 139.559 109.919 137.253 109.783C134.948 109.646 132.723 109.007 130.791 107.926C128.86 106.846 127.288 105.36 126.226 103.612C125.164 101.864 124.647 99.9126 124.727 97.9456C124.806 95.9786 125.478 94.0621 126.679 92.3803C127.879 90.6986 129.567 89.3081 131.581 88.3428C133.595 87.3774 135.866 86.8696 138.177 86.8682C139.889 87.2683 141.354 87.4779 142.577 87.6875Z" fill="white"/>
<path d="M146.481 125.368C146.917 125.368 147.342 125.477 147.705 125.682C148.067 125.888 148.35 126.18 148.517 126.523C148.684 126.865 148.728 127.242 148.643 127.606C148.559 127.969 148.35 128.303 148.042 128.566C147.735 128.828 147.343 129.007 146.916 129.079C146.489 129.152 146.046 129.115 145.644 128.973C145.242 128.832 144.898 128.591 144.656 128.283C144.414 127.975 144.285 127.613 144.285 127.242C144.286 126.746 144.518 126.27 144.929 125.919C145.341 125.568 145.899 125.37 146.481 125.368Z" fill="#324664"/>
<path d="M141.841 51.251C142.276 51.251 142.701 51.3608 143.062 51.5665C143.424 51.7723 143.706 52.0647 143.873 52.4069C144.039 52.7491 144.083 53.1257 143.999 53.4891C143.914 53.8525 143.705 54.1864 143.398 54.4486C143.09 54.7107 142.699 54.8894 142.272 54.9621C141.846 55.0347 141.403 54.9981 141.001 54.8568C140.599 54.7154 140.255 54.4758 140.013 54.168C139.771 53.8603 139.641 53.4984 139.641 53.1279C139.641 52.6307 139.872 52.1537 140.285 51.8018C140.697 51.4499 141.257 51.2518 141.841 51.251Z" fill="#324664"/>
<path d="M142.577 60.2039V87.6876C141.165 87.2564 139.676 87.0413 138.177 87.0525C136.41 87.05 134.66 87.3445 133.028 87.9191C131.395 88.4937 129.911 89.3372 128.662 90.4011C127.413 91.465 126.423 92.7285 125.748 94.1191C125.073 95.5096 124.728 97 124.731 98.5046C124.707 100.013 125.04 101.51 125.707 102.907C126.375 104.305 127.365 105.574 128.619 106.64C129.872 107.705 131.364 108.546 133.006 109.113C134.647 109.679 136.405 109.96 138.177 109.938V135.754H90.7539V60.1689L142.577 60.2039Z" fill="white"/>
<path d="M122.04 18.5654C122.475 18.5654 122.9 18.6753 123.262 18.8812C123.624 19.0871 123.906 19.3797 124.072 19.7221C124.239 20.0645 124.282 20.4413 124.198 20.8047C124.113 21.1682 123.903 21.5021 123.595 21.7641C123.288 22.0262 122.896 22.2046 122.469 22.2769C122.042 22.3492 121.6 22.3121 121.198 22.1703C120.796 22.0285 120.452 21.7883 120.211 21.4802C119.969 21.172 119.84 20.8098 119.84 20.4392C119.84 19.9422 120.072 19.4656 120.484 19.1142C120.897 18.7628 121.456 18.5654 122.04 18.5654Z" fill="#324664"/>
<path d="M105.909 18.5654C107.408 18.5648 108.874 18.9429 110.122 19.652C111.369 20.3611 112.341 21.3692 112.915 22.5489C113.489 23.7286 113.64 25.0269 113.348 26.2796C113.056 27.5322 112.334 28.683 111.274 29.5862C110.214 30.4895 108.864 31.1047 107.393 31.3541C105.922 31.6035 104.398 31.4758 103.013 30.9872C101.627 30.4987 100.443 29.6711 99.6099 28.6093C98.7767 27.5474 98.332 26.299 98.332 25.0219C98.3409 23.3124 99.1418 21.675 100.561 20.4659C101.98 19.2568 103.902 18.5738 105.909 18.5654Z" fill="white"/>
<path d="M102.243 46.0459C102.678 46.0459 103.103 46.1557 103.465 46.3615C103.827 46.5672 104.108 46.8597 104.275 47.2019C104.442 47.5441 104.485 47.9206 104.401 48.284C104.316 48.6474 104.107 48.9813 103.8 49.2435C103.493 49.5056 103.101 49.6843 102.674 49.757C102.248 49.8297 101.806 49.793 101.404 49.6517C101.002 49.5103 100.658 49.2707 100.416 48.9629C100.173 48.6552 100.044 48.2933 100.043 47.9228C100.043 47.4256 100.275 46.9487 100.687 46.5968C101.1 46.2449 101.659 46.0467 102.243 46.0459Z" fill="#324664"/>
<path d="M90.7516 127.868H29.6406V135.782H90.7516V127.868Z" fill="white"/>
<path d="M84 38.4033H76V50.3273H84V38.4033Z" fill="#324664"/>
<path d="M84 56.2891H76V68.213H84V56.2891Z" fill="#324664"/>
<path d="M84 74.1748H76V86.0988H84V74.1748Z" fill="#324664"/>
<path d="M84 92.0605H76V103.985H84V92.0605Z" fill="#324664"/>
<path d="M84 109.947H76V121.871H84V109.947Z" fill="#324664"/>
<path d="M83.1766 22.5225H35.7539V28.9758H83.1766V22.5225Z" fill="white"/>
<path d="M70.7097 38.4033H63.1328V50.0618H70.7097V38.4033Z" fill="#324664"/>
<path d="M70.7097 56.2891H63.1328V67.9476H70.7097V56.2891Z" fill="#324664"/>
<path d="M70.7097 74.1748H63.1328V85.8333H70.7097V74.1748Z" fill="#324664"/>
<path d="M70.7097 92.0605H63.1328V103.719H70.7097V92.0605Z" fill="#324664"/>
<path d="M70.7097 109.947H63.1328V121.606H70.7097V109.947Z" fill="#324664"/>
<path d="M57.0222 38.4033H49.4453V50.0618H57.0222V38.4033Z" fill="#324664"/>
<path d="M57.0222 56.2891H49.4453V67.9476H57.0222V56.2891Z" fill="#324664"/>
<path d="M57.0222 74.1748H49.4453V85.8333H57.0222V74.1748Z" fill="#324664"/>
<path d="M57.0222 92.0605H49.4453V103.719H57.0222V92.0605Z" fill="#324664"/>
<path d="M57.0222 109.947H49.4453V121.606H57.0222V109.947Z" fill="#324664"/>
<path d="M43.5806 38.4033H36V50.0618H43.5806V38.4033Z" fill="#324664"/>
<path d="M43.5806 56.2891H36V67.9476H43.5806V56.2891Z" fill="#324664"/>
<path d="M43.5806 74.1748H36V85.8333H43.5806V74.1748Z" fill="#324664"/>
<path d="M43.5806 92.0605H36V103.719H43.5806V92.0605Z" fill="#324664"/>
<path d="M43.5806 109.947H36V121.606H43.5806V109.947Z" fill="#324664"/>
<path d="M29.6412 137.026C29.2609 137.005 28.9027 136.866 28.6332 136.637C28.3637 136.407 28.2011 136.102 28.1758 135.778V28.9747C28.2011 28.6508 28.3637 28.3457 28.6332 28.1161C28.9027 27.8866 29.2609 27.7482 29.6412 27.7266H35.7527C36.1413 27.7266 36.514 27.8581 36.7889 28.0921C37.0637 28.3262 37.2181 28.6436 37.2181 28.9747C37.2181 29.3057 37.0637 29.6231 36.7889 29.8572C36.514 30.0913 36.1413 30.2228 35.7527 30.2228H31.1103V135.569C31.1103 136.404 30.3758 137.026 29.6412 137.026Z" fill="#324664"/>
<path d="M90.7532 61.454C90.3726 61.4317 90.0144 61.2926 89.7449 61.0625C89.4755 60.8325 89.3131 60.527 89.2878 60.2027V30.2228H83.1763C82.7877 30.2228 82.415 30.0913 82.1401 29.8572C81.8653 29.6231 81.7109 29.3057 81.7109 28.9747C81.7109 28.6436 81.8653 28.3262 82.1401 28.0921C82.415 27.8581 82.7877 27.7266 83.1763 27.7266H90.7532C91.1337 27.7487 91.4919 27.8872 91.7619 28.1166C92.0318 28.346 92.1954 28.6507 92.2224 28.9747V60.2027C92.1955 60.527 92.0321 60.8322 91.7622 61.0621C91.4923 61.2919 91.134 61.4311 90.7532 61.454Z" fill="#324664"/>
<path d="M90.7522 129.116H29.6412C29.2525 129.116 28.8798 128.985 28.605 128.751C28.3302 128.517 28.1758 128.199 28.1758 127.868C28.1758 127.537 28.3302 127.22 28.605 126.986C28.8798 126.752 29.2525 126.62 29.6412 126.62H90.7522C91.1408 126.62 91.5136 126.752 91.7884 126.986C92.0632 127.22 92.2176 127.537 92.2176 127.868C92.2176 128.199 92.0632 128.517 91.7884 128.751C91.5136 128.985 91.1408 129.116 90.7522 129.116Z" fill="#324664"/>
<path d="M83.1771 30.223H35.7545C35.3742 30.2014 35.016 30.0629 34.7465 29.8334C34.4769 29.6038 34.3144 29.2988 34.2891 28.9749V22.5215C34.3144 22.1976 34.4769 21.8926 34.7465 21.663C35.016 21.4335 35.3742 21.295 35.7545 21.2734H83.1771C83.5572 21.2957 83.9149 21.4343 84.1843 21.6637C84.4536 21.8932 84.6164 22.1979 84.6425 22.5215V28.9749C84.6164 29.2985 84.4536 29.6032 84.1843 29.8327C83.9149 30.0621 83.5572 30.2007 83.1771 30.223ZM37.2236 27.7331H81.4656V23.7696H37.2236V27.7331Z" fill="#324664"/>
<path d="M90.7545 137.028C90.3742 137.006 90.016 136.868 89.7465 136.638C89.4769 136.408 89.3144 136.103 89.2891 135.78V60.1944C89.3152 59.8707 89.478 59.566 89.7473 59.3366C90.0167 59.1072 90.3744 58.9685 90.7545 58.9463H142.819C143.2 58.9685 143.558 59.107 143.828 59.3363C144.098 59.5657 144.262 59.8704 144.289 60.1944V87.6782C144.27 87.9987 144.107 88.3008 143.834 88.5219C143.561 88.7431 143.198 88.8664 142.821 88.8664C142.444 88.8664 142.082 88.7431 141.809 88.5219C141.536 88.3008 141.373 87.9987 141.354 87.6782V61.4457H92.466V135.57C92.2236 136.405 91.4853 137.028 90.7545 137.028Z" fill="#324664"/>
<path d="M158.953 113.294C156.213 113.298 153.565 112.457 151.497 110.926C149.429 109.395 148.083 107.278 147.707 104.967V84.1458C147.714 81.6559 148.854 79.2653 150.888 77.4766C151.908 76.5953 153.129 75.9005 154.475 75.4347C155.821 74.969 157.265 74.7419 158.718 74.7676C161.69 74.7998 164.528 75.821 166.627 77.6127C168.726 79.4045 169.918 81.8246 169.949 84.3555V103.925C170.195 108.921 165.065 113.294 158.953 113.294ZM158.953 77.0669C157.86 77.0515 156.774 77.2286 155.765 77.5871C154.756 77.9456 153.844 78.4778 153.088 79.1502C151.546 80.4844 150.67 82.2743 150.642 84.1458V104.551C150.863 106.231 151.812 107.78 153.304 108.896C154.795 110.012 156.722 110.614 158.707 110.585C160.841 110.569 162.883 109.84 164.392 108.554C165.901 107.269 166.758 105.53 166.776 103.712V84.1458C166.842 83.2367 166.688 82.3257 166.325 81.4691C165.961 80.6125 165.395 79.8284 164.662 79.1651C163.929 78.5019 163.045 77.9735 162.063 77.6126C161.081 77.2518 160.022 77.066 158.953 77.0669Z" fill="#324664"/>
<path d="M138.416 137.027C138.036 137.005 137.679 136.866 137.409 136.637C137.14 136.407 136.977 136.103 136.951 135.779V98.5135C136.941 98.3441 136.972 98.1747 137.041 98.0157C137.11 97.8566 137.216 97.7112 137.354 97.5883C137.491 97.4653 137.656 97.3675 137.839 97.3006C138.022 97.2337 138.219 97.1992 138.418 97.1992C138.618 97.1992 138.815 97.2337 138.998 97.3006C139.181 97.3675 139.346 97.4653 139.483 97.5883C139.62 97.7112 139.727 97.8566 139.796 98.0157C139.865 98.1747 139.896 98.3441 139.886 98.5135V135.569C139.886 136.405 139.151 137.027 138.416 137.027Z" fill="#324664"/>
<path d="M158.954 137.026C158.573 137.004 158.215 136.866 157.945 136.636C157.675 136.407 157.511 136.102 157.484 135.778V87.2674C157.503 86.9468 157.666 86.6447 157.939 86.4236C158.212 86.2024 158.575 86.0791 158.952 86.0791C159.328 86.0791 159.691 86.2024 159.964 86.4236C160.237 86.6447 160.4 86.9468 160.419 87.2674V135.778C160.394 136.102 160.231 136.407 159.962 136.637C159.692 136.866 159.334 137.005 158.954 137.026Z" fill="#324664"/>
<path d="M158.954 97.6787C158.611 97.7084 158.265 97.6354 157.977 97.4723C157.232 97.0562 157.232 96.2241 157.731 95.5985L162.62 90.1837C163.112 89.5485 164.089 89.5485 164.82 89.9773C165.551 90.406 165.566 91.2254 165.066 91.851L160.177 97.25C159.931 97.6787 159.443 97.6787 158.954 97.6787Z" fill="#324664"/>
<path d="M158.954 102.884C158.701 102.887 158.451 102.83 158.235 102.717C158.018 102.605 157.844 102.442 157.731 102.249L154.066 97.047C153.953 96.8966 153.877 96.7289 153.841 96.5534C153.804 96.3779 153.809 96.198 153.854 96.024C153.9 95.85 153.985 95.6853 154.105 95.5393C154.225 95.3934 154.378 95.269 154.554 95.1733C154.731 95.0775 154.928 95.0124 155.134 94.9815C155.34 94.9506 155.551 94.9546 155.755 94.9932C155.96 95.0318 156.153 95.1044 156.324 95.2066C156.496 95.3089 156.642 95.4389 156.754 95.5893L160.42 100.791C160.532 100.942 160.609 101.11 160.645 101.286C160.682 101.461 160.677 101.642 160.632 101.816C160.586 101.99 160.501 102.155 160.381 102.301C160.261 102.448 160.108 102.572 159.931 102.668C159.635 102.815 159.297 102.89 158.954 102.884Z" fill="#324664"/>
<path d="M138.42 106.006C138.167 106.008 137.917 105.95 137.701 105.838C137.485 105.726 137.31 105.564 137.197 105.37L133.532 101.207C133.043 100.572 133.043 99.7491 133.778 99.3331C134.512 98.917 135.486 98.917 135.978 99.5395L139.643 103.703C140.132 104.338 140.132 105.161 139.401 105.58C138.909 106.006 138.666 106.006 138.42 106.006Z" fill="#324664"/>
<path d="M138.419 108.082C138.075 108.112 137.73 108.039 137.442 107.876C136.697 107.457 136.697 106.625 137.196 105.999L140.865 101.842C141.354 101.207 142.331 101.207 143.065 101.635C143.8 102.064 143.811 102.884 143.308 103.509L139.642 107.673C139.154 107.882 138.908 108.082 138.419 108.082Z" fill="#324664"/>
<path d="M158.954 104.967C158.61 104.998 158.264 104.924 157.977 104.757C157.232 104.341 157.232 103.509 157.731 102.883L161.401 98.7198C161.889 98.0847 162.866 98.0847 163.597 98.5134C164.328 98.9421 164.343 99.7615 163.843 100.387L160.177 104.551C159.842 104.81 159.408 104.958 158.954 104.967Z" fill="#324664"/>
<path d="M138.419 111.21C134.463 111.21 130.67 109.872 127.872 107.49C125.075 105.107 123.504 101.876 123.504 98.5071C123.504 95.1379 125.075 91.9068 127.872 89.5244C130.67 87.1421 134.463 85.8037 138.419 85.8037C140.076 85.8107 141.723 86.0247 143.307 86.4389C146.321 87.2781 148.908 88.9675 150.642 91.228C150.869 91.5317 150.945 91.8997 150.853 92.2511C150.762 92.6025 150.51 92.9085 150.153 93.1018C149.797 93.2951 149.365 93.3599 148.952 93.2819C148.54 93.2038 148.18 92.9894 147.954 92.6858C146.484 91.0216 144.531 89.5639 142.088 88.9383C140.846 88.5087 139.517 88.2928 138.177 88.3031C135.064 88.3031 132.08 89.3561 129.879 91.2304C127.678 93.1047 126.442 95.6468 126.442 98.2975C126.442 100.948 127.678 103.49 129.879 105.365C132.08 107.239 135.064 108.292 138.177 108.292C139.98 108.295 141.759 107.939 143.372 107.252C144.985 106.565 146.387 105.566 147.465 104.335C147.484 104.014 147.647 103.712 147.92 103.491C148.193 103.27 148.556 103.146 148.932 103.146C149.309 103.146 149.672 103.27 149.945 103.491C150.218 103.712 150.381 104.014 150.4 104.335V104.751C150.436 105.045 150.349 105.341 150.153 105.586C148.929 107.303 147.206 108.722 145.151 109.707C143.096 110.692 140.777 111.21 138.419 111.21Z" fill="#324664"/>
<path d="M168.73 137.026H26.4654C26.0768 137.026 25.704 136.895 25.4292 136.661C25.1544 136.427 25 136.109 25 135.778C25 135.447 25.1544 135.13 25.4292 134.896C25.704 134.662 26.0768 134.53 26.4654 134.53H168.484C168.864 134.551 169.224 134.689 169.494 134.919C169.764 135.148 169.927 135.454 169.953 135.778C170.195 136.404 169.464 137.026 168.73 137.026Z" fill="#324664"/>
<path d="M136.464 69.3666H96.8639C96.4875 69.3504 96.1329 69.2117 95.8732 68.9791C95.6136 68.7465 95.4688 68.4378 95.4688 68.1169C95.4688 67.7959 95.6136 67.4873 95.8732 67.2547C96.1329 67.0221 96.4875 66.8834 96.8639 66.8672H136.706C137.087 66.8894 137.446 67.0284 137.716 67.2584C137.986 67.4884 138.149 67.7939 138.175 68.1185C138.175 68.7409 137.441 69.3666 136.464 69.3666Z" fill="#324664"/>
<path d="M136.464 75.8195H96.8638C96.4752 75.8195 96.1025 75.688 95.8276 75.4539C95.5528 75.2198 95.3984 74.9024 95.3984 74.5714C95.3984 74.2403 95.5528 73.9229 95.8276 73.6888C96.1025 73.4547 96.4752 73.3232 96.8638 73.3232H136.706C137.087 73.3448 137.445 73.4831 137.715 73.7126C137.985 73.942 138.149 74.2472 138.175 74.5714C138.175 75.1938 137.44 75.8195 136.464 75.8195Z" fill="#324664"/>
<path d="M136.464 82.2726H96.8638C96.4752 82.2726 96.1025 82.1411 95.8276 81.907C95.5528 81.673 95.3984 81.3555 95.3984 81.0245C95.3984 80.6935 95.5528 80.376 95.8276 80.1419C96.1025 79.9079 96.4752 79.7764 96.8638 79.7764H136.706C137.087 79.7979 137.445 79.9362 137.715 80.1657C137.985 80.3952 138.149 80.7003 138.175 81.0245C138.175 81.6501 137.44 82.2726 136.464 82.2726Z" fill="#324664"/>
<path d="M124.241 88.9349H96.8639C96.4875 88.9188 96.1329 88.7801 95.8732 88.5475C95.6136 88.3149 95.4688 88.0062 95.4688 87.6852C95.4688 87.3643 95.6136 87.0556 95.8732 86.823C96.1329 86.5904 96.4875 86.4517 96.8639 86.4355H124.483C124.864 86.4571 125.223 86.5959 125.494 86.8261C125.764 87.0562 125.927 87.3621 125.952 87.6868C125.948 88.3093 125.221 88.9349 124.241 88.9349Z" fill="#324664"/>
<path d="M115.195 95.3789H96.8639C96.4875 95.3627 96.1329 95.224 95.8732 94.9914C95.6136 94.7588 95.4688 94.4502 95.4688 94.1292C95.4688 93.8083 95.6136 93.4996 95.8732 93.267C96.1329 93.0344 96.4875 92.8957 96.8639 92.8795H115.195C115.393 92.871 115.592 92.897 115.779 92.9559C115.966 93.0149 116.137 93.1055 116.281 93.2224C116.425 93.3393 116.54 93.48 116.619 93.6358C116.697 93.7917 116.738 93.9596 116.738 94.1292C116.738 94.2988 116.697 94.4667 116.619 94.6226C116.54 94.7785 116.425 94.9191 116.281 95.036C116.137 95.1529 115.966 95.2436 115.779 95.3025C115.592 95.3615 115.393 95.3874 115.195 95.3789Z" fill="#324664"/>
<path d="M116.664 101.842H96.8638C96.4752 101.842 96.1025 101.71 95.8276 101.476C95.5528 101.242 95.3984 100.925 95.3984 100.594C95.3984 100.263 95.5528 99.9453 95.8276 99.7113C96.1025 99.4772 96.4752 99.3457 96.8638 99.3457H116.664C117.044 99.368 117.401 99.5066 117.671 99.736C117.94 99.9654 118.103 100.27 118.129 100.594C118.138 100.76 118.105 100.925 118.035 101.08C117.964 101.235 117.856 101.375 117.719 101.492C117.581 101.61 117.416 101.701 117.234 101.762C117.053 101.822 116.858 101.849 116.664 101.842Z" fill="#324664"/>
<path d="M121.306 108.299H96.8639C96.4875 108.283 96.1329 108.144 95.8732 107.911C95.6136 107.679 95.4688 107.37 95.4688 107.049C95.4688 106.728 95.6136 106.42 95.8732 106.187C96.1329 105.954 96.4875 105.816 96.8639 105.799H121.306C121.505 105.791 121.704 105.817 121.891 105.876C122.077 105.935 122.248 106.025 122.392 106.142C122.537 106.259 122.652 106.4 122.73 106.556C122.809 106.712 122.849 106.88 122.849 107.049C122.849 107.219 122.809 107.387 122.73 107.543C122.652 107.698 122.537 107.839 122.392 107.956C122.248 108.073 122.077 108.163 121.891 108.222C121.704 108.281 121.505 108.307 121.306 108.299Z" fill="#324664"/>
<path d="M132.064 114.961H96.8639C96.4875 114.945 96.1329 114.806 95.8732 114.574C95.6136 114.341 95.4688 114.033 95.4688 113.712C95.4688 113.391 95.6136 113.082 95.8732 112.849C96.1329 112.617 96.4875 112.478 96.8639 112.462H132.064C132.44 112.478 132.795 112.617 133.054 112.849C133.314 113.082 133.459 113.391 133.459 113.712C133.459 114.033 133.314 114.341 133.054 114.574C132.795 114.806 132.44 114.945 132.064 114.961Z" fill="#324664"/>
<path d="M132.064 121.421H96.8639C96.4875 121.405 96.1329 121.266 95.8732 121.034C95.6136 120.801 95.4688 120.493 95.4688 120.172C95.4688 119.851 95.6136 119.542 95.8732 119.309C96.1329 119.077 96.4875 118.938 96.8639 118.922H132.064C132.44 118.938 132.795 119.077 133.054 119.309C133.314 119.542 133.459 119.851 133.459 120.172C133.459 120.493 133.314 120.801 133.054 121.034C132.795 121.266 132.44 121.405 132.064 121.421Z" fill="#324664"/>
<path d="M162.616 36.0535C162.128 36.0535 161.871 35.8471 161.397 35.6375C161.158 35.3678 161.028 35.0388 161.028 34.7006C161.028 34.3624 161.158 34.0335 161.397 33.7637C162.155 33.1423 162.761 32.3992 163.181 31.5772C163.6 30.7552 163.824 29.8706 163.839 28.9746C163.829 27.2659 163.027 25.6298 161.608 24.4215C160.19 23.2133 158.269 22.5304 156.263 22.5212C154.663 22.5285 153.105 22.9506 151.795 23.7313C150.484 24.512 149.484 25.6143 148.928 26.8912C148.864 27.0551 148.762 27.2067 148.63 27.3372C148.497 27.4677 148.335 27.5746 148.153 27.6519C147.972 27.7292 147.774 27.7752 147.572 27.7875C147.37 27.7997 147.167 27.7779 146.974 27.7233C146.782 27.6686 146.604 27.5823 146.451 27.4691C146.297 27.3559 146.172 27.2181 146.081 27.0635C145.99 26.909 145.936 26.7408 145.922 26.5684C145.907 26.3961 145.933 26.223 145.997 26.0591C146.699 24.2612 148.041 22.694 149.837 21.5752C151.632 20.4563 153.792 19.8413 156.016 19.8154C158.861 19.8362 161.583 20.8077 163.595 22.5208C165.607 24.2339 166.749 26.5515 166.774 28.9746C166.781 30.2281 166.48 31.4691 165.891 32.6177C165.301 33.7663 164.436 34.7971 163.351 35.6438C163.351 35.8471 162.863 36.0535 162.616 36.0535Z" fill="#324664"/>
<path d="M157.73 47.2969H122.53C121.327 47.3177 120.131 47.1338 119.013 46.7561C117.894 46.3783 116.875 45.8142 116.016 45.0969C115.156 44.3795 114.473 43.5233 114.007 42.5784C113.541 41.6335 113.301 40.6188 113.301 39.5939C113.301 38.5689 113.541 37.5543 114.007 36.6093C114.473 35.6644 115.156 34.8082 116.016 34.0909C116.875 33.3735 117.894 32.8094 119.013 32.4317C120.131 32.0539 121.327 31.87 122.53 31.8908C123.276 31.8908 124.242 32.0973 124.977 32.0973C125.689 29.341 127.479 26.8722 130.052 25.0947C132.626 23.3173 135.832 22.3364 139.146 22.3125C142.627 22.3234 145.999 23.3526 148.695 25.2279C151.368 27.118 153.112 29.792 153.584 32.7229C154.855 32.1312 156.29 31.8437 157.738 31.8908C159.901 31.8757 161.993 32.5445 163.61 33.7678C165.019 34.7868 166.026 36.1498 166.495 37.6724C166.964 39.1951 166.872 40.8036 166.232 42.2803C165.592 43.757 164.435 45.0305 162.917 45.9284C161.399 46.8263 159.593 47.3051 157.745 47.3L157.73 47.2969ZM122.53 34.5935C120.975 34.5935 119.483 35.1198 118.383 36.0567C117.283 36.9935 116.665 38.2642 116.665 39.5891C116.665 40.914 117.283 42.1847 118.383 43.1215C119.483 44.0584 120.975 44.5847 122.53 44.5847H157.73C159.281 44.5707 160.765 44.0408 161.863 43.108C162.962 42.1751 163.589 40.9134 163.61 39.5923C163.633 38.8626 163.445 38.1393 163.062 37.4862C162.679 36.8332 162.113 36.2706 161.414 35.8479C160.35 35.0122 158.946 34.5632 157.499 34.5967C156.668 34.5853 155.845 34.7283 155.085 35.0157C154.326 35.3031 153.649 35.728 153.103 36.2608C152.611 36.6768 151.88 36.896 151.391 36.6768C151.106 36.5691 150.863 36.3946 150.69 36.1736C150.517 35.9526 150.421 35.6943 150.414 35.4287V35.0127C150.415 33.5994 150.067 32.2018 149.393 30.9105C148.718 29.6193 147.732 28.4633 146.499 27.5177C144.381 25.9998 141.69 25.1864 138.922 25.2279C132.814 25.2279 127.922 29.185 127.434 34.3902C127.437 34.6056 127.369 34.8173 127.237 35.0011C127.105 35.1848 126.915 35.333 126.688 35.4287C126.463 35.5319 126.211 35.5858 125.955 35.5858C125.7 35.5858 125.448 35.5319 125.223 35.4287C124.73 34.8063 123.511 34.5967 122.53 34.5967V34.5935Z" fill="#324664"/>
<path d="M142.576 42.0918H139.399C139.2 42.1003 139.001 42.0744 138.814 42.0154C138.627 41.9565 138.457 41.8658 138.312 41.7489C138.168 41.632 138.053 41.4914 137.974 41.3355C137.896 41.1796 137.855 41.0117 137.855 40.8421C137.855 40.6725 137.896 40.5046 137.974 40.3487C138.053 40.1929 138.168 40.0522 138.312 39.9353C138.457 39.8184 138.627 39.7277 138.814 39.6688C139.001 39.6099 139.2 39.5839 139.399 39.5924H142.576C142.956 39.6154 143.314 39.7547 143.583 39.9846C143.852 40.2146 144.015 40.5197 144.041 40.8437C144.287 41.4662 143.552 42.0918 142.576 42.0918Z" fill="#324664"/>
<path d="M135.001 42.0912H121.309C120.933 42.075 120.578 41.9363 120.319 41.7037C120.059 41.4711 119.914 41.1624 119.914 40.8415C119.914 40.5205 120.059 40.2119 120.319 39.9793C120.578 39.7467 120.933 39.608 121.309 39.5918H135.001C135.382 39.6148 135.739 39.7541 136.009 39.984C136.278 40.214 136.441 40.5191 136.467 40.8431C136.475 41.0088 136.442 41.1741 136.371 41.3285C136.3 41.483 136.193 41.6233 136.055 41.7406C135.917 41.8578 135.753 41.9495 135.571 42.0099C135.39 42.0702 135.196 42.0979 135.001 42.0912Z" fill="#324664"/>
<path d="M105.906 32.9324C104.069 32.9324 102.273 32.4684 100.745 31.5992C99.2178 30.7299 98.0272 29.4944 97.3242 28.0488C96.6212 26.6033 96.4373 25.0126 96.7957 23.478C97.1541 21.9434 98.0387 20.5338 99.3377 19.4274C100.637 18.3211 102.292 17.5676 104.094 17.2624C105.895 16.9571 107.763 17.1138 109.46 17.7126C111.157 18.3113 112.608 19.3253 113.629 20.6263C114.649 21.9272 115.194 23.4567 115.194 25.0214C115.194 27.1195 114.215 29.1317 112.473 30.6153C110.732 32.0989 108.369 32.9324 105.906 32.9324ZM105.906 19.8162C104.697 19.8162 103.515 20.1215 102.51 20.6934C101.505 21.2654 100.722 22.0783 100.259 23.0294C99.7967 23.9806 99.6757 25.0272 99.9115 26.0369C100.147 27.0466 100.729 27.9741 101.584 28.702C102.439 29.43 103.528 29.9257 104.713 30.1266C105.899 30.3274 107.128 30.2243 108.244 29.8304C109.361 29.4364 110.316 28.7692 110.987 27.9132C111.659 27.0573 112.017 26.0509 112.017 25.0214C112.026 24.3358 111.873 23.6557 111.569 23.0209C111.265 22.3861 110.815 21.8094 110.246 21.3246C109.677 20.8399 109 20.4567 108.254 20.1977C107.509 19.9387 106.711 19.809 105.906 19.8162Z" fill="#324664"/>
<path d="M157.975 66.6601C156.476 66.6607 155.01 66.2826 153.762 65.5735C152.515 64.8644 151.543 63.8563 150.969 62.6766C150.394 61.4968 150.244 60.1986 150.536 58.9459C150.828 57.6933 151.55 56.5425 152.61 55.6393C153.67 54.736 155.02 54.1207 156.491 53.8714C157.962 53.622 159.486 53.7497 160.871 54.2382C162.257 54.7268 163.441 55.5544 164.274 56.6162C165.107 57.678 165.552 58.9265 165.552 60.2036C165.543 61.9131 164.742 63.5505 163.323 64.7596C161.904 65.9687 159.982 66.6517 157.975 66.6601ZM157.975 56.2496C157.365 56.2488 156.761 56.3505 156.197 56.5489C155.633 56.7472 155.12 57.0384 154.689 57.4057C154.257 57.7729 153.915 58.2091 153.682 58.6892C153.448 59.1693 153.328 59.6839 153.329 60.2036C153.308 60.728 153.414 61.2505 153.64 61.7386C153.866 62.2267 154.208 62.67 154.643 63.041C155.079 63.4121 155.6 63.7029 156.173 63.8955C156.746 64.0881 157.359 64.1784 157.975 64.1607C159.184 64.1315 160.332 63.702 161.175 62.9633C162.018 62.2247 162.489 61.2352 162.489 60.2052C162.489 59.1751 162.018 58.1856 161.175 57.447C160.332 56.7084 159.184 56.2788 157.975 56.2496Z" fill="#324664"/>
</svg>
