<svg width="245" height="210" viewBox="0 0 245 210" fill="none" xmlns="http://www.w3.org/2000/svg">
<rect width="245" height="210" fill="white"/>
<path d="M70.8856 111.803H54.5703V117.841H60.0087H97.5396V111.803H85.2181H70.8856Z" fill="#324664"/>
<path d="M72.0596 47.0502L72.0342 47.0068L72.0046 46.9663C71.683 46.5259 71.2144 46.226 70.7053 46.0837C70.2064 45.9442 69.6696 45.9552 69.1769 46.1162C68.6468 46.2653 68.1557 46.4999 67.7741 46.8207C67.4324 47.108 67.0921 47.5445 67.0334 48.109C66.6095 49.5413 65.6863 50.8606 64.3494 51.8832C62.9957 52.9186 61.29 53.5932 59.4523 53.801C58.4496 53.7805 57.4637 53.595 56.5499 53.2573C55.6179 52.9127 54.7838 52.4183 54.0921 51.8088C53.4007 51.1996 52.8668 50.4891 52.5116 49.7225C52.1569 48.9568 51.9853 48.1457 52.001 47.3338H52.0011L52.0012 47.3211C52.012 45.6916 52.7588 44.0918 54.149 42.8669C55.5386 41.6424 57.4555 40.8994 59.5094 40.8272C61.4003 40.8533 63.1921 41.475 64.5435 42.5436L64.6173 42.602L64.7008 42.6456C65.1097 42.8592 65.5589 42.9956 66.0206 43.051C66.4493 43.1025 66.8855 43.0838 67.3073 42.9956C67.9348 42.9471 68.4202 42.562 68.7046 42.2385C69.0027 41.8996 69.2958 41.3859 69.3075 40.8274C69.4408 38.4926 70.6149 36.2501 72.6534 34.5732C74.7018 32.8882 77.4558 31.9163 80.355 31.8903L80.3557 31.8903C82.9 31.8657 85.3609 32.5907 87.3237 33.9217C89.2467 35.2255 90.5616 37.0204 91.1013 38.9925C91.1121 39.2579 91.1759 39.5169 91.287 39.757C91.4231 40.0511 91.6242 40.3043 91.8661 40.5066C92.1077 40.7086 92.3873 40.8576 92.6832 40.9514C92.9462 41.0348 93.2218 41.0746 93.4971 41.0706C96.1189 41.4148 98.6121 42.2478 100.799 43.5039C103.005 44.7715 104.839 46.4345 106.175 48.3628C106.465 48.7892 106.88 49.1099 107.348 49.3062C107.818 49.5033 108.336 49.5737 108.842 49.5156L108.931 49.5054L109.016 49.4796C109.467 49.3437 109.889 49.1201 110.245 48.8161C110.602 48.5117 110.888 48.1317 111.068 47.6972L111.096 47.6304L111.113 47.5602C111.802 44.8438 113.557 42.371 116.138 40.5648C118.718 38.7586 121.958 37.737 125.334 37.6871C129.32 37.6887 133.116 39.041 135.894 41.4096C138.668 43.7755 140.188 46.9469 140.188 50.2128C140.188 53.4787 138.668 56.6502 135.894 59.016C133.114 61.3861 129.315 62.7385 125.326 62.7385H125.295L125.263 62.7405C124.625 62.781 124.001 63.0162 123.512 63.4331C123.02 63.8529 122.688 64.4398 122.631 65.1009L122.624 65.1751L122.629 65.2495C122.717 66.6733 122.215 68.1013 121.167 69.2804C120.116 70.4639 118.582 71.3177 116.82 71.6563C115.058 71.9947 113.216 71.7888 111.627 71.0846C110.039 70.3807 108.834 69.2382 108.184 67.8938C107.982 67.4728 107.666 67.122 107.285 66.8622C106.905 66.6028 106.466 66.4378 106.01 66.3718L105.939 66.3615H105.867H105.555H105.548L105.54 66.3616C104.812 66.373 104.094 66.6102 103.523 67.0572L103.502 67.0736L103.482 67.0912C101.826 68.5367 99.8384 69.6918 97.6337 70.4817C95.4316 71.2707 93.0622 71.6774 90.6663 71.6752C85.7977 71.5822 81.1954 69.8547 77.8522 66.9055C74.5118 63.959 72.7069 60.0443 72.7634 56.0236L72.7637 56.0002L72.7629 55.9768C72.7058 54.2376 73.0585 52.502 73.8057 50.8708L73.854 50.7653L73.8769 50.6516C73.9721 50.1784 73.9405 49.6933 73.7874 49.2363C73.6486 48.822 73.416 48.4486 73.115 48.1347C72.8944 47.8085 72.6161 47.572 72.4424 47.4245C72.432 47.4157 72.422 47.4071 72.4123 47.3989C72.1771 47.1983 72.1016 47.1218 72.0596 47.0502Z" stroke="#324664" stroke-width="2"/>
<path d="M72.6133 108.663H83.2069V102.142L72.6133 97.5527V108.663Z" fill="#324664"/>
<path d="M61.7383 163.007H72.6151V134.265C72.6688 133.91 72.8724 133.583 73.1878 133.347C73.5032 133.11 73.9088 132.98 74.3288 132.98C74.7488 132.98 75.1545 133.11 75.4699 133.347C75.7853 133.583 75.9888 133.91 76.0425 134.265V163.007H97.5413V120.739H61.7383V163.007Z" fill="#324664"/>
<path d="M101.277 110.113V163.008H162.29V70.502L101.277 99.0026V110.113ZM142.519 107.215H149.685V113.253H142.519V107.215ZM142.519 119.291H149.685V125.329H142.519V119.291ZM142.519 131.368H149.685V137.406H142.519V131.368ZM142.519 143.444H149.685V149.483H142.519V143.444ZM128.356 107.215H135.494V113.253H128.356V107.215ZM128.356 119.291H135.494V125.329H128.356V119.291ZM128.356 131.368H135.494V137.406H128.356V131.368ZM128.356 143.444H135.494V149.483H128.356V143.444ZM114.024 107.215H121.19V113.253H114.024V107.215ZM114.024 119.291H121.19V125.329H114.024V119.291ZM114.024 131.368H121.19V137.406H114.024V131.368ZM114.024 143.444H121.19V149.483H114.024V143.444Z" stroke="#324664" stroke-width="2"/>
<path d="M203.277 117.842H188.944H165.746V123.88H203.277H208.715V117.842H203.277Z" fill="#324664"/>
<path d="M201.549 103.591L190.672 108.18V114.701H201.549V103.591Z" fill="#324664"/>
<path d="M165.746 163.008H187.217V146.342C187.25 145.963 187.444 145.608 187.761 145.341C188.079 145.075 188.499 144.915 188.944 144.893C189.389 144.915 189.81 145.075 190.127 145.341C190.445 145.608 190.639 145.963 190.672 146.342V163.008H201.549V126.778H165.746V163.008Z" fill="#324664"/>
</svg>
