<svg width="203" height="201" viewBox="0 0 203 201" fill="none" xmlns="http://www.w3.org/2000/svg">
<rect width="203" height="201" fill="white"/>
<path d="M124.625 141.735H122.531C121.975 141.735 121.547 142.186 121.547 142.72C121.547 143.277 121.996 143.706 122.531 143.706H123.62V147.01C123.62 147.567 124.07 147.995 124.604 147.995C125.159 147.995 125.588 147.545 125.588 147.01V142.715C125.63 142.186 125.181 141.735 124.625 141.735Z" fill="#324664"/>
<path d="M153.165 99.7627H134.578C134.022 99.7627 133.594 100.213 133.594 100.748V112.828C133.594 113.385 134.043 113.814 134.578 113.814H153.165C153.72 113.814 154.149 113.363 154.149 112.828V100.748C154.17 100.218 153.715 99.7627 153.165 99.7627Z" fill="#324664"/>
<path d="M125.899 99.7627H107.312C106.757 99.7627 106.328 100.213 106.328 100.748V112.828C106.328 113.385 106.778 113.814 107.312 113.814H125.899C126.454 113.814 126.883 113.363 126.883 112.828V100.748C126.904 100.218 126.449 99.7627 125.899 99.7627Z" fill="#324664"/>
<path d="M164.981 162.03H164.632C164.077 162.03 163.648 162.48 163.648 163.015C163.648 163.571 164.098 164 164.632 164H164.981C165.537 164 165.965 163.55 165.965 163.015C165.965 162.48 165.537 162.03 164.981 162.03Z" fill="#324664"/>
<path d="M161.964 162.03H161.864V157.862H165C165.307 157.862 165.593 157.719 165.799 157.47C165.984 157.221 166.048 156.893 165.963 156.607L161.88 142.228V83.1863C161.88 82.6302 161.43 82.2012 160.896 82.2012H153.798L150.783 38.7728C150.762 38.2591 150.312 37.8513 149.799 37.8513H138.803C138.289 37.8513 137.84 38.2644 137.819 38.7781L134.862 82.1645H125.119L122.903 60.8997C122.839 60.386 122.432 60.0153 121.919 60.0153H117.714V58.1246V57.9816C117.672 57.7168 117.122 53.1515 121.184 49.5818C121.47 49.9738 121.797 50.3233 122.189 50.6093C123.072 51.266 124.035 51.5944 125.124 51.5944C125.802 51.5944 126.521 51.4726 127.256 51.2025C128.859 50.6464 130.334 49.5394 131.382 48.0989C131.81 47.5216 132.159 46.9496 132.487 46.3935C133 45.5514 133.45 44.8099 134.047 44.238C134.264 44.0103 134.37 43.7031 134.328 43.3959C134.285 43.0887 134.079 42.8186 133.815 42.6545C130.202 40.7266 125.198 40.6419 122.427 42.432C120.845 43.4595 120.047 45.0219 120.168 46.8702C120.189 47.1562 120.253 47.4475 120.311 47.7335C116.556 50.7946 115.82 54.7191 115.693 56.7952C114.752 54.3325 113.498 52.0499 111.98 49.9525C112.43 49.2322 112.8 48.4325 113.028 47.5904C113.477 45.9274 113.456 44.3015 112.964 42.8239C110.669 36.0448 99.1595 33.3967 91.1571 35.7375C90.8503 35.8223 90.6017 36.0447 90.5012 36.3519C90.4007 36.6379 90.4377 36.9662 90.6017 37.2363C91.5061 38.6345 92.0986 40.2552 92.7174 41.9606C93.0453 42.8662 93.3733 43.7878 93.7647 44.7358C93.8281 44.9 93.9075 45.0642 93.971 45.2283L94.0556 45.4137C95.3462 48.2684 97.4619 50.7153 99.9849 52.2564C101.73 53.3263 103.455 53.8612 105.116 53.8612C106.284 53.8612 107.411 53.5964 108.522 53.0826C109.32 52.6907 110.061 52.177 110.696 51.5626C112.462 54.0889 113.816 56.9436 114.673 60.0048L110.918 59.9942C110.405 59.9942 109.976 60.3861 109.934 60.8787L107.718 82.1434L99.6358 82.1381H90.443V71.3763C92.7385 70.9049 94.4841 68.8711 94.4841 66.4244C94.4841 63.6491 92.2255 61.3931 89.4593 61.3931C86.6877 61.3931 84.4345 63.6546 84.4345 66.4244C84.4345 68.8712 86.18 70.905 88.4756 71.3763V82.1381H64.2027C63.6473 82.1381 63.2189 82.5883 63.2189 83.1232V96.7615H53.1639C50.9689 96.7615 49.2022 98.5463 49.2022 100.728V102.291H44.2832C43.7278 102.291 43.2994 102.741 43.2994 103.276V108.842C43.2994 109.398 43.749 109.827 44.2832 109.827H46.5418V114.366C45.1877 114.88 43.9552 115.658 42.908 116.707C41.0198 118.64 39.9724 121.166 39.9937 123.878L40.2211 161.942L37.9838 161.947C37.4284 161.947 37 162.397 37 162.932C37 163.488 37.4496 163.917 37.9838 163.917H40.9405C41.0252 163.938 41.1257 163.981 41.205 163.981L50.2339 163.917H161.96C162.515 163.917 162.944 163.467 162.944 162.932C162.949 162.482 162.499 162.032 161.965 162.032L161.964 162.03ZM123.496 44.1155C124.501 43.4588 125.955 43.1304 127.516 43.1304C128.912 43.1304 130.388 43.3952 131.742 43.909C131.414 44.3803 131.107 44.8729 130.8 45.3654C130.472 45.8791 130.144 46.414 129.774 46.949C128.954 48.0559 127.828 48.9191 126.595 49.3534C125.283 49.8036 124.257 49.7241 123.395 49.0462C123.168 48.8609 122.983 48.6543 122.803 48.4107C124.3 47.4839 126.209 46.6842 128.668 46.128C129.203 46.0062 129.552 45.4713 129.43 44.9364C129.308 44.4015 128.795 44.0519 128.24 44.1737C125.781 44.7086 123.786 45.5084 122.189 46.4352C122.184 45.4713 122.591 44.6874 123.496 44.1155ZM159.87 162.029H156.384V157.861H159.87V162.029ZM79.203 113.833C78.8962 113.812 78.5894 113.791 78.2615 113.791C77.9336 113.791 77.6479 113.812 77.32 113.833C77.2195 113.833 77.1137 113.855 76.9921 113.876C76.8704 113.897 76.7276 113.897 76.6007 113.918V109.893H79.9223V113.918C79.8006 113.897 79.6578 113.876 79.5309 113.876C79.404 113.876 79.3035 113.855 79.203 113.833ZM68.1643 123.901V153.136H65.1917L65.1864 98.797H75.2784C76.368 98.797 77.2672 99.6814 77.2672 100.788V102.351H72.364C71.8086 102.351 71.3802 102.801 71.3802 103.336V108.902C71.3802 109.458 71.8298 109.887 72.364 109.887H74.6226V114.468C70.8302 115.951 68.1643 119.606 68.1643 123.901ZM65.1864 155.127H68.159V162.05H65.1864V155.127ZM81.8899 109.909H84.1485C84.7038 109.909 85.1323 109.459 85.1323 108.924V103.358C85.1323 102.802 84.6827 102.373 84.1485 102.373H79.2453V100.81C79.2453 99.7192 80.1286 98.8188 81.2341 98.8188H89.6071C90.6967 98.8188 91.5959 99.7033 91.5959 100.81V153.174H88.3536V123.901C88.3536 119.606 85.6666 115.952 81.8902 114.474L81.8899 109.909ZM88.3534 155.129H91.5745V162.051H88.3534V155.129ZM93.5634 155.129H98.6517V162.051H93.5634V155.129ZM100.64 155.129H117.339V162.051H100.64V155.129ZM119.333 154.159V154.138V154.117V127.7H141.184V162.024L119.333 162.029V154.159ZM143.151 155.129H147.398L146.986 156.606C146.901 156.913 146.965 157.22 147.15 157.469C147.335 157.718 147.621 157.861 147.949 157.861H154.391V162.029H143.167L143.172 155.128L143.151 155.129ZM157.411 126.635C157.289 126.206 156.898 125.915 156.448 125.915C155.999 125.915 155.607 126.201 155.486 126.635L147.954 153.138H143.13V126.715C143.13 126.159 142.68 125.73 142.146 125.73H118.323C117.767 125.73 117.339 126.18 117.339 126.715V153.132H100.641V93.6237H159.87V135.241L157.411 126.635ZM159.871 91.6279H100.641V84.1497H108.459C108.48 84.1497 108.501 84.1709 108.522 84.1709C108.586 84.1709 108.644 84.1497 108.707 84.1497H124.115C124.158 84.1497 124.2 84.1709 124.237 84.1709H124.337C124.359 84.1709 124.38 84.1497 124.401 84.1497H159.87L159.871 91.6279ZM139.723 39.8422H148.853L151.746 82.1805H136.83L139.723 39.8422ZM107.676 51.282C105.602 52.2671 103.428 52.0234 101.006 50.5617C98.8108 49.227 96.9859 47.1085 95.854 44.6247L95.7906 44.4605C95.7271 44.3175 95.6689 44.1745 95.6054 44.0103C95.214 43.1047 94.9073 42.1831 94.5793 41.3198C94.098 39.9057 93.622 38.5659 92.9661 37.3159C100.577 35.6529 109.442 38.55 111.104 43.4594C111.474 44.5664 111.495 45.7791 111.146 47.0768C111.024 47.5058 110.86 47.8977 110.675 48.2896C107.988 45.1278 104.624 42.5168 100.747 40.6895L100.52 40.5889C100.028 40.3612 99.4303 40.5677 99.2081 41.0603C98.9807 41.5528 99.187 42.1513 99.6789 42.3737L99.9063 42.4744C103.683 44.2433 106.941 46.8066 109.506 49.9314C108.951 50.5034 108.353 50.9536 107.676 51.282ZM65.1865 84.1501H98.6466V91.6283H65.1865V84.1501ZM65.1865 93.625H98.6466V153.139H93.5584L93.5636 100.792C93.5636 98.594 91.7812 96.8251 89.6019 96.8251H81.229C80.0389 96.8251 78.9704 97.36 78.2564 98.202C77.5371 97.36 76.4739 96.8251 75.2839 96.8251H65.1919L65.1865 93.625ZM51.1544 100.791C51.1544 99.6998 52.0377 98.7994 53.1432 98.7994H63.1982V162.051H60.4055L60.2468 136.413C60.2468 136.392 60.2679 136.37 60.2679 136.328C60.2679 136.307 60.2468 136.286 60.2468 136.243L60.2256 130.29C60.2468 130.206 60.2679 130.126 60.2679 130.041C60.2679 129.941 60.2468 129.856 60.2045 129.777L60.1621 123.84C60.141 119.608 57.4963 115.991 53.8044 114.513V109.889H56.063C56.6184 109.889 57.0468 109.439 57.0468 108.904V103.338C57.0468 102.782 56.5972 102.353 56.063 102.353H51.1545L51.1544 100.791ZM48.5096 109.911H51.8313V113.957C51.26 113.857 50.6835 113.798 50.0699 113.798H50.0065C49.4934 113.798 49.0015 113.862 48.4884 113.92V109.911L48.5096 109.911ZM70.1326 162.03V123.903C70.1326 120.164 72.6556 117.023 76.083 116.075C76.3686 115.991 76.6384 115.932 76.924 115.89C77.0086 115.869 77.088 115.869 77.1726 115.848C77.8919 115.747 78.6113 115.747 79.3253 115.848C79.4099 115.869 79.4892 115.869 79.5739 115.89C79.8595 115.932 80.1293 115.991 80.4149 116.075C83.8423 117.018 86.3653 120.164 86.3653 123.903V129.062H82.6946C82.1392 129.062 81.7108 129.512 81.7108 130.047C81.7108 130.603 82.1603 131.032 82.6946 131.032H86.3653V135.327H82.6946C82.1392 135.327 81.7108 135.777 81.7108 136.312C81.7108 136.868 82.1603 137.297 82.6946 137.297H86.3653V141.592H82.6946C82.1392 141.592 81.7108 142.043 81.7108 142.577C81.7108 143.134 82.1603 143.563 82.6946 143.563H86.3653V161.988H70.1328L70.1326 162.03Z" fill="#324664"/>
<path d="M61.0862 59.6224C61.3348 59.6224 61.5993 59.5218 61.7844 59.3364C62.1758 58.9445 62.1758 58.3302 61.7844 57.9383L60.2875 56.4394C59.8961 56.0475 59.2825 56.0475 58.8912 56.4394C58.4998 56.8314 58.4998 57.4457 58.8912 57.8376L60.3881 59.3364C60.5944 59.5218 60.8377 59.6224 61.0862 59.6224Z" fill="#324664"/>
<path d="M62.8908 50.1948H65.0065C65.5619 50.1948 65.9903 49.7446 65.9903 49.2097C65.9903 48.6536 65.5407 48.2246 65.0065 48.2246H62.8908C62.3354 48.2246 61.907 48.6748 61.907 49.2097C61.8858 49.7393 62.3354 50.1948 62.8908 50.1948Z" fill="#324664"/>
<path d="M59.605 42.267C59.8536 42.267 60.118 42.1663 60.3031 41.981L61.8001 40.4821C62.1915 40.0902 62.1915 39.4758 61.8001 39.084C61.4086 38.6921 60.7951 38.6921 60.4037 39.084L58.9068 40.5828C58.5154 40.9748 58.5154 41.5891 58.9068 41.981C59.092 42.161 59.3405 42.267 59.605 42.267Z" fill="#324664"/>
<path d="M51.2984 57.6314H51.4835H51.6686C56.3232 57.6314 60.0998 53.8499 60.0998 49.1892C60.0998 44.5445 56.3232 40.7471 51.6686 40.7471H51.4835H51.2984C46.6438 40.7471 42.8672 44.5286 42.8672 49.1892C42.8672 53.8499 46.6649 57.6314 51.2984 57.6314Z" fill="#324664"/>
<path d="M51.4799 38.9783C52.0353 38.9783 52.4637 38.5281 52.4637 37.9932L52.469 35.8747C52.469 35.3186 52.0194 34.8896 51.4852 34.8896C50.951 34.8896 50.4961 35.3239 50.4961 35.8747V37.9932C50.4961 38.5281 50.9298 38.9783 51.4799 38.9783Z" fill="#324664"/>
<path d="M52.4715 62.5411V60.4226C52.4715 59.8665 52.0219 59.4375 51.4877 59.4375C50.9535 59.4375 50.5039 59.8877 50.5039 60.4226V62.5411C50.5039 63.0972 50.9535 63.5262 51.4877 63.5262C52.0166 63.5262 52.4715 63.076 52.4715 62.5411Z" fill="#324664"/>
<path d="M42.6655 56.4404L41.1686 57.9393C40.7771 58.3312 40.7771 58.9667 41.1686 59.3374C41.3537 59.5228 41.6181 59.6234 41.8667 59.6234C42.1153 59.6234 42.3798 59.5228 42.5649 59.3374L44.0618 57.8385C44.4532 57.4466 44.4532 56.8111 44.0618 56.4404C43.6863 56.0485 43.0515 56.0485 42.6655 56.4404Z" fill="#324664"/>
<path d="M37.9838 50.1952H40.0995C40.6549 50.1952 41.0833 49.745 41.0833 49.2101C41.0833 48.654 40.6337 48.225 40.0995 48.225L37.9838 48.2197C37.4284 48.2197 37 48.6699 37 49.2048C37 49.7397 37.4284 50.1952 37.9838 50.1952Z" fill="#324664"/>
<path d="M42.6652 41.9547C42.8662 42.1613 43.1148 42.2672 43.3792 42.2672C43.649 42.2672 43.8711 42.1613 44.0774 41.9547C44.4688 41.5628 44.4688 40.9485 44.0774 40.5566L42.5805 39.079C42.1891 38.6924 41.5755 38.6924 41.1842 39.079C40.7928 39.4709 40.7928 40.0853 41.1842 40.4772L42.6652 41.9547Z" fill="#324664"/>
</svg>
