<svg width="208" height="210" viewBox="0 0 208 210" fill="none" xmlns="http://www.w3.org/2000/svg">
<rect width="208" height="210" fill="white"/>
<path d="M66.3963 116.714H54.3792C53.6688 116.714 53.0859 117.297 53.0859 118.007V133.204C53.0859 133.915 53.6688 134.498 54.3792 134.498H66.3908C67.1013 134.498 67.6841 133.915 67.6841 133.204V118.007C67.7063 117.291 67.129 116.714 66.3963 116.714Z" fill="#324664"/>
<path d="M72.6449 134.499H84.6564C85.3669 134.499 85.9497 133.916 85.9497 133.205V118.008C85.9497 117.298 85.3669 116.715 84.6564 116.715H72.6449C71.9344 116.715 71.3516 117.298 71.3516 118.008V133.205C71.3516 133.916 71.9344 134.499 72.6449 134.499Z" fill="#324664"/>
<path d="M83.5081 150.534C82.7977 150.534 82.2148 151.117 82.2148 151.827V154.758C82.2148 155.469 82.7977 156.052 83.5081 156.052C84.2186 156.052 84.8015 155.469 84.8015 154.758V151.827C84.8015 151.117 84.2186 150.534 83.5081 150.534Z" fill="#324664"/>
<path d="M165.911 114.687H164.401V113.849C164.401 112.062 163.002 110.619 161.259 110.491V65.3868C161.259 60.6743 157.407 56.8167 152.689 56.8167H125.452C120.74 56.8167 116.882 60.6688 116.882 65.3868V77.3151C115.05 77.3595 113.569 78.8415 113.569 80.6732V82.3106H113.502C107.063 82.3106 101.812 87.5448 101.812 94.0003V103.969H90.7442L86.8033 66.7854H86.8255C88.7849 66.7854 90.4001 65.1924 90.4001 63.2109V61.8121C90.4001 59.8527 88.8071 58.2375 86.8255 58.2375H83.856C84.0281 55.3734 83.9004 49.1289 80.2814 45.36C78.3221 43.3174 75.6966 42.3239 72.3773 42.3239C71.8833 38.4051 68.5474 35.369 64.4954 35.369C63.2243 35.369 61.9755 35.6687 60.8542 36.2515C59.3666 33.0211 56.1195 30.8896 52.4338 30.8896C49.0757 30.8896 46.0173 32.6769 44.3798 35.5633C41.7266 36.9232 40.0004 39.6763 40.0004 42.7348C40.0004 45.7933 41.721 48.5075 44.3687 49.8174C44.1523 50.7666 44.1079 51.7546 44.2189 52.7482C44.6685 57.1165 48.2875 60.6689 52.6558 61.0352C52.9167 61.0574 53.1942 61.0796 53.4551 61.0796C56.2527 61.0796 58.817 59.853 60.5821 57.7436C61.9587 58.7983 63.6404 59.381 65.4056 59.381C68.525 59.381 71.3669 57.5493 72.6603 54.6852C72.899 54.1467 73.282 53.7582 73.7371 53.6305C74.5531 53.3919 75.1137 53.5639 75.6077 54.2744C75.8019 54.5353 75.8852 54.8794 75.8852 55.2458V58.3041H72.4216C70.4622 58.3041 68.847 59.8971 68.847 61.8787V63.2774C68.847 65.2368 70.4401 66.852 72.4216 66.852H72.4438L68.5029 104.036L43.2083 104.03C42.4979 104.03 41.915 104.613 41.915 105.324V111.823C41.915 112.534 42.4979 113.117 43.2083 113.117H46.8496V161.429H41.2933C40.5828 161.429 40 162.012 40 162.723C40 163.433 40.5828 164.016 41.2933 164.016H48.0984C48.1206 164.016 48.1428 164.038 48.165 164.038L174.22 164.016C174.931 164.016 175.513 163.433 175.513 162.723V124.29C175.513 118.995 171.206 114.687 165.911 114.687ZM104.593 118.972H109.05C108.6 120.288 108.339 121.709 108.339 123.168C108.339 124.634 108.6 126.055 109.05 127.365H104.593V118.972ZM110.943 123.168C110.943 117.44 115.594 112.789 121.322 112.789C127.051 112.789 131.702 117.44 131.702 123.168C131.702 128.897 127.051 133.548 121.322 133.548C115.594 133.548 110.943 128.897 110.943 123.168ZM133.573 118.972H138.18V127.37H133.573C134.022 126.055 134.283 124.634 134.283 123.174C134.283 121.709 134.022 120.288 133.573 118.972ZM125.713 77.3153V65.6479H152.434V110.496C150.692 110.624 149.293 112.067 149.293 113.854V114.693H147.783C145.03 114.693 142.532 115.875 140.767 117.751L140.762 96.0869C140.762 89.1985 135.661 83.4704 129.027 82.499V80.6895C129.027 78.8411 127.562 77.3319 125.713 77.3153ZM140.783 137.168H147.521C146.96 138.417 146.661 139.815 146.661 141.258C146.661 142.724 146.983 144.1 147.521 145.349H140.783V137.168ZM149.242 141.258C149.242 137.062 152.644 133.66 156.841 133.66C161.037 133.66 164.439 137.062 164.439 141.258C164.439 145.455 161.037 148.857 156.841 148.857C152.667 148.857 149.242 145.455 149.242 141.258ZM166.188 137.168H172.927V145.371H166.188C166.749 144.123 167.048 142.724 167.048 141.281C167.048 139.793 166.727 138.417 166.188 137.168ZM172.927 124.29V134.559H164.528C162.658 132.427 159.921 131.051 156.863 131.051C153.805 131.051 151.074 132.405 149.198 134.559H140.799V124.29C140.799 120.416 143.941 117.274 147.815 117.274H165.921C169.785 117.291 172.927 120.438 172.927 124.29ZM161.798 113.849V114.687H151.895V113.849C151.895 113.416 152.239 113.072 152.672 113.072H161.026C161.453 113.072 161.798 113.416 161.798 113.849ZM125.452 59.4194H152.689C155.981 59.4194 158.651 62.0892 158.651 65.3807V110.464H155.009L155.015 65.3864C155.015 64.0931 153.96 63.0386 152.667 63.0386H125.453C124.159 63.0386 123.105 64.0932 123.105 65.3864V77.2925H119.464V65.3864C119.491 62.0893 122.161 59.4194 125.452 59.4194ZM116.177 80.6727C116.177 80.2398 116.521 79.8956 116.954 79.8956H125.652C126.085 79.8956 126.429 80.2398 126.429 80.6727V82.3101H116.16L116.155 80.6727H116.177ZM113.529 84.9134H127.029C133.184 84.9134 138.202 89.9311 138.202 96.0869V116.391H132.346C130.065 112.689 125.974 110.213 121.323 110.213C116.671 110.213 112.58 112.689 110.299 116.391H104.443V93.9995C104.443 89.004 108.512 84.9134 113.529 84.9134ZM77.6999 52.7471C76.5398 51.154 74.8801 50.5713 72.9874 51.1319C71.8273 51.476 70.8338 52.3808 70.2731 53.6075C69.4127 55.5225 67.4978 56.7714 65.3885 56.7714C63.84 56.7714 62.3524 56.0831 61.3421 54.9008C61.0645 54.5789 60.6538 54.4068 60.243 54.4512C59.8101 54.4956 59.4437 54.7288 59.2328 55.0951C57.9173 57.3765 55.4862 58.6697 52.8606 58.4311C49.719 58.1702 47.1101 55.6113 46.7883 52.4697C46.6828 51.4595 46.8105 50.4437 47.1546 49.5002C47.2823 49.1783 47.2601 48.7897 47.088 48.49C46.9382 48.168 46.6551 47.9294 46.3109 47.8239C44.0907 47.1301 42.5865 45.0597 42.5865 42.734C42.5865 40.5804 43.8798 38.6432 45.8613 37.805C46.1611 37.6773 46.3942 37.4608 46.5274 37.1833C47.6709 34.9243 49.9522 33.5255 52.4888 33.5255C55.5694 33.5255 58.2393 35.6126 58.9719 38.6043C59.0774 39.0372 59.4049 39.4036 59.8323 39.5312C60.2652 39.6589 60.737 39.5756 61.0812 39.2925C62.0525 38.4766 63.2793 38.0214 64.5448 38.0214C67.4921 38.0214 69.8845 40.4138 69.8845 43.3611V43.7497C69.8845 44.116 70.0343 44.4602 70.3174 44.721C70.595 44.9597 70.9391 45.0874 71.3054 45.043C74.4083 44.7432 76.795 45.4759 78.4546 47.1966C81.4241 50.2994 81.4464 55.8723 81.2965 58.2868L78.4768 58.2812V55.2229C78.4768 54.3181 78.2161 53.4576 77.6999 52.7471ZM71.4555 63.2322V61.8335C71.4555 61.295 71.8884 60.8621 72.4268 60.8621H86.8752C87.4136 60.8621 87.8465 61.2951 87.8465 61.8335V63.2322C87.8465 63.7706 87.4136 64.2036 86.8752 64.2036H72.4268C71.8884 64.198 71.4555 63.7706 71.4555 63.2322ZM75.0522 66.8068H84.2218L88.1627 103.991H71.1339L75.0522 66.8068ZM44.5015 106.571H101.835V110.468H44.5015V106.571ZM49.4527 113.071H101.834V116.712H90.8989C90.1885 116.712 89.6056 117.295 89.6056 118.005V133.203C89.6056 133.913 90.1885 134.496 90.8989 134.496H101.834V161.427H89.4558V148.705C89.4558 143.299 85.043 138.886 79.6367 138.886C74.2303 138.886 69.8175 143.299 69.8175 148.705V161.427H49.4523L49.4527 113.071ZM86.8752 161.428H72.4269V148.706C72.4269 144.72 75.6796 141.473 79.6593 141.473C83.6446 141.473 86.8917 144.704 86.8917 148.706V161.428H86.8752ZM104.443 161.428V133.807C104.531 133.635 104.615 133.418 104.615 133.202V129.971H110.298C112.58 133.674 116.671 136.149 121.322 136.149C125.973 136.149 130.064 133.674 132.346 129.971H138.202V161.427L104.443 161.428ZM140.782 161.428V147.951H149.18C151.051 150.082 153.788 151.459 156.846 151.459C159.904 151.459 162.635 150.104 164.511 147.951H172.909V161.428H140.782Z" fill="#324664"/>
<path d="M156.846 146.748C159.366 146.748 161.408 144.706 161.408 142.186C161.408 140.01 158.477 136.996 157.578 136.113C157.317 135.875 156.995 135.747 156.629 135.747C156.285 135.747 155.941 135.897 155.702 136.158C154.903 137.018 152.277 140.032 152.277 142.164C152.3 144.7 154.348 146.748 156.846 146.748ZM156.712 138.994C157.834 140.243 158.8 141.642 158.8 142.18C158.8 143.257 157.917 144.14 156.84 144.14C155.763 144.14 154.881 143.257 154.881 142.18C154.886 141.603 155.724 140.243 156.712 138.994Z" fill="#324664"/>
<path d="M121.298 129.974C124.379 129.974 126.876 127.477 126.876 124.396C126.876 121.643 122.786 117.53 121.97 116.731C121.709 116.492 121.387 116.364 121.021 116.364C120.676 116.364 120.332 116.514 120.094 116.775C119.361 117.574 115.703 121.66 115.703 124.396C115.742 127.477 118.24 129.974 121.298 129.974ZM121.126 119.6C122.652 121.282 124.29 123.43 124.29 124.424C124.29 126.061 122.958 127.393 121.32 127.393C119.683 127.393 118.351 126.061 118.351 124.424C118.323 123.386 119.788 121.232 121.126 119.6Z" fill="#324664"/>
</svg>
