<svg width="146" height="175" viewBox="0 0 146 175" fill="none" xmlns="http://www.w3.org/2000/svg">
<rect width="146" height="175" fill="white"/>
<g clip-path="url(#clip0_1157_5490)">
<path d="M27.8401 55.2112L59.7552 49L62.3501 62.1697C61.3751 61.9876 60.3703 62.0425 59.4212 62.3295C57.8539 62.7458 56.5139 63.7575 55.6897 65.1467C54.8656 66.5358 54.6233 68.1913 55.0152 69.7563C55.407 71.3213 56.4015 72.6707 57.7845 73.5137C59.1675 74.3567 60.8282 74.6258 62.4089 74.2631C63.1794 74.1151 63.9143 73.8218 64.5739 73.3991L67.1688 86.5718L53.9685 89.1424C54.5579 90.0914 54.8696 91.1849 54.8685 92.3003C54.8639 93.7204 54.3704 95.0963 53.4701 96.1989C52.5698 97.3015 51.317 98.0644 49.9199 98.3608C48.9396 98.5604 47.9252 98.5206 46.9638 98.2447C46.0024 97.9689 45.1227 97.4653 44.4001 96.7771C43.6774 96.0889 43.1335 95.2367 42.815 94.2936C42.4965 93.3506 42.4129 92.3447 42.5713 91.3624L29.371 93.9299L23.1111 62.2035C22.8067 60.6529 23.1337 59.0456 24.0204 57.7346C24.9071 56.4236 26.2808 55.516 27.8401 55.2112Z" fill="#324664"/>
<path d="M28.0586 134.078V102.715H41.5589C41.1923 103.631 41.0533 104.621 41.1537 105.602C41.2706 107.205 42.0141 108.699 43.225 109.764C44.4359 110.829 46.018 111.38 47.6326 111.3C49.2473 111.219 50.7661 110.514 51.8639 109.334C52.9618 108.154 53.5514 106.594 53.5066 104.987C53.5065 104.212 53.3574 103.444 53.0674 102.724H66.5708V116.097C67.6184 115.702 68.756 115.606 69.8554 115.82C71.2555 116.098 72.5179 116.844 73.4332 117.933C74.3484 119.023 74.8616 120.391 74.8875 121.81C74.8966 122.805 74.6626 123.788 74.2055 124.673C73.7485 125.559 73.0821 126.321 72.2635 126.894C71.445 127.467 70.4988 127.834 69.5061 127.963C68.5135 128.093 67.5041 127.981 66.5646 127.637V141.009H35.0175C34.1026 141.009 33.1967 140.83 32.3516 140.481C31.5065 140.133 30.7388 139.622 30.0924 138.979C29.4461 138.335 28.9338 137.571 28.5848 136.73C28.2358 135.889 28.057 134.988 28.0586 134.078Z" fill="#BE5B23"/>
<path d="M98.3497 141H66.3789V127.575C67.2998 127.941 68.2963 128.08 69.2831 127.981C70.1562 127.883 70.9983 127.602 71.7535 127.156C72.5088 126.709 73.1597 126.108 73.663 125.392C74.1663 124.677 74.5105 123.862 74.6726 123.004C74.8347 122.145 74.811 121.262 74.6031 120.414C74.3951 119.565 74.0078 118.77 73.4668 118.082C72.9257 117.394 72.2435 116.828 71.4654 116.423C70.6873 116.017 69.8313 115.781 68.9542 115.73C68.0772 115.679 67.1992 115.814 66.3789 116.127V102.711H79.8297C79.4353 101.666 79.3411 100.532 79.5576 99.4366C79.8375 98.0449 80.5876 96.7903 81.6835 95.8808C82.7794 94.9714 84.1552 94.4619 85.5824 94.4368C86.3999 94.4287 87.211 94.5818 87.9686 94.8872C88.7262 95.1926 89.4155 95.6443 89.9964 96.2162C90.5774 96.788 91.0386 97.4687 91.3533 98.2189C91.668 98.969 91.83 99.7738 91.83 100.587C91.8282 101.31 91.6963 102.028 91.4403 102.705H104.891V134.493C104.892 135.347 104.723 136.193 104.394 136.983C104.066 137.772 103.584 138.489 102.976 139.094C102.369 139.698 101.648 140.177 100.854 140.504C100.06 140.831 99.209 141 98.3497 141Z" fill="#324664"/>
<path d="M110.864 70.6654L115.014 101.875L101.628 103.628C101.873 102.655 101.874 101.638 101.633 100.665C101.391 99.6913 100.914 98.7914 100.243 98.0433C99.5715 97.2953 98.7264 96.7217 97.7811 96.3726C96.8358 96.0235 95.819 95.9095 94.8192 96.0405C93.8195 96.1714 92.8671 96.5434 92.045 97.1239C91.2229 97.7045 90.556 98.4761 90.1025 99.3715C89.6489 100.267 89.4224 101.259 89.4427 102.261C89.463 103.264 89.7295 104.246 90.2189 105.122L76.833 106.875L75.0763 93.6193C74.0856 94.1441 72.9677 94.3847 71.8474 94.3142C70.423 94.2211 69.0735 93.6463 68.0231 92.6853C66.9727 91.7244 66.2846 90.4351 66.073 89.0316C65.9581 88.2264 66.0051 87.4065 66.211 86.6195C66.417 85.8324 66.7779 85.0938 67.273 84.4464C67.768 83.7989 68.3873 83.2555 69.095 82.8476C69.8027 82.4397 70.5847 82.1755 71.3958 82.0701C72.118 81.9757 72.8513 82.0111 73.5608 82.1746L71.8041 68.9158L103.197 64.8047C104.995 64.5726 106.812 65.0594 108.25 66.1582C109.687 67.257 110.627 68.8781 110.864 70.6654Z" fill="#BF5B24"/>
</g>
<defs>
<clipPath id="clip0_1157_5490">
<rect width="92" height="92" fill="white" transform="translate(23 49)"/>
</clipPath>
</defs>
</svg>
