<svg width="149" height="195" viewBox="0 0 149 195" fill="none" xmlns="http://www.w3.org/2000/svg">
<rect width="149" height="195" fill="white"/>
<g clip-path="url(#clip0_1157_5492)">
<path d="M88.0922 137.993C96.8926 131.973 104.75 122.164 104.75 109.249C104.75 91.9229 90.7568 77.8779 73.4999 77.8779C56.2431 77.8779 42.25 91.9253 42.25 109.249C42.25 122.166 45.2579 127.452 58.609 137.642C59.7526 138.515 60.4158 141.833 60.7738 144.505C60.12 144.734 59.6567 144.977 59.441 145.233C56.9851 148.094 61.7663 156.528 64.141 157.656C67.8686 159.422 80.2672 159.481 83.1846 157.656C85.333 156.312 90.8867 145.996 86.7517 144.466C86.55 144.391 86.3401 144.32 86.1232 144.252C86.3989 141.727 86.9592 138.768 88.0922 137.993Z" fill="#FFBF9B"/>
<path d="M39.4289 101.284L29.8983 102.76L28.5349 102.97C28.1433 103.029 27.9264 103.524 28.0228 103.876C28.1374 104.296 28.5319 104.451 28.9247 104.39L38.4553 102.914L39.8188 102.705C40.2109 102.646 40.4273 102.152 40.3309 101.8C40.2162 101.379 39.8223 101.223 39.4289 101.284Z" fill="#BF5B24"/>
<path d="M40.37 92.7672L33.4405 91.7337C33.0489 91.6746 32.6521 91.8316 32.538 92.2478C32.4433 92.5948 32.6556 93.0941 33.0501 93.1532L39.9802 94.1866C40.3718 94.2457 40.7687 94.0887 40.8821 93.6726C40.9774 93.3255 40.7645 92.8256 40.37 92.7672Z" fill="#BF5B24"/>
<path d="M44.3001 85.3568L35.3633 77.3705C34.6578 76.7425 33.6189 77.7801 34.3262 78.4116L43.2647 86.398C43.9679 87.026 45.0092 85.9884 44.3001 85.3568Z" fill="#BF5B24"/>
<path d="M50.074 79.4286C48.6778 77.7123 47.282 75.9945 45.8866 74.2754L45.2846 73.5352C45.0341 73.2271 44.5079 73.2738 44.2474 73.5352C43.9441 73.8398 43.9964 74.2671 44.2474 74.5764L48.4366 79.7296L49.038 80.4698C49.2885 80.7779 49.8153 80.7313 50.0752 80.4698C50.378 80.1652 50.325 79.7379 50.074 79.4286Z" fill="#BF5B24"/>
<path d="M58.7088 74.1661L53.4361 65.1787L52.7053 63.9304C52.2267 63.1147 50.9585 63.8542 51.4388 64.6735L56.7115 73.6608C56.9561 74.0767 57.2003 74.4928 57.4441 74.9091C57.9209 75.7248 59.1891 74.9853 58.7088 74.1661Z" fill="#BF5B24"/>
<path d="M66.2956 72.343C65.7535 70.5283 65.2112 68.7133 64.6687 66.8982L64.4335 66.1067C64.1631 65.2013 62.7467 65.5867 63.0189 66.498C63.5618 68.3131 64.1043 70.1281 64.6464 71.9428L64.8816 72.7343C65.152 73.6397 66.5678 73.2537 66.2956 72.343Z" fill="#BF5B24"/>
<path d="M74.3002 71.5045C73.9804 67.9283 73.8334 64.3339 73.6758 60.7477C73.6605 60.4018 73.6458 60.0559 73.6317 59.71C73.5929 58.7657 72.1266 58.761 72.1648 59.71C72.2824 62.6411 72.427 65.5727 72.6122 68.5008C72.6757 69.5042 72.7439 70.5047 72.8339 71.5045C72.8692 71.9005 73.1455 72.2405 73.567 72.2405C73.9363 72.2405 74.3361 71.9029 74.3002 71.5045Z" fill="#BF5B24"/>
<path d="M107.179 103.738L116.709 105.21L118.073 105.42C118.464 105.479 118.862 105.321 118.975 104.906C119.071 104.557 118.858 104.062 118.463 104.001L108.933 102.525L107.569 102.315C107.178 102.256 106.781 102.414 106.667 102.829C106.571 103.18 106.785 103.677 107.179 103.738Z" fill="#BF5B24"/>
<path d="M107.018 95.2201L113.948 94.1866C114.34 94.1276 114.556 93.6312 114.461 93.2812C114.343 92.8598 113.951 92.7081 113.558 92.7671L106.628 93.8006C106.236 93.8596 106.021 94.356 106.116 94.706C106.232 95.128 106.625 95.2791 107.018 95.2201Z" fill="#BF5B24"/>
<path d="M102.531 86.3979L111.473 78.4116C112.178 77.7806 111.139 76.7424 110.436 77.3704L101.494 85.3568C100.787 85.9877 101.828 87.0259 102.531 86.3979Z" fill="#BF5B24"/>
<path d="M96.7547 78.9522L101.471 73.7293L102.151 72.9791C102.417 72.684 102.441 72.2289 102.151 71.9379C101.881 71.667 101.381 71.6428 101.114 71.9379L96.3978 77.1608C96.1721 77.4111 95.9461 77.6612 95.7199 77.911C95.4542 78.2061 95.4307 78.6618 95.7199 78.9522C95.988 79.2237 96.4878 79.2479 96.7547 78.9522Z" fill="#BF5B24"/>
<path d="M89.0178 74.9094L94.2905 65.9221L95.0225 64.6738C95.5028 63.8557 94.2352 63.1138 93.756 63.9307L88.4833 72.918L87.7514 74.1663C87.271 74.9844 88.5386 75.7263 89.0178 74.9094Z" fill="#BF5B24"/>
<path d="M81.5792 72.7336C82.1213 70.9189 82.6636 69.1039 83.206 67.2888L83.4412 66.4973C83.7128 65.5878 82.2977 65.1988 82.0301 66.106C81.4873 67.9211 80.945 69.736 80.4033 71.5508C80.3249 71.8144 80.2465 72.0783 80.1681 72.3423C79.893 73.253 81.3081 73.6408 81.5792 72.7336Z" fill="#BF5B24"/>
<path d="M83.7511 114.722C84.8776 114.4 85.9547 113.856 86.8813 113.224C88.9215 111.832 90.0339 109.24 89.5271 106.791C89.3019 105.707 88.7481 104.591 87.7874 103.986C86.7291 103.32 85.4944 103.538 84.4596 104.14C84.0488 104.382 83.6643 104.666 83.3125 104.988C83.8869 107.797 84.1198 110.668 83.9222 113.529C83.8923 113.93 83.8351 114.329 83.7511 114.722Z" fill="#FFE1C6"/>
<path d="M78.0382 130.741C77.9712 129.035 77.8935 127.328 77.823 125.621C76.6647 127.319 75.8516 128.651 76.0074 129.346C76.2673 130.507 77.0657 131.275 78.0782 131.766C78.0652 131.424 78.0519 131.082 78.0382 130.741Z" fill="#FFEDDC"/>
<path d="M99.175 102.048C96.9126 95.9177 92.4506 90.719 87.0192 87.108C85.079 85.8195 82.5637 84.7064 80.52 85.8183C78.815 86.7479 78.1518 88.9572 78.397 90.8943C78.6421 92.8314 79.5987 94.5855 80.4224 96.3515C81.4824 98.6132 82.3264 100.971 82.943 103.392C83.8578 102.693 84.9238 102.193 86.0797 102.106C87.529 101.996 88.8795 102.719 89.7579 103.847C91.5752 106.179 91.4558 109.614 89.9625 112.08C88.579 114.363 85.9286 115.752 83.388 116.319C83.3551 116.326 83.3216 116.33 83.2887 116.337C82.3985 118.843 80.7323 121.399 79.2142 123.608C79.2595 124.691 79.31 125.774 79.353 126.854C79.4235 128.66 79.4945 130.466 79.5658 132.273C80.9681 132.592 82.4814 132.577 83.5286 132.43C89.9789 131.529 95.6991 127.008 98.5371 121.125C101.375 115.242 101.437 108.178 99.175 102.048Z" fill="#FFE1C6"/>
<path d="M89.7589 103.844C88.8805 102.716 87.53 101.994 86.0808 102.103C84.5327 102.221 83.1463 103.077 82.0686 104.159C80.0661 106.166 78.8866 108.936 78.2905 111.677C78.1294 112.416 78.0059 113.161 77.9112 113.909C76.6585 113.171 75.5905 112.154 74.7886 110.938C75.3624 110.244 75.8669 109.494 76.295 108.7C77.0005 107.379 77.5244 105.93 77.7572 104.445C77.9924 102.934 77.7972 101.062 76.2379 100.321C74.8092 99.6415 73.4323 100.557 72.7285 101.812C72.0247 103.068 71.8025 104.645 71.8289 106.071C71.8603 107.696 72.2598 109.294 72.9972 110.741C72.6162 111.141 72.2101 111.515 71.7813 111.863C71.235 112.305 70.6579 112.708 70.0545 113.067C69.7464 111.169 69.2243 109.319 68.3665 107.568C67.1365 105.059 64.8976 102.233 61.8726 102.098C58.7471 101.959 56.9627 105.203 56.9609 107.972C56.9609 111.028 58.7653 113.806 61.4881 115.137C62.6817 115.72 63.9775 116.048 65.3098 116.027C66.5292 116.007 67.7204 115.723 68.8504 115.278C69.0421 117.561 68.9797 119.882 68.8992 122.097C68.657 128.766 68.3759 135.44 68.1137 142.112L68.0702 143.227C68.5507 143.183 69.0407 143.144 69.5401 143.109C69.7752 137.128 70.0104 131.147 70.2456 125.166C70.3802 121.733 70.6236 118.121 70.2621 114.627C71.5539 113.942 72.7394 113.072 73.7809 112.043C74.2529 112.718 74.8016 113.335 75.416 113.882C76.1258 114.513 76.9122 115.051 77.7566 115.484C77.6296 117.14 77.6167 118.808 77.6537 120.465C77.729 123.889 77.9065 127.317 78.0412 130.741L78.4733 141.745L78.5245 143.047C79.0219 143.076 79.5118 143.112 79.9943 143.155L79.3541 126.853C79.2365 123.902 79.0601 120.951 79.1077 117.996C79.1179 117.357 79.1418 116.717 79.1794 116.076C80.5264 116.512 81.9598 116.635 83.3891 116.317C85.9296 115.75 88.5801 114.361 89.9636 112.078C91.4569 109.611 91.5763 106.176 89.7589 103.844ZM64.3361 114.51C61.9926 114.215 59.7466 112.6 58.8853 110.373C58.081 108.294 58.2333 105.193 60.3687 103.934C62.714 102.551 65.1787 105.141 66.3328 106.944C67.6586 109.017 68.3459 111.354 68.6846 113.773C67.3053 114.373 65.8207 114.694 64.3361 114.51ZM73.778 103.006C74.0719 102.253 74.8851 101.076 75.777 101.753C76.8235 102.548 76.3485 104.303 76.0633 105.354C75.6519 106.859 74.962 108.273 74.0296 109.522C73.1671 107.494 72.9748 105.044 73.778 103.004V103.006ZM86.8815 113.226C85.0636 114.465 82.6654 115.372 80.4541 114.909C80.0649 114.826 79.6823 114.715 79.3094 114.575C79.4705 113.096 79.7427 111.631 80.2036 110.212C80.9521 107.907 82.3038 105.396 84.4568 104.141C85.491 103.539 86.7257 103.321 87.7846 103.987C88.7453 104.592 89.2992 105.708 89.5243 106.792C90.0341 109.239 88.9241 111.831 86.8815 113.224V113.226Z" fill="#BF5B24"/>
<path d="M59.4404 145.23C56.9846 148.094 61.7658 156.528 64.1405 157.655C67.8681 159.422 80.2667 159.481 83.1841 157.655C85.3324 156.311 90.8862 145.996 86.7511 144.465C79.2554 141.686 61.2237 143.15 59.4404 145.23Z" fill="#324664"/>
<path d="M60.5188 86.9051L60.8851 86.8927L60.7387 85.8079C58.288 86.8222 56.0759 88.3404 54.2449 90.2647C53.7569 90.7799 54.5335 91.5632 55.0227 91.0455C56.7147 89.2504 58.761 87.8292 61.0309 86.8726C61.2843 86.767 61.469 86.561 61.4249 86.2671C61.3861 86.0056 61.1632 85.7784 60.8851 85.7884L60.5188 85.8008C59.8127 85.825 59.8098 86.9293 60.5188 86.9051Z" fill="white"/>
<path d="M51.4503 94.2979C49.4271 96.2645 48.1719 98.8904 47.414 101.584C46.7032 104.109 46.3851 106.765 46.391 109.386C46.3846 110.492 46.4632 111.597 46.6262 112.691C46.672 112.986 47.0377 113.15 47.3023 113.076C47.6151 112.989 47.7333 112.694 47.6868 112.397C47.6333 112.06 47.5933 111.692 47.5598 111.265C47.521 110.769 47.501 110.272 47.4916 109.774C47.4738 108.62 47.5235 107.465 47.6404 106.317C47.9026 103.714 48.5023 101.075 49.6535 98.7175C50.3114 97.3706 51.1498 96.1258 52.2258 95.0805C52.7373 94.5835 51.9588 93.8027 51.4503 94.2979Z" fill="white"/>
<path d="M56.6893 92.5687C55.0176 94.071 53.6698 95.9009 52.7289 97.9457C52.6049 98.2166 52.6525 98.5406 52.9265 98.7011C53.1616 98.8404 53.5538 98.7749 53.6784 98.5028C54.5762 96.5424 55.866 94.7883 57.4678 93.3496C57.9969 92.875 57.2155 92.0959 56.6893 92.5687Z" fill="white"/>
<path d="M59.856 91.5408C60.5616 91.5408 60.5651 90.4365 59.856 90.4365C59.147 90.4365 59.147 91.5408 59.856 91.5408Z" fill="white"/>
<path d="M62.4183 89.8436C63.1238 89.8436 63.1268 88.7393 62.4183 88.7393C61.7098 88.7393 61.7092 89.8436 62.4183 89.8436Z" fill="white"/>
<path d="M49.9779 108.799C49.4322 111.805 49.658 114.9 50.6341 117.794C50.8616 118.463 51.9276 118.175 51.6924 117.499C50.7662 114.798 50.5402 111.905 51.0356 109.092C51.1632 108.398 50.1032 108.1 49.9779 108.799Z" fill="white"/>
<path d="M82.7907 147.267C77.963 148.258 73.0004 148.397 68.125 147.68C66.7531 147.477 65.3928 147.207 64.0441 146.869C63.4943 146.732 63.2597 147.584 63.8089 147.721C68.706 148.942 73.7775 149.298 78.7962 148.773C80.2151 148.623 81.6242 148.404 83.0236 148.117C83.5792 148.004 83.3446 147.152 82.7907 147.267Z" fill="white"/>
<path d="M83.0678 151.017L76.8467 151.013C76.2805 151.013 76.28 151.898 76.8467 151.898L83.0678 151.902C83.6346 151.9 83.6346 151.017 83.0678 151.017Z" fill="white"/>
<path d="M71.9338 151.194L69.1117 151.089C68.9952 151.09 68.8838 151.137 68.8015 151.219C68.7192 151.302 68.6726 151.414 68.6719 151.531C68.6741 151.647 68.7212 151.758 68.8032 151.841C68.8852 151.923 68.9957 151.97 69.1117 151.972L71.9338 152.077C72.0502 152.076 72.1615 152.03 72.2438 151.947C72.3261 151.864 72.3729 151.753 72.3742 151.636C72.3718 151.52 72.3246 151.408 72.2425 151.326C72.1605 151.244 72.0498 151.196 71.9338 151.194Z" fill="white"/>
<path d="M65.4487 151.967C66.0149 151.967 66.0155 151.082 65.4487 151.082C64.882 151.082 64.8814 151.967 65.4487 151.967Z" fill="white"/>
<path d="M63.2026 151.916C63.7688 151.916 63.77 151.03 63.2026 151.03C62.6353 151.03 62.6359 151.916 63.2026 151.916Z" fill="white"/>
<path d="M78.7245 154.197L69.7877 153.94C69.2215 153.923 69.2221 154.807 69.7877 154.825L78.7245 155.083C79.2907 155.097 79.2907 154.214 78.7245 154.197Z" fill="white"/>
</g>
<defs>
<clipPath id="clip0_1157_5492">
<rect width="91" height="100" fill="white" transform="translate(28 59)"/>
</clipPath>
</defs>
</svg>
