<svg width="168" height="175" viewBox="0 0 168 175" fill="none" xmlns="http://www.w3.org/2000/svg">
<rect width="168" height="175" fill="white"/>
<g clip-path="url(#clip0_1157_5488)">
<path d="M97.9986 65.666H63.6523V94.602H97.9986V65.666Z" fill="#450100"/>
<path d="M87.3834 83.9941H73.8906V91.8288H87.3834V83.9941Z" fill="#ECB79E"/>
<g style="mix-blend-mode:multiply">
<path d="M77.6657 90.0041C79.7743 89.9318 81.8267 89.3024 83.6161 88.1792C84.9026 87.3818 86.013 86.3281 86.8788 85.083C87.0422 84.8458 87.2178 84.5782 87.3812 84.2923V84.0186H73.8945V89.8763C75.1471 90.0068 76.4072 90.0495 77.6657 90.0041Z" fill="#D1D3D4"/>
</g>
<path d="M97.3448 62.674C97.3448 50.113 89.8569 42.8987 80.5954 42.8379H80.4017C71.1463 42.9291 63.6523 50.113 63.6523 62.674C63.6523 78.9577 75.317 88.4591 80.4744 88.5017H80.5107C85.6741 88.4591 97.3448 78.9577 97.3448 62.674Z" fill="#ECB79E"/>
<path d="M95.689 67.321L94.7266 74.7238C98.5038 76.3966 99.097 67.686 99.097 67.686C98.2254 65.5144 95.689 67.321 95.689 67.321Z" fill="#ECB79E"/>
<path d="M62.3359 67.686C62.3359 67.686 62.9292 76.3844 66.6822 74.7238L65.7439 67.321C65.7439 67.321 63.2076 65.5144 62.3359 67.686Z" fill="#ECB79E"/>
<path d="M73.8418 91.2324L57.6009 96.2812C57.6009 96.2812 51.9229 97.2909 50.4762 103.234L47.9883 114H113L110.519 103.234C109.072 97.2909 103.394 96.2812 103.394 96.2812L87.165 91.2324H73.8418Z" fill="#ECB79E"/>
<path d="M96.5291 94.146L103.393 96.281C103.393 96.281 109.071 97.2908 110.518 103.234L113 114H48L50.4879 103.234C51.9346 97.2908 57.6005 96.281 57.6005 96.281L64.5073 94.1338C64.5073 94.1338 64.5073 109.414 80.4879 109.803C80.5 109.803 96.2143 111.427 96.5291 94.146Z" fill="white"/>
<path d="M65.0778 49.6865C64.4282 52.1505 64.0227 54.6729 63.8672 57.2171V61.8583H68.3224L68.9761 56.183L69.2788 61.8583H69.9265L70.3018 58.0565V61.8583H72.1904L72.6747 58.0565V61.8583H74.6117L75.2171 57.2171V61.8583H77.1783V58.0565L77.7837 61.8583H79.182L79.7207 59.0237L79.9992 60.0699V61.8583H84.4544L85.1081 56.183L85.4108 61.8583H86.0524L86.4338 58.0565V61.8583H88.3163L88.8006 58.0565V61.8583H90.7437L91.3188 57.2171V61.8583H93.28V58.0565L93.8854 61.8583H95.2897L95.8224 59.0237L96.573 61.8583H97.136C97.1671 57.773 96.7736 53.6957 95.9616 49.6926L65.0778 49.6865Z" fill="#BF5B24"/>
<path d="M65.0781 50.5748C65.0781 50.5748 71.2706 37.6306 80.5019 42.0163C80.5019 42.0163 90.1266 36.6512 95.968 50.5748H65.0781Z" fill="#BF5B24"/>
<path d="M93.4905 49.3336C92.5462 50.5015 92.1346 52.6061 92.0257 54.1451C91.8198 57.0709 93.7448 57.6245 95.9663 59.0113C93.3997 60.1428 92.0862 66.3898 96.0571 66.6392C92.9155 68.5492 91.9893 73.677 95.6455 75.2647C94.6978 75.2942 93.7873 75.6422 93.0597 76.2532C92.3322 76.8641 91.8295 77.7026 91.6322 78.6345C91.2206 80.2222 91.4506 83.2818 93.6721 83.1602C92.2496 83.9084 91.9349 86.0678 92.1528 87.5459C92.4978 89.8269 94.2472 90.5326 96.2024 90.8914C96.0329 92.3939 94.6891 94.3465 95.5244 95.9159C96.4143 97.5947 99.6891 99.4074 101.578 98.5071C100.27 101.019 106.42 101.445 107.698 100.642C109.514 99.4865 109.883 94.9426 106.971 95.9219C110.052 97.9049 112.891 91.2382 108.363 90.3318C108.66 91.445 109.193 90.3318 109.574 89.687C110.294 88.5617 111.566 85.1371 111.093 83.7502C110.797 82.8864 107.129 79.4922 106.771 81.7794C109.041 82.4971 109.023 78.2635 108.727 77.0348C108.454 75.9216 105.748 73.087 105.349 75.3133C106.947 74.0055 107.922 69.93 107.201 68.0139C106.917 67.2657 104.695 64.3034 104.126 66.1404C105.119 64.2608 104.78 62.1987 103.83 60.3982C103.484 59.7535 102.177 57.6062 101.717 59.2607C104.32 56.8945 99.6104 51.2497 98.4421 52.5696C99.9978 50.5745 94.3743 44.9418 92.2073 44.9053C91.4385 44.9053 93.9143 49.4187 93.1334 49.656" fill="#BF5B24"/>
<path d="M67.7953 48.1719C68.7396 49.3398 69.1512 51.4445 69.2602 52.9834C69.472 55.9093 67.5471 56.4628 65.3195 57.8497C67.8921 58.9568 69.2057 65.1978 65.2287 65.435C68.3703 67.3511 69.2965 72.4728 65.6403 74.0604C66.588 74.0899 67.4985 74.438 68.2261 75.0489C68.9537 75.6599 69.4563 76.4984 69.6536 77.4303C70.0713 79.0179 69.8352 82.0776 67.6137 81.956C69.0362 82.7041 69.351 84.8635 69.1331 86.3417C68.788 88.6288 67.0386 89.3283 65.0834 89.6872C65.2529 91.1897 66.5967 93.1484 65.7674 94.7116C64.8716 96.3966 61.5967 98.2032 59.7142 97.309C61.0156 99.8151 54.8716 100.241 53.5883 99.4441C51.7723 98.2883 51.403 93.7384 54.3147 94.7238C51.2335 96.7007 48.3946 90.0339 52.9224 89.1276C52.6258 90.2408 52.0931 89.0972 51.7117 88.4828C50.9914 87.3575 49.7202 83.9329 50.1924 82.546C50.495 81.6822 54.1573 78.288 54.5144 80.5751C52.2444 81.2929 52.2626 77.0593 52.5592 75.8366C52.8316 74.7235 55.5374 71.8828 55.943 74.1091C54.3389 72.8013 53.3643 68.7258 54.0846 66.8097C54.3691 66.0615 56.5907 63.0992 57.1597 64.9362C56.173 63.0566 56.5059 60.9945 57.4563 59.194C57.8013 58.5492 59.1088 56.402 59.5689 58.0626C56.966 55.6903 61.6815 50.0454 62.8437 51.3715C61.288 49.3763 68.0495 43.841 70.2166 43.8105C70.9793 43.8105 67.3716 48.2267 68.1585 48.4578" fill="#BF5B24"/>
<path d="M96.9094 54.8022C96.1104 53.0199 92.7145 50.5077 90.6867 49.4371C91.1952 50.24 91.9639 51.1403 91.9881 52.0406C90.3053 50.8909 88.229 48.9018 86.2799 48.476C86.5627 49.4934 87.1845 50.3824 88.0414 50.9943C87.0123 49.5466 82.4482 47.004 80.8138 47.1925C81.1452 47.9416 81.6595 48.5944 82.309 49.0904C80.4324 48.7376 78.3259 47.3629 76.4433 47.5149C76.5705 48.3726 77.3876 48.8349 77.8598 49.5162C75.9772 48.6585 73.0172 48.2996 71.0801 49.0478C71.4334 49.5577 71.8392 50.0287 72.2908 50.4529C71.0801 51.0612 68.8707 50.6415 67.5935 50.1853C67.8776 50.397 68.1429 50.6331 68.3864 50.8909C67.9578 50.8007 67.5481 50.636 67.1758 50.4043C68.0959 52.3447 71.1952 53.3666 73.0838 54.3094C72.8554 53.8674 72.5428 53.4747 72.1637 53.1537C73.0172 53.6137 73.9425 53.9243 74.8998 54.0722C74.5002 53.3484 74.0099 52.6367 73.6286 51.9311C74.2339 52.2595 74.7303 52.807 75.4445 52.8374C75.3709 52.5504 75.2695 52.2713 75.1419 52.0041C75.8501 52.7583 76.7581 52.4299 76.3162 51.2741C77.0608 51.4019 77.9203 52.1196 78.7012 52.3204C78.4712 52.0345 78.3441 51.6087 78.0959 51.3106C78.7012 51.4931 79.2157 51.9189 79.8332 52.1075C79.7908 51.9311 79.8332 51.5904 79.7787 51.4627C80.9974 52.3265 82.3142 53.0412 83.7012 53.5917C83.5397 53.0455 83.279 52.5341 82.9324 52.0831C83.1008 52.4811 83.3754 52.8246 83.7257 53.0758C84.076 53.327 84.4886 53.476 84.9179 53.5065C84.75 52.9274 84.4726 52.3863 84.1007 51.9128C84.924 53.3423 87.2605 52.9347 88.4712 53.8776C88.2766 53.4797 88.052 53.0974 87.7993 52.734C88.1201 53.3909 89.9663 55.7754 90.4022 54.3824C90.6437 54.4365 90.8821 54.5035 91.1165 54.5832C91.1201 54.412 91.155 54.2429 91.2194 54.0844C91.7339 54.6927 93.9615 56.7122 94.4337 55.3374C94.7121 55.3374 94.9421 55.3374 95.1782 55.3374C95.1569 55.2336 95.1089 55.1371 95.039 55.0576C95.3495 55.2129 95.6488 55.3898 95.9349 55.5868C96.1664 55.4969 96.3828 55.3718 96.5765 55.2158" fill="#BF5B24"/>
</g>
<path d="M116.778 122.752H41.7701C39.6879 122.752 38 124.428 38 126.495V144.503C38 146.57 39.6879 148.245 41.7701 148.245H116.778C118.861 148.245 120.548 146.57 120.548 144.503V126.495C120.548 124.428 118.861 122.752 116.778 122.752Z" fill="#324664"/>
<path d="M108.988 156.201L113.516 147.198H102.25L106.778 156.201C106.881 156.405 107.038 156.576 107.233 156.696C107.429 156.816 107.654 156.88 107.883 156.88C108.113 156.88 108.338 156.816 108.533 156.696C108.728 156.576 108.886 156.405 108.988 156.201Z" fill="#324664"/>
<path d="M113.473 134.125L110.593 137.181L111.728 140.82C111.732 140.829 111.734 140.838 111.734 140.848C111.734 140.858 111.732 140.868 111.728 140.877C111.724 140.89 111.717 140.902 111.708 140.912C111.699 140.922 111.689 140.93 111.676 140.935C111.664 140.94 111.651 140.943 111.637 140.943C111.624 140.943 111.611 140.94 111.599 140.934L107.823 139.09L104.127 140.893C104.103 140.906 104.075 140.912 104.048 140.909C104.02 140.906 103.994 140.894 103.974 140.876C103.953 140.858 103.938 140.834 103.932 140.807C103.925 140.78 103.927 140.752 103.937 140.727L105.037 137.181L102.182 134.141C102.161 134.12 102.147 134.094 102.141 134.065C102.134 134.037 102.136 134.007 102.145 133.979C102.154 133.952 102.17 133.927 102.192 133.907C102.214 133.888 102.241 133.874 102.27 133.869L104.242 133.449L105.996 133.088L107.716 130.137C107.726 130.117 107.741 130.101 107.76 130.09C107.779 130.078 107.801 130.072 107.823 130.072C107.845 130.072 107.867 130.078 107.886 130.09C107.904 130.101 107.92 130.117 107.93 130.137L109.645 133.088L113.393 133.885C113.417 133.892 113.439 133.905 113.457 133.922C113.475 133.939 113.489 133.96 113.497 133.984C113.505 134.008 113.507 134.033 113.502 134.058C113.498 134.082 113.488 134.105 113.473 134.125Z" fill="#2B41B3"/>
<path d="M56.3648 134.126L53.485 137.181L54.6199 140.82C54.6241 140.829 54.6262 140.839 54.6262 140.849C54.6262 140.859 54.6241 140.869 54.6199 140.878C54.6157 140.89 54.6088 140.902 54.5997 140.912C54.5906 140.922 54.5794 140.93 54.5669 140.936C54.5545 140.941 54.541 140.944 54.5274 140.944C54.5138 140.944 54.5003 140.941 54.488 140.935L50.7152 139.091L47.0221 140.894C46.9985 140.906 46.9719 140.911 46.9456 140.907C46.9194 140.904 46.8947 140.893 46.8749 140.876C46.855 140.858 46.8409 140.835 46.8343 140.81C46.8277 140.785 46.829 140.758 46.838 140.733L47.9371 137.187L45.0766 134.142C45.0564 134.121 45.0422 134.095 45.0356 134.067C45.0289 134.038 45.03 134.009 45.0386 133.981C45.0473 133.953 45.0633 133.928 45.0849 133.909C45.1066 133.889 45.1331 133.875 45.1618 133.869L47.1375 133.449L48.8906 133.089L50.6108 130.137C50.6206 130.118 50.6356 130.101 50.6543 130.09C50.673 130.078 50.6946 130.072 50.7166 130.072C50.7385 130.072 50.7601 130.078 50.7788 130.09C50.7975 130.101 50.8126 130.118 50.8223 130.137L52.5508 133.089L56.2988 133.886C56.3219 133.894 56.3425 133.908 56.3591 133.926C56.3756 133.944 56.3877 133.965 56.3941 133.989C56.4006 134.012 56.4013 134.037 56.3962 134.061C56.3911 134.085 56.3803 134.107 56.3648 134.126Z" fill="#FFCEB2"/>
<path d="M51.0547 132.193L52.1126 134.122L53.6734 134.414" stroke="#F9F1DE" stroke-miterlimit="10"/>
<path d="M70.6695 134.126L67.7897 137.181L68.9246 140.82C68.9288 140.829 68.9309 140.839 68.9309 140.849C68.9309 140.859 68.9288 140.869 68.9246 140.878C68.9204 140.89 68.9135 140.902 68.9044 140.912C68.8952 140.922 68.8841 140.93 68.8716 140.936C68.8591 140.941 68.8457 140.944 68.8321 140.944C68.8185 140.944 68.805 140.941 68.7927 140.935L65.0199 139.091L61.3267 140.894C61.3032 140.906 61.2766 140.911 61.2503 140.907C61.2241 140.904 61.1994 140.893 61.1796 140.876C61.1597 140.858 61.1456 140.835 61.139 140.81C61.1324 140.785 61.1337 140.758 61.1426 140.733L62.2418 137.187L59.3813 134.142C59.3611 134.121 59.3469 134.095 59.3403 134.067C59.3336 134.038 59.3347 134.009 59.3433 133.981C59.352 133.953 59.368 133.928 59.3896 133.908C59.4113 133.889 59.4378 133.875 59.4664 133.869L61.4422 133.449L63.1953 133.089L64.9182 130.124C64.928 130.104 64.9431 130.088 64.9618 130.076C64.9805 130.065 65.002 130.059 65.024 130.059C65.046 130.059 65.0675 130.065 65.0862 130.076C65.1049 130.088 65.12 130.104 65.1298 130.124L66.8417 133.089L70.5898 133.886C70.6139 133.892 70.636 133.905 70.6541 133.922C70.6722 133.94 70.6858 133.961 70.6937 133.985C70.7015 134.008 70.7034 134.034 70.6992 134.058C70.695 134.083 70.6848 134.106 70.6695 134.126Z" fill="#FFCEB2"/>
<path d="M65.4531 132.193L66.5111 134.122L68.0718 134.414" stroke="#F9F1DE" stroke-miterlimit="10"/>
<path d="M85.0785 134.125L82.1987 137.181L83.3281 140.817C83.335 140.835 83.335 140.856 83.3281 140.874C83.3239 140.887 83.317 140.899 83.3079 140.909C83.2987 140.919 83.2876 140.927 83.2751 140.932C83.2626 140.938 83.2492 140.941 83.2356 140.94C83.222 140.94 83.2085 140.937 83.1962 140.932L79.4289 139.09L75.733 140.893C75.7094 140.904 75.6832 140.908 75.6576 140.904C75.632 140.9 75.6081 140.889 75.5887 140.872C75.5692 140.855 75.5551 140.833 75.5481 140.808C75.541 140.783 75.5413 140.757 75.5489 140.732L76.648 137.186L73.7875 134.141C73.7673 134.12 73.7532 134.094 73.7465 134.066C73.7398 134.038 73.7409 134.008 73.7496 133.98C73.7583 133.953 73.7742 133.928 73.7959 133.908C73.8175 133.888 73.844 133.875 73.8727 133.869L75.8484 133.449L77.6015 133.088L79.3217 130.137C79.3319 130.117 79.3473 130.101 79.3662 130.09C79.3851 130.078 79.4068 130.072 79.4289 130.072C79.451 130.072 79.4726 130.078 79.4915 130.09C79.5104 130.101 79.5258 130.117 79.536 130.137L81.2507 133.088L84.9988 133.885C85.0229 133.892 85.045 133.905 85.0631 133.922C85.0812 133.939 85.0948 133.96 85.1027 133.984C85.1105 134.008 85.1124 134.033 85.1082 134.058C85.104 134.082 85.0938 134.105 85.0785 134.125Z" fill="#FFCEB2"/>
<path d="M79.8594 132.193L80.9146 134.122L82.4753 134.414" stroke="#F9F1DE" stroke-miterlimit="10"/>
<path d="M99.3827 134.125L96.5029 137.181L97.6378 140.82C97.642 140.829 97.6442 140.838 97.6442 140.848C97.6442 140.858 97.642 140.868 97.6378 140.877C97.6336 140.89 97.6267 140.902 97.6176 140.912C97.6085 140.922 97.5973 140.93 97.5849 140.935C97.5724 140.941 97.5589 140.943 97.5453 140.943C97.5317 140.943 97.5183 140.94 97.5059 140.934L93.7331 139.09L90.0372 140.893C90.0136 140.904 89.9875 140.908 89.9619 140.904C89.9363 140.9 89.9123 140.889 89.8929 140.872C89.8735 140.855 89.8594 140.833 89.8523 140.808C89.8453 140.783 89.8456 140.757 89.8531 140.732L90.9523 137.186L88.0917 134.141C88.0715 134.12 88.0575 134.094 88.051 134.065C88.0444 134.037 88.0457 134.007 88.0547 133.979C88.0637 133.952 88.08 133.927 88.102 133.907C88.124 133.888 88.1508 133.874 88.1797 133.869L90.1526 133.449L91.9058 133.088L93.6259 130.137C93.6362 130.117 93.6516 130.101 93.6705 130.09C93.6893 130.078 93.711 130.072 93.7331 130.072C93.7552 130.072 93.7769 130.078 93.7958 130.09C93.8146 130.101 93.83 130.117 93.8403 130.137L95.5549 133.088L99.303 133.885C99.3272 133.892 99.3493 133.905 99.3674 133.922C99.3855 133.939 99.399 133.96 99.4069 133.984C99.4148 134.008 99.4167 134.033 99.4125 134.058C99.4082 134.082 99.398 134.105 99.3827 134.125Z" fill="#FFCEB2"/>
<path d="M113.336 134.053L110.456 137.108L111.591 140.747C111.595 140.756 111.597 140.766 111.597 140.776C111.597 140.786 111.595 140.796 111.591 140.805C111.587 140.818 111.58 140.829 111.571 140.839C111.562 140.849 111.55 140.857 111.538 140.863C111.526 140.868 111.512 140.871 111.498 140.871C111.485 140.871 111.471 140.868 111.459 140.862L107.686 139.018L103.99 140.821C103.967 140.832 103.941 140.835 103.915 140.831C103.889 140.828 103.865 140.817 103.846 140.8C103.827 140.783 103.813 140.76 103.805 140.736C103.798 140.711 103.799 140.685 103.806 140.66L104.905 137.114L102.045 134.069C102.025 134.048 102.011 134.022 102.004 133.993C101.998 133.965 101.999 133.935 102.008 133.907C102.017 133.879 102.033 133.854 102.055 133.835C102.077 133.815 102.104 133.802 102.133 133.796L104.106 133.376L105.859 133.016L107.579 130.064C107.589 130.045 107.605 130.029 107.624 130.017C107.642 130.006 107.664 130 107.686 130C107.708 130 107.73 130.006 107.749 130.017C107.768 130.029 107.783 130.045 107.793 130.064L109.508 133.016L113.256 133.813C113.28 133.82 113.302 133.832 113.32 133.85C113.339 133.867 113.352 133.888 113.36 133.912C113.368 133.936 113.37 133.961 113.366 133.985C113.361 134.01 113.351 134.033 113.336 134.053Z" fill="#FFCEB2"/>
<path d="M94.1875 132.193L95.2454 134.122L96.8062 134.414" stroke="#F9F1DE" stroke-miterlimit="10"/>
<path d="M108 132.193L109.058 134.122L110.619 134.414" stroke="#F9F1DE" stroke-miterlimit="10"/>
<defs>
<clipPath id="clip0_1157_5488">
<rect width="65" height="73" fill="white" transform="translate(48 41)"/>
</clipPath>
</defs>
</svg>
