<svg width="200" height="194" viewBox="0 0 200 194" fill="none" xmlns="http://www.w3.org/2000/svg">
<rect width="200" height="194" fill="white"/>
<path d="M94.9244 145.992H54.5771C54.3634 145.992 54.1498 145.992 53.9362 145.992C53.1864 146.003 52.5392 145.821 52.5242 144.922C52.5093 144.024 53.1394 143.833 53.9042 143.837C55.9677 143.846 58.0326 143.846 60.099 143.837C61.8079 143.837 61.5943 144.051 61.6135 142.278C61.6498 138.499 61.6605 134.72 61.6904 130.937C61.7032 128.973 62.5726 128.036 64.5229 128.008C65.2898 127.997 65.4628 127.734 65.4564 127.009C65.4137 122.612 64.0401 118.848 60.5433 115.989C58.8344 114.596 57.2195 113.086 55.5511 111.643C51.9838 108.579 49.5272 104.745 47.6795 100.466C47.2237 99.4161 46.9923 98.2827 47.0002 97.1383C47.0458 89.046 47.097 80.9543 47.154 72.8634C47.1732 70.6937 48.6963 69.1895 50.8602 69.1125C51.5715 69.0889 52.285 69.0889 52.9963 69.1125C56.1343 69.2537 58.4691 71.6544 58.4712 74.8041C58.4712 79.5114 58.4442 84.2188 58.3901 88.9261C58.3901 89.6237 58.4306 89.9297 59.2915 89.782C61.0431 89.4932 62.5683 90.1864 63.976 91.175C65.2851 92.1046 66.4647 93.2048 67.4836 94.4466C70.3566 97.9225 73.9588 100.722 78.0339 102.646C82.9471 104.961 85.3673 108.969 86.6767 113.918C87.8068 118.197 88.0951 122.562 87.8751 126.97C87.8303 127.826 87.9456 128.145 88.8919 128.126C91.3463 128.072 92.2478 129.009 92.2414 131.442C92.2307 135.257 92.2307 139.07 92.1816 142.885C92.1816 143.621 92.3589 143.889 93.1215 143.855C94.4031 143.799 95.6848 143.805 96.9665 143.855C97.6842 143.882 97.8573 143.621 97.8466 142.932C97.7975 139.01 97.7889 135.09 97.7782 131.164C97.7782 128.984 98.7074 127.995 100.893 128.07C101.974 128.108 102.155 127.755 102.115 126.752C101.929 122.1 102.238 117.489 103.569 112.991C104.104 111.104 104.913 109.306 105.968 107.653C107.26 105.678 109.063 104.091 111.185 103.061C115.685 100.812 119.678 97.8787 122.916 93.9694C123.895 92.7865 125.048 91.7592 126.334 90.9225C127.65 90.0666 129.081 89.5124 130.67 89.7649C131.467 89.8911 131.615 89.6729 131.604 88.909C131.546 84.3814 131.533 79.8559 131.51 75.3283C131.491 71.3784 133.772 69.0739 137.705 69.0611C138.202 69.0611 138.7 69.0483 139.2 69.0718C141.296 69.1724 142.831 70.6916 142.851 72.7821C142.919 80.7303 142.97 88.6794 143.004 96.6291C143.004 98.2959 142.577 99.8386 141.896 101.369C139.779 106.076 136.641 109.972 132.648 113.214C131.241 114.359 129.897 115.585 128.556 116.806C125.477 119.61 124.589 123.273 124.512 127.25C124.501 127.787 124.726 127.877 125.21 127.892C127.505 127.999 128.301 128.847 128.314 131.149C128.336 135 128.372 138.852 128.34 142.703C128.34 143.559 128.517 143.88 129.44 143.85C131.61 143.78 133.783 143.84 135.953 143.822C136.748 143.822 137.468 143.974 137.448 144.909C137.429 145.844 136.716 145.979 135.921 145.979C122.255 145.984 108.59 145.988 94.9244 145.992Z" fill="white"/>
<path d="M74.1268 83.8306C74.1268 82.8699 74.114 81.9049 74.1268 80.9441C74.1674 77.7945 76.4488 75.5157 79.6124 75.4751C81.1419 75.4558 82.6713 75.4365 84.2008 75.4751C84.9271 75.4986 85.2005 75.3017 85.1727 74.5315C85.1172 73.0016 85.1343 71.4674 85.1621 69.9375C85.2197 66.6873 87.4584 64.4492 90.6968 64.4021C92.2626 64.3807 93.8326 64.3251 95.3963 64.4213C96.475 64.4898 96.71 64.0319 96.7463 63.084C96.8168 61.3059 96.4601 59.6156 95.8919 57.9487C95.7167 57.4373 95.5052 56.9302 95.9196 56.4381C96.3682 55.9075 96.93 56.0358 97.4961 56.1749C101.647 57.1827 105.423 58.9073 108.501 61.9521C109.026 62.4857 109.509 63.0579 109.948 63.6639C110.802 64.8236 110.776 64.8172 111.815 63.7302C112.349 63.1718 112.682 62.1939 113.72 62.4635C114.688 62.7139 114.598 63.6896 114.788 64.3892C115.884 68.3969 116.211 72.4474 115.305 76.5428C114.952 78.2585 114.246 79.8819 113.233 81.31C112.898 81.7697 112.734 82.3318 112.767 82.8998C112.791 84.2179 112.797 85.536 112.767 86.854C112.736 88.2295 112.176 89.54 111.205 90.5131C110.234 91.4862 108.926 92.0471 107.553 92.0792C105.955 92.122 104.349 92.1476 102.753 92.0792C101.862 92.0364 101.685 92.368 101.709 93.1704C101.76 94.7003 101.738 96.2345 101.709 97.7665C101.662 100.858 99.4763 103.101 96.4088 103.169C94.4521 103.213 92.4954 103.213 90.5387 103.169C87.4798 103.109 85.2368 100.869 85.1642 97.82C85.1236 96.181 85.1321 94.542 85.1642 92.8987C85.1749 92.3038 84.9933 92.0834 84.376 92.1006C82.9191 92.1391 81.458 92.1134 80.0012 92.1113C76.3355 92.1113 74.1417 89.9309 74.1247 86.2913C74.1225 85.4696 74.1268 84.6501 74.1268 83.8306Z" fill="white"/>
<path d="M120.183 67.041C119.518 67.041 119.219 66.6131 118.995 66.0953C118.461 64.8543 117.899 63.6218 117.393 62.3679C117.306 62.1189 117.165 61.8922 116.981 61.7042C116.796 61.5163 116.572 61.3717 116.325 61.2809C115.105 60.7931 113.909 60.2453 112.693 59.7232C112.161 59.4922 111.636 59.2546 111.625 58.5485C111.614 57.8424 112.095 57.5771 112.644 57.3439C113.627 56.9288 114.577 56.4281 115.586 56.0879C116.69 55.7156 117.337 55.018 117.711 53.9311C118.046 52.9596 118.529 52.0374 118.929 51.0874C119.157 50.5418 119.407 50.0175 120.093 50.0004C120.779 49.9833 121.054 50.4861 121.291 51.0318C121.827 52.2707 122.396 53.4988 122.908 54.7484C122.995 54.979 123.129 55.1882 123.304 55.3617C123.478 55.5353 123.688 55.6691 123.919 55.7541C125.168 56.2612 126.399 56.8239 127.64 57.3567C128.15 57.5707 128.597 57.8446 128.62 58.4865C128.644 59.1284 128.21 59.4151 127.691 59.6377C126.779 60.0335 125.901 60.5321 124.959 60.8273C123.617 61.2553 122.823 62.0748 122.396 63.395C122.094 64.3386 121.62 65.2266 121.221 66.1381C121.028 66.6281 120.723 66.9961 120.183 67.041Z" fill="white"/>
<path d="M71.0251 77.1776C70.4056 77.1562 70.098 76.7989 69.8887 76.3068C69.3397 75.023 68.763 73.767 68.246 72.481C68.1537 72.2337 68.0082 72.0097 67.82 71.8248C67.6318 71.6399 67.4053 71.4987 67.1566 71.4111C65.9048 70.904 64.6829 70.3284 63.4397 69.7957C62.9164 69.571 62.4891 69.28 62.4806 68.6509C62.472 68.0218 62.9078 67.7244 63.4376 67.5126C63.7209 67.3635 64.0151 67.2362 64.3177 67.1317C67.2121 66.4748 68.8036 64.5641 69.5747 61.7974C69.7755 61.0764 70.0019 60.1477 70.9845 60.1349C71.9672 60.1221 72.2107 61.0678 72.3944 61.7825C73.1634 64.7909 75.0859 66.5561 78.0338 67.305C78.2367 67.3716 78.4339 67.4546 78.6234 67.5532C79.104 67.7672 79.4906 68.0539 79.497 68.6445C79.5034 69.2351 79.1296 69.5303 78.6426 69.7422C77.3716 70.2964 76.1113 70.8762 74.8296 71.4069C74.5824 71.4997 74.3581 71.6446 74.1716 71.8318C73.9852 72.0189 73.8409 72.244 73.7487 72.4917C73.2232 73.7755 72.64 75.0379 72.0889 76.3111C71.8796 76.8032 71.5528 77.1434 71.0251 77.1776Z" fill="#FBFCF9"/>
<path d="M140.82 85.1812C140.82 88.1404 140.617 91.1167 140.871 94.0524C141.198 97.799 139.933 100.949 138.053 104.019C136.317 106.854 134.057 109.191 131.538 111.316C130.286 112.37 129.09 113.494 127.83 114.538C124.015 117.705 122.489 121.899 122.404 126.713C122.389 127.667 122.175 127.967 121.182 127.962C115.913 127.944 110.644 127.974 105.375 128.052C104.501 128.065 104.23 127.838 104.213 126.938C104.136 122.175 104.349 117.452 105.845 112.875C107.05 109.216 109.122 106.394 112.747 104.627C117.129 102.522 121.014 99.506 124.141 95.7791C125.001 94.7328 125.988 93.7984 127.08 92.9975C129.34 91.3671 131.075 91.4997 133.085 93.4105C134.651 94.9083 134.659 94.9489 133.106 96.451C130.161 99.294 127.21 102.134 124.254 104.971C123.984 105.203 123.74 105.464 123.526 105.748C123.237 106.189 123.338 106.636 123.686 107.019C123.825 107.186 124.017 107.3 124.23 107.342C124.443 107.384 124.664 107.353 124.856 107.252C125.108 107.119 125.336 106.946 125.531 106.739C128.691 103.705 131.847 100.666 134.999 97.6236C135.405 97.2253 135.769 96.7857 136.084 96.3119C136.712 95.3854 136.658 94.4268 136.054 93.5089C135.84 93.1375 135.565 92.8053 135.24 92.5268C133.958 91.5618 133.651 90.3165 133.683 88.7331C133.773 84.3852 133.683 80.0352 133.651 75.6809C133.632 72.4414 134.851 71.1875 138.051 71.1875C138.265 71.1875 138.478 71.1875 138.692 71.1875C140.147 71.211 140.698 71.7481 140.702 73.1967C140.702 77.1894 140.702 81.1821 140.702 85.179L140.82 85.1812Z" fill="#324664"/>
<path d="M49.2884 85.1109C49.2884 81.1909 49.2884 77.271 49.2884 73.3425C49.2884 71.7249 49.7798 71.2434 51.3861 71.2285C51.9202 71.2285 52.4542 71.2049 52.9882 71.2456C54.8766 71.3868 56.295 72.7605 56.3014 74.6477C56.3163 79.9585 56.2522 85.2692 56.2309 90.5778C56.2287 90.7537 56.1875 90.9269 56.1103 91.0849C56.0331 91.243 55.9218 91.3818 55.7844 91.4915C55.2328 91.9958 54.7107 92.5316 54.2208 93.0962C53.1698 94.3565 53.1655 95.467 54.1759 96.768C54.4861 97.1582 54.8238 97.5258 55.1863 97.8678C58.2581 100.836 61.3334 103.802 64.4123 106.765C64.9741 107.308 65.5679 107.723 66.2408 107.034C66.9137 106.345 66.4843 105.75 65.9204 105.213C62.8358 102.256 59.7562 99.295 56.6816 96.3293C55.3187 95.0113 55.3316 94.9556 56.641 93.6611C58.9032 91.4251 60.6997 91.3246 63.2075 93.3038C64.2407 94.1237 65.187 95.048 66.0315 96.0619C69.1759 99.8106 73.0465 102.648 77.3914 104.77C80.5593 106.317 82.5182 108.752 83.7336 111.913C85.2609 115.858 85.6668 119.999 85.7266 124.188C85.7416 125.222 85.6796 126.255 85.6882 127.289C85.6882 127.864 85.5066 128.089 84.8893 128.085C79.4101 128.042 73.9288 128.012 68.441 128.025C67.6464 128.025 67.5994 127.659 67.5866 127.051C67.5609 121.676 65.664 117.196 61.3405 113.841C60.1891 112.946 59.151 111.915 58.021 110.988C54.3895 108.027 51.7066 104.355 49.8417 100.076C49.3615 98.9987 49.1133 97.8322 49.1133 96.6524C49.1282 92.801 49.1133 88.9495 49.1133 85.098L49.2884 85.1109Z" fill="#324664"/>
<path d="M113.078 130.075C117.096 130.075 121.114 130.092 125.132 130.062C125.927 130.062 126.179 130.326 126.175 131.113C126.162 134.996 126.18 138.879 126.23 142.762C126.241 143.545 125.982 143.851 125.198 143.849C117.196 143.837 109.194 143.837 101.193 143.849C100.276 143.849 99.9301 143.5 99.9856 142.565C100.062 141.463 100.054 140.357 99.9621 139.257C99.8702 138.262 100.255 138.08 101.156 138.097C103.786 138.144 106.417 138.097 109.049 138.084C109.335 138.084 109.62 138.084 109.904 138.071C110.613 138.022 111.061 137.654 111.027 136.925C110.995 136.253 110.549 135.93 109.878 135.932L103.897 135.949C102.829 135.949 101.761 135.934 100.693 135.972C100.135 135.992 99.9407 135.799 99.9493 135.241C99.9728 133.923 99.9813 132.602 99.9215 131.289C99.8831 130.456 100.152 130.167 101.011 130.176C105.029 130.214 109.047 130.193 113.067 130.193L113.078 130.075Z" fill="#324664"/>
<path d="M76.8812 143.839C72.8952 143.839 68.9113 143.818 64.9188 143.856C64.0452 143.856 63.7376 143.619 63.7504 142.716C63.8059 138.865 63.8145 135.013 63.7995 131.162C63.7995 130.359 64.0729 130.132 64.8676 130.139C72.8425 130.197 80.8174 130.228 88.7923 130.231C89.7685 130.231 90.121 130.511 90.0505 131.515C89.9802 132.726 89.9709 133.94 90.0227 135.152C90.0441 135.811 89.8091 136.008 89.1682 135.993C86.214 135.952 83.2597 135.963 80.3076 135.944C79.6411 135.944 79.0878 136.076 78.9468 136.834C78.8059 137.591 79.3207 138.079 80.267 138.088C83.1486 138.116 86.0345 138.146 88.914 138.116C89.7172 138.116 90.0675 138.276 90.0056 139.162C89.9337 140.336 89.928 141.513 89.9885 142.688C90.0248 143.544 89.7856 143.876 88.8542 143.863C84.8682 143.812 80.8822 143.841 76.8919 143.841L76.8812 143.839Z" fill="#324664"/>
<path d="M110.622 84.3701C110.622 85.2067 110.639 85.9149 110.622 86.6253C110.562 88.5938 109.293 89.8819 107.309 89.9226C105.424 89.9632 103.538 89.9226 101.652 89.9333C99.6954 89.9333 99.5736 90.0531 99.5715 91.9682C99.5715 93.7848 99.5715 95.6056 99.5715 97.4201C99.5565 99.6925 98.3368 100.942 96.1024 100.963C94.2867 100.978 92.4724 100.978 90.6595 100.963C88.6046 100.942 87.3271 99.6796 87.2972 97.6341C87.2673 95.5885 87.2972 93.5687 87.2823 91.5402C87.2823 90.1836 87.0281 89.944 85.6396 89.9397C83.6829 89.9397 81.7262 89.9397 79.7695 89.9397C77.5372 89.9226 76.2662 88.6559 76.2513 86.4156C76.2385 84.599 76.2299 82.7781 76.2513 80.9636C76.2791 78.9438 77.5949 77.6343 79.6178 77.615C81.6813 77.5936 83.7449 77.615 85.8126 77.615C86.9683 77.615 87.2759 77.3069 87.2866 76.16C87.3015 74.1294 87.2866 72.0946 87.2866 70.0683C87.2972 67.8729 88.5319 66.6041 90.7044 66.5677C92.1612 66.5442 93.6202 66.5677 95.0792 66.5527C95.6559 66.5527 95.8738 66.6768 95.6282 67.2781C94.8421 69.2038 94.5345 71.1831 94.904 73.2436C94.9327 73.5267 94.8682 73.8115 94.7203 74.0545C93.6715 76.3932 93.7911 78.7105 94.9574 80.9508C95.2907 81.5927 95.1604 81.8623 94.5943 82.1876C91.9327 83.7153 90.4801 86.039 90.1682 89.0881C90.0913 89.8456 90.0593 90.6159 90.9928 90.7785C91.9967 90.9539 92.2744 90.2243 92.33 89.3984C92.4902 86.8072 93.8466 85.0291 96.0426 83.7881C96.4506 83.557 96.7261 83.4264 97.1448 83.8159C100.496 86.9184 105.807 87.77 110.175 84.5434C110.318 84.4701 110.467 84.412 110.622 84.3701Z" fill="#BF5B24"/>
<path d="M113.281 67.9033C113.922 72.7198 113.922 77.348 110.549 81.3321C107.7 84.6936 102.881 85.374 99.4136 82.8299C98.8069 82.3827 98.8027 82.2393 99.4456 81.76C101.368 80.3243 103.274 79.8044 105.478 81.1181C106.119 81.5011 106.856 81.3449 107.116 80.5062C107.358 79.7337 106.888 79.3122 106.189 79.094C105.986 79.0298 105.79 78.9442 105.591 78.865C105.393 78.7859 105.203 78.7045 104.865 78.5633C108.661 75.7132 111.333 72.1057 113.281 67.9033Z" fill="#BF5B24"/>
<path d="M105.969 69.7988C105.526 71.104 105.969 72.2381 106.139 73.3764C106.259 74.1574 106.099 74.6881 105.499 75.2401C103.189 77.367 100.372 78.6872 97.7295 80.2877C97.1699 80.6279 97.0566 80.2042 96.8922 79.8597C95.8241 77.6066 96.1167 75.5011 97.6184 73.5476C98.9557 71.8059 100.741 70.7788 102.878 70.338C103.852 70.1562 104.832 70 105.969 69.7988Z" fill="#BF5B24"/>
<path d="M100.445 59.4844C103.703 60.7404 106.597 62.48 108.586 65.4755C109.013 66.1175 108.819 66.4085 108.225 66.6652C107.9 66.8064 107.584 66.9733 107.257 67.1081C104.606 68.193 104.602 68.193 103.626 65.5547C102.8 63.4164 101.733 61.3797 100.445 59.4844Z" fill="#BF5B24"/>
<path d="M97.1094 70.7029C97.5366 67.6196 99.3715 64.8958 99.0319 61.6562C100.42 63.51 101.459 65.6019 102.097 67.8293C102.206 68.193 102.025 68.3257 101.687 68.4113C100.02 68.8513 98.4615 69.6315 97.1094 70.7029Z" fill="#BF5B24"/>
<path d="M110.886 67.5703C110.18 69.1868 109.291 70.7168 108.237 72.13C107.852 71.1607 108.136 70.046 106.977 69.5217C108.364 69.0571 109.68 68.4003 110.886 67.5703Z" fill="#BF5B24"/>
<path d="M120.145 63.1897C119.382 60.7633 118.101 59.0601 115.445 58.5572C117.908 57.7998 119.466 56.3448 120.074 53.8242C120.835 56.2292 122.136 57.941 124.799 58.4374C122.317 59.1863 120.672 60.5686 120.145 63.1897Z" fill="#BF5B24"/>
<path d="M71.1308 73.4795C70.2764 72.1956 70.1931 70.8776 69.3343 70.1629C68.5269 69.4868 67.4118 69.1744 66.0703 68.5239C68.8152 67.9783 70.2913 66.4227 70.9706 63.9492C71.6264 66.442 73.0726 67.974 75.6082 68.5967C73.1751 69.3327 71.5516 70.7235 71.1308 73.4795Z" fill="#BF5B24"/>
<path d="M118.804 132.918C119.33 132.924 119.85 133.034 120.333 133.242C120.816 133.45 121.253 133.751 121.62 134.129C121.986 134.507 122.274 134.954 122.467 135.444C122.661 135.934 122.755 136.457 122.745 136.984C122.73 138.047 122.294 139.061 121.533 139.803C120.772 140.545 119.749 140.954 118.687 140.94C118.153 140.935 117.626 140.823 117.136 140.612C116.645 140.401 116.201 140.095 115.83 139.711C115.458 139.327 115.167 138.873 114.971 138.376C114.776 137.878 114.681 137.347 114.692 136.813C114.704 136.285 114.82 135.766 115.033 135.284C115.247 134.802 115.554 134.367 115.936 134.005C116.319 133.643 116.769 133.36 117.262 133.174C117.754 132.987 118.278 132.9 118.804 132.918Z" fill="white"/>
<path d="M71.2774 140.934C70.7525 140.943 70.2309 140.847 69.7432 140.652C69.2554 140.457 68.8113 140.167 68.4365 139.799C68.0618 139.431 67.764 138.991 67.5604 138.506C67.3568 138.022 67.2516 137.501 67.2508 136.975C67.2399 136.44 67.3368 135.908 67.5358 135.41C67.7348 134.913 68.0318 134.462 68.4091 134.082C68.7863 133.703 69.2361 133.403 69.7315 133.202C70.2269 133 70.7578 132.901 71.2924 132.91C71.819 132.909 72.3405 133.012 72.8271 133.214C73.3137 133.415 73.7558 133.711 74.1279 134.084C74.5001 134.458 74.795 134.901 74.9957 135.388C75.1965 135.876 75.2991 136.398 75.2977 136.926C75.2903 137.99 74.8638 139.008 74.1109 139.758C73.358 140.509 72.3397 140.931 71.2774 140.934Z" fill="white"/>
<path d="M120.583 136.941C120.584 137.189 120.536 137.434 120.441 137.663C120.346 137.892 120.206 138.099 120.03 138.273C119.853 138.446 119.644 138.583 119.414 138.674C119.184 138.765 118.938 138.808 118.69 138.802C118.209 138.794 117.75 138.597 117.411 138.254C117.073 137.911 116.882 137.449 116.879 136.967C116.878 136.719 116.926 136.473 117.021 136.244C117.117 136.016 117.257 135.808 117.433 135.635C117.61 135.461 117.82 135.325 118.05 135.234C118.28 135.143 118.526 135.099 118.774 135.105C119.255 135.114 119.713 135.311 120.051 135.654C120.39 135.997 120.58 136.459 120.583 136.941Z" fill="#324664"/>
<path d="M73.0697 136.902C73.0824 137.142 73.0472 137.382 72.9662 137.609C72.8852 137.835 72.76 138.043 72.598 138.22C72.4359 138.398 72.2403 138.541 72.0224 138.642C71.8045 138.743 71.5687 138.799 71.3288 138.808C71.0798 138.812 70.8325 138.767 70.6009 138.676C70.3694 138.584 70.1582 138.447 69.9796 138.273C69.8009 138.1 69.6583 137.892 69.5599 137.663C69.4616 137.434 69.4093 137.188 69.4063 136.938C69.4051 136.698 69.4513 136.46 69.5421 136.238C69.6328 136.015 69.7665 135.813 69.9353 135.643C70.1041 135.472 70.3049 135.337 70.526 135.244C70.7472 135.151 70.9844 135.103 71.2241 135.102C71.4641 135.096 71.703 135.137 71.9267 135.225C72.1504 135.312 72.3543 135.444 72.5263 135.612C72.6984 135.779 72.8351 135.98 72.9285 136.202C73.0218 136.423 73.0698 136.661 73.0697 136.902Z" fill="#324664"/>
</svg>
