<svg width="166" height="175" viewBox="0 0 166 175" fill="none" xmlns="http://www.w3.org/2000/svg">
<rect width="166" height="175" fill="white"/>
<g clip-path="url(#clip0_1157_5489)">
<path d="M119.541 141H91.5254C90.6638 140.789 90.347 140.211 90.347 139.357C90.347 136.203 90.347 133.046 90.347 129.892C90.347 128.956 90.7262 128.285 91.6838 128.033C92.9606 128.052 93.5438 128.621 93.5799 129.985C93.6279 131.955 93.5799 133.926 93.5967 135.898C93.5967 136.138 93.5967 136.378 93.5967 136.618C93.5967 138.028 93.5967 138.028 94.9719 138.03C97.2712 138.03 99.5728 138.03 101.872 138.03C106.78 138.088 111.688 138.069 116.594 138.03C117.194 138.03 117.482 137.791 117.463 137.174C117.463 136.877 117.463 136.577 117.463 136.277C117.463 126.977 117.477 117.676 117.463 108.376C117.432 105.879 118.247 103.444 119.774 101.468C121.2 99.5825 122.631 97.702 124.068 95.8263C125.185 94.4028 125.778 92.6387 125.748 90.8299C125.722 85.9534 125.748 81.0794 125.748 76.1981C125.754 75.7793 125.737 75.3605 125.695 74.9437C125.558 73.7443 124.185 72.3315 122.532 72.8281C121.269 73.339 120.713 74.2984 120.713 75.6369C120.713 78.0355 120.713 80.4198 120.713 82.8112C120.713 83.7491 120.384 84.4231 119.472 84.7757C115.91 86.1549 114.192 88.9086 113.712 92.5641C113.688 92.744 113.683 92.9239 113.644 93.099C113.464 93.9217 112.74 94.5382 112.01 94.495C111.601 94.4675 111.217 94.2843 110.939 93.9832C110.66 93.6822 110.508 93.2859 110.512 92.8759C110.491 91.1729 110.976 89.5682 111.65 88.0235C112.635 85.6839 114.405 83.7609 116.656 82.5857C117.316 82.2379 117.492 81.7462 117.492 81.0578C117.48 73.8811 117.492 66.7043 117.48 59.53C117.48 57.7957 116.565 56.7691 115.099 56.7571C113.709 56.7571 112.646 57.8821 112.632 59.518C112.593 64.121 112.632 68.7264 112.617 73.3318C112.617 75.066 112.636 76.8002 112.617 78.532C112.598 79.7769 112.056 80.3934 111.04 80.3934C110.08 80.3934 109.439 79.693 109.425 78.5152C109.387 75.078 109.413 71.6383 109.411 68.2011C109.411 63.9251 109.411 59.6491 109.411 55.3731C109.426 54.9849 109.412 54.596 109.37 54.2098C109.303 53.6707 109.057 53.1697 108.671 52.7874C108.284 52.405 107.781 52.1634 107.241 52.1014C106.715 52.0613 106.19 52.1922 105.744 52.4744C105.298 52.7566 104.955 53.1751 104.767 53.6677C104.596 54.1483 104.52 54.6574 104.543 55.1668C104.543 61.8031 104.543 68.4393 104.543 75.0756C104.535 75.4172 104.594 75.7571 104.718 76.0757C104.842 76.3943 105.027 76.6854 105.263 76.9321C107.457 79.3644 108.923 82.1588 109.427 85.4257C109.979 89.0069 109.279 92.3938 107.788 95.6344C105.717 100.132 102.659 103.883 98.9776 107.169C97.5064 108.484 96.0183 109.782 94.4751 111.007C94.18 111.229 93.9449 111.52 93.7911 111.855C93.6372 112.19 93.5696 112.558 93.5943 112.926C93.6183 116.094 93.6183 119.263 93.5943 122.434C93.5943 123.874 93.0518 124.437 91.7102 124.509C90.7502 124.253 90.3902 123.576 90.3902 122.636C90.3902 120.216 90.3902 117.798 90.3902 115.378C90.4279 115.055 90.3985 114.729 90.3038 114.418C89.939 114.375 89.7445 114.639 89.5141 114.809C88.5541 115.529 87.5941 116.248 86.6341 116.956C84.6972 118.395 83.2932 118.378 81.3371 116.932C80.1635 116.066 79.0115 115.174 77.8282 114.315C77.4994 114.696 77.6242 115.071 77.6242 115.411C77.6242 123.055 77.6242 130.701 77.6242 138.349C77.6242 138.678 77.6098 139.007 77.6242 139.335C77.6626 140.189 77.3338 140.774 76.465 140.99H48.4226C47.5826 140.789 47.2994 140.187 47.2754 139.395C47.2634 139.035 47.2754 138.676 47.2754 138.318C47.2754 128.419 47.261 118.52 47.2754 108.621C47.3181 106.541 46.611 104.516 45.2834 102.914C43.8721 101.173 42.5377 99.3667 41.1889 97.5725C39.729 95.65 38.9573 93.2933 38.9976 90.8802C39.012 85.7663 38.9976 80.6524 39.0096 75.5289C39.0096 73.4685 39.7296 71.7367 41.4889 70.5182C42.1842 70.0182 42.9857 69.6857 43.8309 69.5467C44.6762 69.4077 45.5421 69.466 46.361 69.717C47.249 69.9569 47.261 69.9569 47.261 69.031C47.261 65.8024 47.261 62.5714 47.261 59.3405C47.2754 55.3323 50.6211 52.7442 54.4852 53.7732C55.0732 53.9291 55.3156 53.8644 55.486 53.2287C56.1749 50.679 57.9101 49.199 60.3342 49.0095C63.183 48.7864 65.1127 49.8898 66.2119 52.4324C66.4351 52.9505 66.6559 53.0848 67.2199 52.9121C71.1489 51.768 74.5833 54.2817 74.7081 58.3714C74.7417 59.4772 74.7249 60.583 74.7081 61.6912C74.7081 62.2812 74.8666 62.4755 75.5074 62.322C79.4627 61.3625 82.7508 63.9315 82.7892 67.9876C82.8108 70.3503 82.7892 72.7129 82.7892 75.0756C82.7892 76.0806 83.3556 77.0593 83.934 77.0928C84.5124 77.1264 85.134 76.1046 85.134 75.0468C85.134 72.6841 85.1004 70.3215 85.146 67.9588C85.194 65.3491 86.3701 63.4494 88.8397 62.4419C89.9644 62.0002 91.206 61.9537 92.3606 62.31C93.0278 62.4947 93.2318 62.31 93.2222 61.6528C93.2054 60.547 93.2006 59.4388 93.2222 58.333C93.3014 54.3489 96.8463 51.7488 100.662 52.9001C101.255 53.08 101.495 52.9553 101.735 52.3964C102.791 49.921 104.728 48.8128 107.543 49.0023C109.967 49.1654 111.789 50.6814 112.43 53.1736C112.603 53.8428 112.824 53.9435 113.472 53.766C117.235 52.7298 120.65 55.3587 120.672 59.2829C120.686 62.5115 120.672 65.7425 120.672 68.971C120.672 69.9593 120.672 69.9593 121.572 69.717C125.29 68.7216 128.815 71.2114 128.897 75.078C129.014 80.6069 128.988 86.1429 128.897 91.6742C128.845 93.7892 128.108 95.8303 126.797 97.4909C125.405 99.3259 124.037 101.182 122.594 102.974C121.309 104.534 120.623 106.502 120.66 108.522C120.682 118.451 120.682 128.38 120.66 138.309C120.66 138.668 120.66 139.028 120.66 139.386C120.665 140.196 120.379 140.806 119.541 141Z" fill="black"/>
<path d="M91.7235 128.22C90.9051 128.44 90.5955 128.987 90.6003 129.815C90.6171 132.955 90.6291 136.092 90.6003 139.23C90.6003 140.038 90.8403 140.606 91.5339 141H76.4375C77.1791 140.594 77.3711 139.966 77.3687 139.141C77.3479 130.985 77.3439 122.83 77.3567 114.675V113.65L81.5472 116.769C83.3449 118.107 84.6313 118.109 86.4122 116.781L90.6075 113.662C90.6075 116.8 90.6075 119.772 90.6075 122.744C90.6075 123.574 90.9195 124.116 91.7307 124.341C91.8385 124.393 91.9305 124.472 91.9972 124.571C92.0639 124.67 92.1028 124.786 92.1099 124.905C92.1915 125.82 92.1915 126.741 92.1099 127.656C92.1034 127.776 92.0639 127.893 91.9958 127.992C91.9276 128.091 91.8334 128.17 91.7235 128.22Z" fill="#FEFEFE"/>
<path d="M60.2802 84.8452C59.0513 85.0371 58.7321 85.4089 58.6601 86.6682C58.3913 91.2736 59.949 95.3345 62.3826 99.1412C64.8427 102.979 68.066 106.126 71.5221 109.052C71.7933 109.292 72.0477 109.532 72.3093 109.772C72.5393 110.193 72.641 110.673 72.6021 111.151C72.6021 119.775 72.6021 128.397 72.6021 137.018C72.6021 137.457 72.6597 137.922 72.3069 138.287H55.3432C53.9368 138.287 52.528 138.234 51.1239 138.287C50.3775 138.321 50.1855 138.112 50.1879 137.364C50.2143 127.913 50.1615 118.465 50.2311 109.016C50.2551 105.977 49.4799 103.332 47.5286 100.986C46.1342 99.3067 44.8886 97.5197 43.5445 95.7926C42.504 94.4717 41.9468 92.8348 41.9653 91.1537C41.9653 85.951 41.9653 80.7484 41.9653 75.5457C41.9653 73.7107 43.0885 72.4562 44.7158 72.4466C46.343 72.4371 47.4974 73.6915 47.5046 75.5049C47.5046 77.9875 47.5166 80.4701 47.5046 82.9407C47.5046 83.6747 47.7278 84.2144 48.4647 84.4854C52.3048 85.9246 54.1312 88.8462 54.5344 92.7967C54.652 93.9313 55.5161 94.5597 56.4281 94.1424C57.0449 93.8617 57.2873 93.3436 57.2249 92.6792C56.8025 88.2561 54.8776 84.7637 50.8815 82.6049C50.4015 82.3458 50.1951 82.1036 50.1975 81.5399C50.2183 74.1249 50.2183 66.7091 50.1975 59.2925C50.1975 58.1723 50.6511 57.3328 51.6231 56.7883C52.038 56.5416 52.5156 56.4208 52.998 56.4404C53.4803 56.4599 53.9465 56.6192 54.34 56.8986C55.276 57.5031 55.6001 58.4218 55.5977 59.5156C55.5849 65.7041 55.5849 71.8934 55.5977 78.0835C55.5977 78.3545 55.5977 78.6232 55.5977 78.8918C55.6505 79.6858 56.1569 80.1943 56.8961 80.2063C57.2439 80.2199 57.583 80.0958 57.8396 79.8609C58.0963 79.6259 58.2497 79.2992 58.2665 78.9518C58.287 78.6828 58.2918 78.4129 58.2809 78.1434C58.2809 70.3079 58.2809 62.4723 58.2809 54.6367C58.2809 52.5499 60.201 51.209 62.0202 52.0198C62.5168 52.2124 62.9416 52.5535 63.2368 52.9966C63.5319 53.4397 63.6829 53.9631 63.6691 54.4952C63.6883 61.6431 63.6691 68.7887 63.6907 75.9367C63.6878 76.0985 63.6489 76.2576 63.5766 76.4024C63.5044 76.5473 63.4007 76.6741 63.2731 76.7738C62.5885 77.4429 61.9719 78.1781 61.4322 78.9686C60.7578 79.9472 60.7842 80.3646 61.569 81.2569C61.7658 81.6718 61.5018 82.0052 61.3434 82.3387C60.9498 83.1614 60.9306 84.1352 60.2802 84.8452Z" fill="white"/>
<path d="M91.7266 128.22C91.9966 126.941 91.9966 125.62 91.7266 124.341C92.8978 124.241 93.2962 123.823 93.2986 122.631C93.2986 119.22 93.3154 115.809 93.2866 112.401C93.2706 112.14 93.3228 111.879 93.4381 111.644C93.5534 111.409 93.7278 111.208 93.9442 111.06C97.9283 107.927 101.737 104.61 104.689 100.439C106.924 97.2847 108.64 93.8954 109.165 90.012C109.852 84.9365 108.311 80.5829 104.802 76.8986C104.637 76.7542 104.505 76.5765 104.415 76.3771C104.324 76.1778 104.277 75.9614 104.276 75.7425C104.296 68.7145 104.276 61.684 104.296 54.656C104.296 53.3104 105.016 52.3221 106.216 51.9287C106.73 51.7666 107.282 51.7659 107.797 51.9267C108.312 52.0876 108.765 52.4022 109.096 52.8282C109.576 53.4207 109.684 54.1043 109.681 54.8455C109.672 61.4562 109.672 68.0668 109.681 74.6775C109.681 75.9632 109.681 77.2488 109.681 78.5345C109.681 79.5995 110.161 80.1944 111.004 80.2136C111.882 80.2327 112.367 79.6379 112.37 78.5081C112.37 72.1373 112.37 65.7665 112.37 59.3957C112.37 57.7862 113.38 56.5989 114.815 56.4718C115.182 56.4316 115.553 56.4685 115.904 56.5802C116.255 56.692 116.579 56.876 116.855 57.1205C117.131 57.365 117.352 57.6645 117.505 57.9998C117.658 58.3351 117.739 58.6986 117.743 59.0671C117.765 66.6348 117.743 74.2025 117.762 81.7679C117.779 81.926 117.743 82.0851 117.66 82.2205C117.576 82.3559 117.45 82.4599 117.302 82.5163C113.308 84.5479 111.301 87.9132 110.771 92.2691C110.749 92.4473 110.738 92.6268 110.74 92.8064C110.74 93.634 111.256 94.2264 112.002 94.2696C112.749 94.3128 113.346 93.7731 113.418 92.948C113.507 91.6667 113.817 90.4104 114.335 89.2349C115.341 87.0425 116.937 85.4594 119.214 84.6295C120.1 84.3056 120.484 83.7827 120.467 82.8281C120.427 80.3455 120.446 77.8629 120.467 75.3803C120.467 73.9603 121.142 73.0392 122.421 72.6218C122.92 72.4563 123.129 72.8161 123.323 73.1471C123.745 73.8759 123.963 74.7042 123.955 75.5458C123.955 80.7796 123.981 86.0135 123.955 91.2449C123.936 93.2982 123.232 95.2865 121.953 96.8937C120.463 98.8414 118.977 100.793 117.494 102.749C116.297 104.3 115.664 106.212 115.698 108.17C115.714 117.62 115.714 127.07 115.698 136.519C115.698 138.225 115.698 138.225 113.987 138.225C110.307 138.225 106.627 138.225 102.947 138.225C102.62 138.188 102.289 138.207 101.968 138.28C99.2772 138.28 96.5891 138.28 93.901 138.328C93.313 138.328 93.3058 138.069 93.3082 137.632C93.3226 135.063 93.3226 132.494 93.3082 129.928C93.2938 128.733 92.8978 128.316 91.7266 128.22Z" fill="white"/>
<path d="M60.2812 84.8458C60.5964 83.6092 61.0263 82.4047 61.5653 81.2478C62.4605 81.6196 63.0821 81.3078 63.6173 80.5282C68.4175 73.5938 77.1057 74.2222 82.0114 79.6072C83.4515 81.1783 84.5483 81.2071 85.9307 79.624C90.0108 74.9562 96.9398 74.0927 101.622 77.6691C101.738 77.7602 101.836 77.8729 101.944 77.9737C105.482 82.9988 105.124 88.2375 102.748 93.5649C101.291 96.8246 99.1479 99.6119 96.6758 102.174C92.5429 106.46 87.7308 109.924 82.9955 113.481C82.7146 113.692 82.4194 113.932 82.0354 113.721C76.3521 109.54 70.5895 105.443 66.195 99.8085C63.8117 96.7575 62.0189 93.4138 61.4549 89.516C61.3234 88.5669 61.3033 87.6057 61.3949 86.652C61.4525 85.7501 61.1165 85.1696 60.2812 84.8458Z" fill="#BF5B24"/>
<path d="M101.953 138.275C102.239 138.035 102.584 138.136 102.901 138.136C106.758 138.136 110.617 138.107 114.474 138.136C115.218 138.136 115.434 137.932 115.434 137.176C115.41 127.613 115.451 118.049 115.398 108.488C115.349 106.15 116.137 103.871 117.621 102.062C119.234 100.04 120.741 97.9343 122.286 95.8619C123.273 94.5426 123.64 92.9835 123.657 91.4076C123.715 86.0586 123.703 80.7097 123.657 75.3607C123.657 74.3149 123.503 73.2163 122.416 72.5998C124.171 72.029 125.966 73.2187 125.98 75.0944C126.027 80.6545 126.027 86.2145 125.98 91.7746C125.968 93.2378 125.385 94.557 124.483 95.7276C123.009 97.6465 121.571 99.5966 120.074 101.496C118.532 103.425 117.716 105.833 117.767 108.301C117.789 117.956 117.767 127.61 117.796 137.265C117.796 138.092 117.58 138.292 116.766 138.284C111.822 138.256 106.888 138.275 101.953 138.275Z" fill="white"/>
<path d="M82.0234 113.725C83.1971 113.298 84.0395 112.381 85.0187 111.676C88.0265 109.549 90.9112 107.253 93.659 104.799C97.9287 100.923 101.718 96.656 103.499 90.9999C104.855 86.704 104.598 82.5567 102.179 78.6493C102.077 78.4374 101.996 78.2156 101.939 77.9873C105.582 81.0264 107.119 84.9434 106.499 89.5991C105.858 94.3964 103.295 98.2846 100.142 101.806C96.5414 105.836 92.2213 109.071 87.9204 112.302C86.8692 113.091 85.7939 113.849 84.7715 114.675C84.2051 115.13 83.7419 115.171 83.2043 114.675C82.8347 114.327 82.4194 114.037 82.0234 113.725Z" fill="#BF5B24"/>
<path d="M66.3707 74.4546V66.5391C66.3707 63.7902 66.3539 61.039 66.3707 58.2901C66.3696 57.9377 66.438 57.5884 66.572 57.2624C66.7059 56.9363 66.9028 56.6398 67.1514 56.3898C67.4 56.1397 67.6955 55.9411 68.0209 55.8052C68.3463 55.6693 68.6953 55.5988 69.048 55.5977C69.4007 55.5966 69.7502 55.6649 70.0764 55.7988C70.4027 55.9326 70.6994 56.1294 70.9495 56.3779C71.1997 56.6263 71.3985 56.9216 71.5344 57.2468C71.6704 57.5721 71.741 57.9209 71.7421 58.2734C71.7709 62.9363 71.7541 67.5969 71.7733 72.2599C71.7733 72.6676 71.6797 72.8187 71.2501 72.8715C69.5371 73.0816 67.8805 73.619 66.3707 74.4546Z" fill="white"/>
<path d="M101.59 74.4521C100.058 73.6137 98.3799 73.0732 96.6459 72.8594C96.2331 72.8139 96.1875 72.6196 96.1875 72.2862C96.1995 67.592 96.1875 62.9003 96.2163 58.2085C96.2188 57.856 96.2914 57.5075 96.4299 57.1833C96.5684 56.8592 96.77 56.5657 97.0231 56.3202C97.2762 56.0746 97.5756 55.8819 97.9039 55.7531C98.2323 55.6243 98.5829 55.5621 98.9356 55.57C99.2804 55.5675 99.6222 55.633 99.9417 55.7627C100.261 55.8925 100.552 56.0839 100.797 56.3261C101.042 56.5684 101.237 56.8565 101.371 57.1742C101.504 57.4919 101.574 57.8328 101.576 58.1773C101.604 63.5695 101.59 68.9377 101.59 74.4521Z" fill="white"/>
<path d="M72.3086 138.278V109.763C72.9686 110.274 73.619 110.797 74.2934 111.288C74.4255 111.382 74.5301 111.509 74.5963 111.657C74.6626 111.804 74.6881 111.967 74.6703 112.128C74.6703 120.653 74.6703 129.176 74.6703 137.697C74.6703 138.139 74.5935 138.359 74.0894 138.319C73.5086 138.268 72.899 138.287 72.3086 138.278Z" fill="white"/>
<path d="M88.1335 74.5048C88.1335 72.075 88.0759 69.7771 88.1551 67.484C88.2031 66.0304 89.5087 64.9918 90.968 65.0566C91.648 65.0784 92.2925 65.3647 92.7646 65.8543C93.2366 66.344 93.4987 66.9984 93.4953 67.6783C93.5169 69.2038 93.4953 70.7294 93.5073 72.2549C93.5073 72.6219 93.4809 72.881 93.0272 72.9337C91.3472 73.1208 89.7944 73.7229 88.1335 74.5048Z" fill="white"/>
<path d="M76.2344 65.2488C77.5424 64.606 79.6641 65.4335 79.7937 67.4652C79.9401 69.7631 79.8273 72.0753 79.8273 74.4692L77.1392 73.3634C76.988 71.7899 77.0624 70.2116 77.0888 68.6357C77.1104 67.4076 76.964 66.261 76.2344 65.2488Z" fill="white"/>
<path d="M76.2347 65.248C77.0987 65.5359 77.2619 66.3562 77.2931 67.0302C77.3891 69.0403 77.3267 71.0576 77.3147 73.07C77.3147 73.1684 77.1995 73.2667 77.1395 73.3627C76.7339 73.2787 76.3259 73.1972 75.9227 73.106C74.4634 72.775 74.4634 72.7726 74.4634 71.2135C74.4634 70.0142 74.449 68.834 74.4634 67.6467C74.4778 66.4594 75.097 65.6822 76.2347 65.248Z" fill="white"/>
</g>
<defs>
<clipPath id="clip0_1157_5489">
<rect width="90" height="92" fill="white" transform="translate(39 49)"/>
</clipPath>
</defs>
</svg>
